<?xml version="1.0" standalone="no"?>
<!DOCTYPE svg PUBLIC "-//W3C//DTD SVG 1.1//EN" "http://www.w3.org/Graphics/SVG/1.1/DTD/svg11.dtd" >
<svg xmlns="http://www.w3.org/2000/svg">
<metadata>
Created by FontPrep 20130207 at Mon Jul  6 08:36:17 2015
 By Nico Watine
Copyright (c) 2012 by Jos Buivenga. All rights reserved.
</metadata>
<defs>
<font id="3de9e3e779dc83c8711e382dfdac696a" horiz-adv-x='1024' >
  <font-face 
    font-family="MuseoSansCyrl-500"
    font-weight="400"
    font-stretch="normal"
    units-per-em="2048"
    panose-1="2 0 0 0 0 0 0 0 0 0"
    ascent="1536"
    descent="-512"
    x-height="1036"
    cap-height="1446"
    bbox="-246 -440 2228 1827"
    underline-thickness="102"
    underline-position="-102"
    unicode-range="U+0020-FB04"
  />
<missing-glyph horiz-adv-x="1044" 
d="M174 102h696l-348 523zM113 195l348 522l-348 522v-1044zM584 717l348 -522v1044zM522 809l348 522h-696zM10 0v1434h1024v-1434h-1024z" />
    <glyph glyph-name="f_f" unicode="ff" horiz-adv-x="1382" 
d="M201 0v877h-129v159h129v35q0 266 197 347q89 38 166 38t104 -6v-172q-16 4 -52 4q-217 0 -217 -213v-33h494v35q0 98 29 171t70 113q106 101 292 101q49 0 76 -6v-172q-16 4 -51 4q-217 0 -217 -213v-33h243v-159h-243v-877h-199v877h-494v-877h-198z" />
    <glyph glyph-name="fi" unicode="fi" horiz-adv-x="1189" 
d="M838 1245v201h202v-201h-202zM201 0v877h-129v159h129v35q0 266 197 347q89 38 194 38q35 0 76 -6v-172q-16 4 -52 4q-217 0 -217 -213v-33h639v-1036h-196v877h-443v-877h-198z" />
    <glyph glyph-name="fl" unicode="fl" horiz-adv-x="1224" 
d="M203 0v864h-129v162h129v45q0 266 197 347q89 38 194 38q37 0 76 -6v-172q-16 4 -52 4q-217 0 -217 -213v-43h244v-162h-244v-864h-198zM829 285v1161h197v-1129q0 -83 30 -115t68 -32t50 2v-176q-43 -6 -66 -6q-279 0 -279 295z" />
    <glyph glyph-name="f_f_i" unicode="ffi" horiz-adv-x="1882" 
d="M1530 1245v201h205v-201h-205zM201 0v877h-129v159h129v35q0 266 197 347q89 38 194 38q35 0 76 -6v-172q-16 4 -52 4q-217 0 -217 -213v-33h494v35q0 98 29 171t70 113q106 101 292 101q35 0 76 -6v-172q-16 4 -51 4q-217 0 -217 -213v-33h639v-1036h-197v877h-442v-877
h-199v877h-494v-877h-198z" />
    <glyph glyph-name="f_f_l" unicode="ffl" horiz-adv-x="1914" 
d="M1520 285v1161h198v-1129q0 -83 30 -115t68 -32t50 2v-176q-43 -6 -66 -6q-280 0 -280 295zM201 0v877h-129v159h129v35q0 266 197 347q89 38 194 38q35 0 76 -6v-172q-16 4 -52 4q-217 0 -217 -213v-33h494v35q0 98 29 171t70 113q106 101 292 101q35 0 76 -6v-172
q-16 4 -51 4q-217 0 -217 -213v-33h243v-159h-243v-877h-199v877h-494v-877h-198z" />
    <glyph glyph-name="f_j" unicode="fj" horiz-adv-x="1189" 
d="M838 1245v201h202v-201h-202zM201 0v877h-129v159h129v35q0 266 197 347q89 38 194 38q35 0 76 -6v-172q-16 4 -52 4q-217 0 -217 -213v-33h639v-1071q0 -98 -30 -172t-71 -114q-106 -101 -294 -101q-25 0 -70 4v170q20 -4 50 -4t63 8q156 38 156 221v900h-443v-877h-198
z" />
    <glyph glyph-name=".notdef" horiz-adv-x="1044" 
d="M174 102h696l-348 523zM113 195l348 522l-348 522v-1044zM584 717l348 -522v1044zM522 809l348 522h-696zM10 0v1434h1024v-1434h-1024z" />
    <glyph glyph-name=".null" horiz-adv-x="0" 
 />
    <glyph glyph-name="nonmarkingreturn" horiz-adv-x="681" 
 />
    <glyph glyph-name="space" unicode=" " horiz-adv-x="512" 
 />
    <glyph glyph-name="exclam" unicode="!" horiz-adv-x="563" 
d="M178 0v203h205v-203h-205zM190 397l-12 1049h205l-14 -1049h-179z" />
    <glyph glyph-name="quotedbl" unicode="&#x22;" horiz-adv-x="747" 
d="M152 1085v385h157v-385h-157zM440 1085v385h156v-385h-156z" />
    <glyph glyph-name="numbersign" unicode="#" horiz-adv-x="1476" 
d="M549 541h317l62 346h-320zM289 0l67 391h-268l27 150h268l61 346h-266l25 149h266l72 410h166l-72 -410h317l72 410h166l-72 -410h268l-26 -149h-266l-62 -346h264l-24 -150h-264l-70 -391h-166l68 391h-318l-67 -391h-166z" />
    <glyph glyph-name="dollar" unicode="$" horiz-adv-x="1181" 
d="M608 164q102 0 174 57t72 147t-73 151t-177 105t-208 95t-178 139q-73 88 -73 224q-1 136 105 246q106 112 276 136v193h144v-191q207 -12 352 -143l-92 -166q-62 55 -148 91t-184 36t-174 -62q-74 -62 -74 -140q0 -141 184 -215q208 -84 342 -164q79 -46 131 -129
t52 -191q-1 -159 -105 -271t-284 -132v-189h-144v189q-251 24 -403 186l113 153q68 -67 168 -111q102 -44 204 -44z" />
    <glyph glyph-name="percent" unicode="%" horiz-adv-x="1562" 
d="M1004 279q0 -63 43 -107t106 -45q63 0 108 44q44 43 44 107t-44 109q-43 45 -107 45t-107 -45t-43 -108zM844 277q0 125 90 215t219 90t220 -89t91 -215t-91 -215q-91 -88 -220 -88t-219 88t-90 214zM410 1321q-62 0 -106 -45q-44 -44 -44 -108t44 -108t108 -44t108 44
t43 107q0 63 -45 109t-108 45zM131 0l1108 1446h193l-1106 -1446h-195zM410 864q-129 0 -220 88q-90 88 -90 214t90 215t220 89t221 -89q92 -89 92 -214t-92 -214t-221 -89z" />
    <glyph glyph-name="ampersand" unicode="&#x26;" horiz-adv-x="1380" 
d="M641 674q-155 0 -237 -68t-82 -183q0 -116 80 -189q80 -72 218 -72q137 0 217 82q79 82 78 248v182h-274zM115 403q0 125 68 230q69 104 186 141v4q-88 39 -141 121q-52 82 -52 199q0 176 124 274t323 98q82 0 176 -22l-51 -162q-45 12 -109 12q-111 0 -183 -59t-73 -155
q0 -96 58 -166q58 -68 206 -68h268v197h201v-197h193v-176h-193v-193q0 -241 -133 -373t-361 -132t-368 121q-139 122 -139 306z" />
    <glyph glyph-name="quotesingle" unicode="'" horiz-adv-x="462" 
d="M152 1085v385h157v-385h-157z" />
    <glyph glyph-name="parenleft" unicode="(" horiz-adv-x="600" 
d="M289 672q0 -446 231 -867h-174q-238 395 -237 891q0 430 237 809h174q-231 -387 -231 -833z" />
    <glyph glyph-name="parenright" unicode=")" horiz-adv-x="600" 
d="M311 672q0 446 -231 833h174q238 -379 238 -809q0 -496 -238 -891h-174q231 421 231 867z" />
    <glyph glyph-name="asterisk" unicode="*" horiz-adv-x="1013" 
d="M348 674l-149 106l184 226v4l-281 75l56 175l272 -105l-16 291h186l-16 -291l274 102l55 -170l-280 -77v-4l182 -226l-147 -106l-160 241h-4z" />
    <glyph glyph-name="plus" unicode="+" horiz-adv-x="1181" 
d="M49 504v160h459v503h168v-503h457v-160h-457v-504h-168v504h-459z" />
    <glyph glyph-name="comma" unicode="," horiz-adv-x="557" 
d="M72 -207l127 422h209l-179 -422h-157z" />
    <glyph glyph-name="hyphen" unicode="-" horiz-adv-x="884" 
d="M143 496v176h598v-176h-598z" />
    <glyph glyph-name="period" unicode="." horiz-adv-x="499" 
d="M143 0v215h213v-215h-213z" />
    <glyph glyph-name="slash" unicode="/" horiz-adv-x="851" 
d="M78 -86l520 1610h176l-520 -1610h-176z" />
    <glyph glyph-name="zero" unicode="0" horiz-adv-x="1273" 
d="M637 162q303 0 303 561t-303 561t-303 -561t303 -561zM637 -25q-139 -1 -241 57t-160 162q-57 104 -84 236q-27 131 -27 295t27 294q94 451 485 451q512 0 512 -748t-512 -747z" />
    <glyph glyph-name="one" unicode="1" horiz-adv-x="1011" 
d="M117 0v176h319v934l2 88h-4q-16 -31 -69 -84l-136 -131l-123 127l347 336h180v-1270h317v-176h-833z" />
    <glyph glyph-name="two" unicode="2" horiz-adv-x="1173" 
d="M113 140q0 74 39 165q39 90 101 156t138 124t153 109q77 50 139 102q140 116 140 233t-73 184q-74 67 -176 67t-180 -51q-79 -51 -126 -133l-149 100q66 121 186 198q121 77 273 76q202 0 328 -114t126 -301q0 -111 -51 -207t-128 -158t-167 -129q-90 -66 -168 -117
q-78 -52 -130 -122t-54 -146h721v-176h-932q-10 66 -10 140z" />
    <glyph glyph-name="three" unicode="3" horiz-adv-x="1161" 
d="M563 168q111 0 197 75t86 195t-97 191q-97 70 -241 69h-98l-48 109l316 371q46 57 90 94v4q-43 -6 -123 -6h-489v176h864v-129l-393 -455q234 -22 355 -193q69 -97 69 -231q1 -190 -137 -326t-355 -137q-129 -1 -254 51t-215 146l111 154q63 -68 157 -113t205 -45z" />
    <glyph glyph-name="four" unicode="4" horiz-adv-x="1249" 
d="M293 557h477v528l8 146h-4q-33 -70 -72 -121l-409 -549v-4zM70 387v127l669 932h230v-889h196v-170h-196v-387h-199v387h-700z" />
    <glyph glyph-name="five" unicode="5" horiz-adv-x="1153" 
d="M532 168q131 0 224 82q92 82 92 211t-93 213t-231 84t-248 -72l-118 43l71 717h732v-176h-555l-33 -305l-13 -74h5q82 43 188 43q225 0 365 -136t139 -340t-147 -343t-365 -140q-129 1 -247 53t-198 148l115 148q127 -156 317 -156z" />
    <glyph glyph-name="six" unicode="6" horiz-adv-x="1222" 
d="M664 162q114 0 186 84t72 216t-80 217t-208 85t-216 -59t-88 -154q0 -133 96 -261t238 -128zM117 655q0 243 107 460t303 306q109 49 253 49t269 -59l-66 -174q-90 47 -209 47q-184 0 -295 -142t-137 -343h4q45 61 134 98t186 37q204 0 330 -135t126 -343t-131 -344
t-349 -136t-372 188t-153 491z" />
    <glyph glyph-name="seven" unicode="7" horiz-adv-x="1099" 
d="M731 1270h-647v176h967v-139l-652 -1307h-211l564 1137q31 63 82 133v4q-29 -4 -103 -4z" />
    <glyph glyph-name="eight" unicode="8" horiz-adv-x="1234" 
d="M319 428q1 -117 89 -194q88 -76 206 -76t203 68q86 68 86 170q0 101 -82 157t-187 101q-104 45 -138 61q-177 -123 -177 -287zM889 1069q0 103 -72 161q-71 58 -187 58t-182 -57t-65 -130t23 -105q22 -33 66 -69t109 -65q65 -30 109 -49t68 -29q131 139 131 285zM113 412
q0 157 96 266q74 84 135 125q-162 113 -162 279t117 277t327 111t336 -105t125 -280q0 -82 -45 -189t-129 -189q197 -119 197 -301t-137 -306q-137 -125 -355 -125q-218 1 -362 125q-143 124 -143 312z" />
    <glyph glyph-name="nine" unicode="9" horiz-adv-x="1222" 
d="M589 682q128 0 216 62t88 141q0 147 -97 273q-96 126 -224 126t-200 -83t-71 -216q0 -133 80 -218t208 -85zM444 162q186 0 297 142t138 343h-5q-43 -61 -133 -98t-186 -37q-203 0 -330 135t-127 344t131 344t334 135q237 0 389 -188t152 -490t-157 -548
q-77 -121 -205 -195q-128 -73 -288 -73t-282 59l66 176q98 -49 206 -49z" />
    <glyph glyph-name="colon" unicode=":" horiz-adv-x="495" 
d="M143 0v211h209v-211h-209zM143 825v211h209v-211h-209z" />
    <glyph glyph-name="semicolon" unicode=";" horiz-adv-x="589" 
d="M109 -207l108 422h205l-156 -422h-157zM221 825v211h205v-211h-205z" />
    <glyph glyph-name="less" unicode="&#x3c;" horiz-adv-x="1181" 
d="M86 516v135l954 426v-182l-731 -309v-4l731 -310v-182z" />
    <glyph glyph-name="equal" unicode="=" horiz-adv-x="1181" 
d="M102 309v160h977v-160h-977zM102 696v160h977v-160h-977z" />
    <glyph glyph-name="greater" unicode="&#x3e;" horiz-adv-x="1181" 
d="M139 90v182l731 310v4l-731 309v182l955 -426v-135z" />
    <glyph glyph-name="question" unicode="?" horiz-adv-x="954" 
d="M303 0v203h205v-203h-205zM309 397v97q0 157 123 273q51 48 102 92q123 108 121 226q0 86 -66 145q-67 58 -179 58t-220 -86l-110 141q146 131 340 131t319 -104t125 -274t-127 -290q-53 -50 -107 -96q-128 -109 -128 -229v-84h-193z" />
    <glyph glyph-name="at" unicode="@" horiz-adv-x="1630" 
d="M760 497q0 -101 68 -171t169 -70h207v483h-203q-104 0 -173 -70q-68 -71 -68 -172zM115 494q0 317 217 537t530 220q276 0 405 -117q128 -118 128 -298v-580h147v-150h-559q-186 0 -305 114t-119 273t118 271t306 113h221q-2 90 -90 150t-242 60q-236 0 -398 -176
q-162 -177 -161 -421q0 -244 163 -414t419 -170v-162q-338 0 -559 216t-221 534z" />
    <glyph glyph-name="A" unicode="A" horiz-adv-x="1312" 
d="M436 584h438l-159 456l-58 207h-4q-31 -131 -55 -207zM31 0l518 1446h215l518 -1446h-209l-145 416h-545l-145 -416h-207z" />
    <glyph glyph-name="B" unicode="B" horiz-adv-x="1277" 
d="M393 176h326q115 0 181 68t67 180q0 112 -68 178q-68 68 -180 68h-326v-494zM393 838h303q96 0 155 61q58 61 58 157t-57 155q-57 58 -158 59h-301v-432zM190 0v1446h506q188 0 304 -98t116 -271q0 -104 -48 -186t-132 -125v-4q113 -33 176 -129t64 -221
q0 -196 -134 -304t-333 -108h-519z" />
    <glyph glyph-name="C" unicode="C" horiz-adv-x="1468" 
d="M102 728q0 320 208 532t533 210q325 0 523 -190l-102 -152q-80 72 -194 115t-224 43q-246 0 -390 -158t-144 -396t146 -404q148 -166 392 -166q121 0 239 50t205 138l109 -145q-229 -229 -559 -229t-536 215q-206 217 -206 537z" />
    <glyph glyph-name="D" unicode="D" horiz-adv-x="1509" 
d="M393 176h264q248 0 393 142q144 142 144 404t-145 405q-145 142 -392 143h-264v-1094zM190 0v1446h482q334 0 532 -192t199 -530q0 -340 -199 -532t-532 -192h-482z" />
    <glyph glyph-name="E" unicode="E" horiz-adv-x="1155" 
d="M190 0v1446h842v-176h-639v-453h518v-176h-518v-465h674v-176h-877z" />
    <glyph glyph-name="F" unicode="F" horiz-adv-x="1052" 
d="M190 0v1446h797v-176h-594v-477h506v-177h-506v-616h-203z" />
    <glyph glyph-name="G" unicode="G" horiz-adv-x="1560" 
d="M102 720q0 320 211 535t527 215t526 -176l-102 -149q-74 61 -188 101t-222 40q-246 0 -394 -160t-148 -402t151 -402t383 -160t405 180v209h-233v176h420v-727h-178v90l2 62h-5q-77 -80 -195 -128t-249 -49q-297 0 -504 212q-207 213 -207 533z" />
    <glyph glyph-name="H" unicode="H" horiz-adv-x="1536" 
d="M190 0v1446h203v-635h752v635h201v-1446h-201v635h-752v-635h-203z" />
    <glyph glyph-name="I" unicode="I" horiz-adv-x="585" 
d="M190 0v1446h203v-1446h-203z" />
    <glyph glyph-name="J" unicode="J" horiz-adv-x="1091" 
d="M57 416v71h201v-61q0 -116 56 -190t162 -74t172 62q65 62 65 194v852h-365v176h565v-1030q0 -219 -126 -330t-302 -111t-302 112t-126 329z" />
    <glyph glyph-name="K" unicode="K" horiz-adv-x="1257" 
d="M190 0v1446h203v-608h215l367 608h223l-422 -686v-4l449 -756h-232l-385 662h-215v-662h-203z" />
    <glyph glyph-name="L" unicode="L" horiz-adv-x="1077" 
d="M190 0v1446h203v-1270h649v-176h-852z" />
    <glyph glyph-name="M" unicode="M" horiz-adv-x="1742" 
d="M135 0l119 1446h211l334 -782l69 -195h4q39 115 72 195l334 782h211l117 -1446h-201l-70 911l-4 213h-4q-45 -133 -78 -213l-288 -651h-181l-286 651l-78 217h-4q4 -129 -4 -217l-70 -911h-203z" />
    <glyph glyph-name="N" unicode="N" horiz-adv-x="1540" 
d="M190 0v1446h201l645 -938l119 -211h4q-12 129 -12 211v938h201v-1446h-199l-645 938l-119 211h-4q12 -129 12 -211v-938h-203z" />
    <glyph glyph-name="O" unicode="O" horiz-adv-x="1685" 
d="M843 1286q-230 0 -382 -158t-152 -399q0 -239 152 -403t382 -164t382 164q151 164 151 404t-152 398t-381 158zM1585 728q0 -318 -211 -534q-211 -218 -530 -218q-320 0 -532 217t-212 535t211 530t531 212t532 -212q211 -212 211 -530z" />
    <glyph glyph-name="P" unicode="P" horiz-adv-x="1241" 
d="M393 711h295q129 -1 205 75t76 206t-75 204t-204 74h-297v-559zM190 0v1446h531q201 0 327 -124t126 -329t-127 -331t-326 -127h-328v-535h-203z" />
    <glyph glyph-name="Q" unicode="Q" horiz-adv-x="1687" 
d="M1376 731q0 239 -152 397t-380 158q-227 0 -380 -158t-153 -398t153 -404t378 -164q186 0 315 106l-170 166l117 127l166 -170q106 147 106 340zM842 -25q-320 -1 -530 219t-210 536t211 528t532 212t531 -212t209 -527q0 -272 -168 -477l170 -164l-119 -127l-168 170
q-193 -158 -458 -158z" />
    <glyph glyph-name="R" unicode="R" horiz-adv-x="1286" 
d="M393 752h291q118 0 188 72t70 194q0 170 -135 227q-55 25 -174 25h-240v-518zM190 0v1446h459q183 0 279 -43t157 -141t61 -236t-70 -247q-71 -110 -187 -148v-4q16 -20 41 -66l307 -561h-229l-306 575h-309v-575h-203z" />
    <glyph glyph-name="S" unicode="S" horiz-adv-x="1116" 
d="M572 164q106 0 176 56t70 148t-73 153q-72 61 -175 105t-205 93t-175 137q-72 88 -71 213q0 180 134 291t339 110q248 0 403 -147l-92 -166q-61 57 -148 92t-185 35t-173 -56q-73 -56 -73 -138t51 -138q51 -55 129 -87q78 -31 168 -73t168 -87t129 -127t51 -191
q0 -176 -123 -294t-338 -118q-280 1 -475 191l115 153q70 -67 168 -111q99 -44 205 -44z" />
    <glyph glyph-name="T" unicode="T" horiz-adv-x="1259" 
d="M528 0v1270h-497v176h1196v-176h-498v-1270h-201z" />
    <glyph glyph-name="U" unicode="U" horiz-adv-x="1486" 
d="M174 512v934h203v-932q0 -166 99 -259t267 -93t267 93q98 93 98 261v930h203v-934q0 -242 -156 -389t-411 -147q-254 0 -412 146q-158 148 -158 390z" />
    <glyph glyph-name="V" unicode="V" horiz-adv-x="1318" 
d="M553 0l-528 1446h217l360 -1022l55 -199h5q29 121 55 199l362 1022h215l-528 -1446h-213z" />
    <glyph glyph-name="W" unicode="W" horiz-adv-x="1927" 
d="M428 0l-369 1446h213l252 -1061l29 -154h4q12 74 33 154l284 1061h179l282 -1061l33 -154h4q8 76 27 154l268 1061h209l-381 -1446h-231l-254 938l-43 203h-9q-18 -109 -45 -203l-251 -938h-234z" />
    <glyph glyph-name="X" unicode="X" horiz-adv-x="1224" 
d="M33 0l454 745l-426 701h232l227 -391l92 -172h4q41 92 89 172l229 391h233l-430 -701l457 -745h-227l-265 444l-90 166h-4q-43 -86 -88 -166l-262 -444h-225z" />
    <glyph glyph-name="Y" unicode="Y" horiz-adv-x="1212" 
d="M506 0v612l-486 834h230l266 -475l88 -183h4q43 98 88 183l267 475h229l-485 -834v-612h-201z" />
    <glyph glyph-name="Z" unicode="Z" horiz-adv-x="1216" 
d="M74 0v135l694 1004q50 74 92 116l12 15v4q-39 -4 -106 -4h-657v176h1015v-133l-696 -1006q-49 -68 -88 -114l-14 -17v-4q37 4 106 4h701v-176h-1059z" />
    <glyph glyph-name="bracketleft" unicode="[" horiz-adv-x="616" 
d="M176 -195v1700h340v-149h-166v-1399h166v-152h-340z" />
    <glyph glyph-name="backslash" unicode="\" horiz-adv-x="851" 
d="M598 -86l-520 1610h176l520 -1610h-176z" />
    <glyph glyph-name="bracketright" unicode="]" horiz-adv-x="616" 
d="M100 -43h166v1399h-166v149h340v-1700h-340v152z" />
    <glyph glyph-name="asciicircum" unicode="^" horiz-adv-x="1253" 
d="M141 506l410 940h129l410 -940h-181l-295 721l-292 -721h-181z" />
    <glyph glyph-name="underscore" unicode="_" horiz-adv-x="1222" 
d="M59 0h1104v-160h-1104v160z" />
    <glyph glyph-name="grave" unicode="`" horiz-adv-x="1021" 
d="M524 1546l-194 260h213l149 -260h-168z" />
    <glyph glyph-name="a" unicode="a" horiz-adv-x="1079" 
d="M266 299q0 -68 51 -117t144 -49q123 1 201 103t77 227v39h-51q-422 0 -422 -203zM68 271q0 127 63 205q100 122 365 157q90 12 190 12h53v21q0 227 -227 227q-150 0 -291 -100l-80 145q63 53 172 88t215 35q197 -1 303 -105t107 -301v-655h-186v104l6 82h-4
q-46 -92 -138 -151t-218 -59t-228 83q-102 85 -102 212z" />
    <glyph glyph-name="b" unicode="b" horiz-adv-x="1230" 
d="M346 531q0 -167 77 -275t210 -109t219 99t86 269t-81 270t-210 101t-215 -94t-86 -261zM154 0v1446h198v-479l-8 -88h4q47 84 138 133t198 49q209 0 332 -150q123 -151 123 -395t-131 -392t-340 -149q-102 1 -190 51t-140 136h-4q6 -31 6 -78v-84h-186z" />
    <glyph glyph-name="c" unicode="c" horiz-adv-x="1116" 
d="M641 -25q-243 -1 -399 153t-156 388t157 389q157 156 401 156t386 -152l-94 -139q-119 119 -281 119q-162 1 -264 -105t-102 -265t103 -265t263 -107q86 0 173 38t147 102l80 -146q-72 -76 -183 -121t-231 -45z" />
    <glyph glyph-name="d" unicode="d" horiz-adv-x="1230" 
d="M885 504q0 168 -77 276t-211 107q-134 1 -219 -99t-85 -269t81 -270t210 -101t215 94t86 262zM90 519q0 245 131 393t338 149q100 0 186 -44t136 -126h4q-4 31 -4 70v485h196v-1446h-188v104l6 70h-4q-47 -88 -136 -143t-208 -56q-207 -1 -332 149t-125 395z" />
    <glyph glyph-name="e" unicode="e" horiz-adv-x="1140" 
d="M299 635h555q-4 129 -75 201t-183 72t-194 -74q-83 -72 -103 -199zM637 -25q-243 0 -397 155q-154 156 -154 394t147 388t365 149q218 0 338 -138q119 -138 119 -348q0 -27 -8 -83h-754q8 -162 109 -253t259 -91t293 120l84 -145q-74 -68 -184 -108t-217 -40z" />
    <glyph glyph-name="f" unicode="f" horiz-adv-x="694" 
d="M203 0v864h-129v162h129v45q0 266 197 347q89 38 194 38q37 0 76 -6v-172q-16 4 -52 4q-217 0 -217 -213v-43h244v-162h-244v-864h-198z" />
    <glyph glyph-name="g" unicode="g" horiz-adv-x="1216" 
d="M575 889q-133 0 -207 -91t-75 -253q0 -162 81 -261q81 -100 211 -100t207 84t76 273q0 348 -293 348zM536 -258q146 0 237 71t91 218v84l6 65h-4q-100 -168 -311 -168t-337 150t-126 379t121 374t332 146q104 0 192 -39t135 -119h7q-6 12 -7 31v102h191v-993
q0 -123 -44 -217q-79 -169 -286 -229q-90 -27 -192 -27q-182 0 -355 86l66 156q138 -70 284 -70z" />
    <glyph glyph-name="h" unicode="h" horiz-adv-x="1234" 
d="M154 0v1446h198v-537l-8 -86h4q44 90 146 164t243 74q354 0 355 -397v-664h-199v618q0 125 -40 193t-155 68q-150 0 -248 -110t-98 -277v-492h-198z" />
    <glyph glyph-name="i" unicode="i" horiz-adv-x="503" 
d="M154 0v1036h198v-1036h-198zM150 1245v201h204v-201h-204z" />
    <glyph glyph-name="j" unicode="j" horiz-adv-x="503" 
d="M154 -23v1059h198v-1071q0 -98 -30 -172t-71 -114q-106 -101 -296 -101q-20 0 -70 4v170q20 -4 51 -4t64 8q96 23 131 101q23 48 23 120zM150 1245v201h204v-201h-204z" />
    <glyph glyph-name="k" unicode="k" horiz-adv-x="1069" 
d="M154 0v1446h198v-791h148l280 381h226l-344 -456v-5l382 -575h-231l-309 485h-152v-485h-198z" />
    <glyph glyph-name="l" unicode="l" horiz-adv-x="546" 
d="M154 285v1161h196v-1129q0 -83 30 -115t68 -32t50 2v-176q-43 -6 -66 -6q-278 0 -278 295z" />
    <glyph glyph-name="m" unicode="m" horiz-adv-x="1871" 
d="M154 0v1036h192v-141l-6 -78h4q39 96 141 170t220 74q256 0 309 -236h4q45 96 146 166t222 70q176 0 260 -98t83 -299v-664h-199v621q0 125 -38 193t-144 67q-136 0 -222 -120t-86 -278v-483h-198v621q0 123 -36 191t-142 69q-140 0 -226 -121t-86 -277v-483h-198z" />
    <glyph glyph-name="n" unicode="n" horiz-adv-x="1234" 
d="M154 0v1036h192v-141l-6 -78h4q39 88 140 166t253 78q354 0 355 -397v-664h-199v618q0 125 -40 193t-155 68q-150 0 -248 -110t-98 -271v-498h-198z" />
    <glyph glyph-name="o" unicode="o" horiz-adv-x="1288" 
d="M289 519q0 -161 103 -266q104 -105 252 -105t252 106t105 266q0 160 -104 264t-253 104t-252 -104t-103 -265zM86 519q0 232 162 387t396 155t396 -154t162 -387t-162 -389t-395 -156t-396 156t-163 388z" />
    <glyph glyph-name="p" unicode="p" horiz-adv-x="1230" 
d="M346 532q0 -166 79 -275q79 -110 210 -110q131 -1 217 99t86 269t-81 270t-210 101t-215 -94t-86 -260zM154 -410v1446h184v-92l-6 -78h4q49 92 141 144t207 51q209 0 332 -150q123 -151 123 -395t-131 -392t-338 -148t-322 176h-4q8 -37 8 -91v-471h-198z" />
    <glyph glyph-name="q" unicode="q" horiz-adv-x="1230" 
d="M885 504q0 168 -77 276t-211 107q-134 1 -219 -99t-85 -269t81 -270t210 -101t215 94t86 262zM90 519q0 245 131 393t338 149q101 0 191 -48t139 -132h4q-4 31 -4 71v84h188v-1446h-196v480l4 90h-4q-45 -80 -132 -132t-202 -53q-207 -1 -332 149t-125 395z" />
    <glyph glyph-name="r" unicode="r" horiz-adv-x="770" 
d="M154 0v1036h192v-186l-6 -76h4q39 119 127 197t203 78q20 0 53 -5v-196q-16 4 -57 4q-156 0 -237 -126t-81 -296v-430h-198z" />
    <glyph glyph-name="s" unicode="s" horiz-adv-x="915" 
d="M465 141q80 0 128 36t48 94q0 57 -55 97t-133 68t-156 64t-133 102t-55 160q0 141 106 220t266 79q209 0 336 -115l-80 -143q-45 43 -117 67t-149 25q-76 0 -124 -33t-48 -92t55 -98t133 -67q78 -29 157 -63t134 -101t56 -160q0 -133 -104 -219t-269 -87q-245 0 -395 152
l94 135q125 -121 305 -121z" />
    <glyph glyph-name="t" unicode="t" horiz-adv-x="714" 
d="M197 379v485h-136v162h140v295h194v-295h250v-162h-250v-463q0 -160 112 -211q50 -22 93 -22t64 4v-176q-49 -6 -112 -6t-138 31q-74 31 -116 71t-72 114q-29 75 -29 173z" />
    <glyph glyph-name="u" unicode="u" horiz-adv-x="1222" 
d="M141 373v663h199v-618q0 -123 41 -191t154 -67q153 0 245 114t92 277v485h197v-1036h-192v143l8 76h-4q-41 -92 -143 -168t-242 -76q-355 1 -355 398z" />
    <glyph glyph-name="v" unicode="v" horiz-adv-x="1081" 
d="M428 0l-389 1036h211l252 -700l37 -141h4q16 84 35 141l251 700h209l-383 -1036h-227z" />
    <glyph glyph-name="w" unicode="w" horiz-adv-x="1695" 
d="M383 0l-334 1036h211l215 -727l27 -110h4q12 57 29 110l223 725h184l223 -725l27 -110h4q10 57 27 110l217 727h207l-332 -1036h-221l-213 666l-31 112h-4q-12 -59 -29 -112l-213 -666h-221z" />
    <glyph glyph-name="x" unicode="x" horiz-adv-x="1021" 
d="M35 0l354 532l-334 504h228l192 -315l33 -62h4q20 35 35 62l192 315h228l-334 -504l354 -532h-225l-250 401h-4q-14 -31 -31 -55l-217 -346h-225z" />
    <glyph glyph-name="y" unicode="y" horiz-adv-x="1095" 
d="M221 -260q125 0 189 154l51 118l-434 1024h223l260 -678l39 -125h4q16 70 35 123l252 680h215l-488 -1222q-45 -120 -134 -182t-202 -62q-51 0 -100 16t-74 33l-24 14l69 152q57 -45 119 -45z" />
    <glyph glyph-name="z" unicode="z" horiz-adv-x="1046" 
d="M74 0v115l524 655l84 96v4q-33 -4 -100 -4h-486v170h854v-114l-522 -656q-21 -29 -88 -96v-4q35 6 102 6h527v-172h-895z" />
    <glyph glyph-name="braceleft" unicode="{" horiz-adv-x="727" 
d="M258 158v196q0 90 -44 150t-130 74v176q82 16 128 74t46 153v172q0 92 26 161q26 68 62 104q90 90 244 91l47 -2v-151h-27q-54 0 -97 -26q-79 -50 -81 -189v-211q0 -90 -45 -160t-121 -100v-4q166 -66 166 -260v-236q0 -141 71 -183q54 -32 107 -32h27v-152
q-18 -4 -51 -4t-69 5t-86 28q-50 22 -86 58t-61 106q-26 70 -26 162z" />
    <glyph glyph-name="bar" unicode="|" horiz-adv-x="520" 
d="M172 -326v1948h174v-1948h-174z" />
    <glyph glyph-name="braceright" unicode="}" horiz-adv-x="727" 
d="M90 -45h29q55 -1 96 25q78 49 80 190v236q0 92 43 162t123 98v4q-70 26 -118 96t-48 164v211q0 137 -64 176t-112 39h-29v151q18 2 51 2q230 0 302 -195q26 -69 26 -161v-172q0 -89 45 -151t129 -76v-176q-82 -10 -128 -72t-46 -152v-196q0 -92 -26 -162
q-25 -70 -61 -106q-90 -91 -245 -91l-47 4v152z" />
    <glyph glyph-name="asciitilde" unicode="~" horiz-adv-x="1251" 
d="M139 418q0 174 75 260t212 86q72 0 130 -32t89 -68q85 -100 166 -101q80 -1 112 57t31 136h162q0 -346 -285 -346q-112 0 -187 70q-32 30 -62 59q-70 69 -144 69t-104 -57t-31 -133h-164z" />
    <glyph glyph-name="uni00A0" unicode="&#xa0;" horiz-adv-x="512" 
 />
    <glyph glyph-name="exclamdown" unicode="&#xa1;" horiz-adv-x="520" 
d="M360 1034v-203h-204v203h204zM348 637l12 -1049h-204l14 1049h178z" />
    <glyph glyph-name="cent" unicode="&#xa2;" horiz-adv-x="1181" 
d="M541 -25v175q-199 28 -316 188t-117 386t117 387t316 187v172h145v-172q132 -20 232 -103t153 -214l-180 -70q-90 203 -273 203q-145 0 -226 -110t-81 -283q0 -175 80 -281t227 -106q182 0 273 201l180 -70q-53 -125 -152 -213t-233 -102v-175h-145z" />
    <glyph glyph-name="sterling" unicode="&#xa3;" horiz-adv-x="1181" 
d="M98 0v176h125v477h-90v144h90v278q0 170 126 283q126 112 320 112t341 -131l-119 -141q-94 88 -213 88q-118 0 -184 -62t-66 -157v-270h377v-144h-377v-477h666v-176h-996z" />
    <glyph glyph-name="currency" unicode="&#xa4;" horiz-adv-x="1249" 
d="M457 799h239q131 1 204 67t73 176t-72 176q-72 65 -201 64h-243v-483zM254 0v348h-143v144h143v143h-143v164h143v647h477q211 0 331 -111t120 -299t-128 -296t-331 -107h-266v-141h512v-144h-512v-348h-203z" />
    <glyph glyph-name="yen" unicode="&#xa5;" horiz-adv-x="1181" 
d="M154 408v131h333v73l-53 99h-280v129h211l-338 606h231l242 -451l88 -207h4q43 111 88 207l244 451h231l-338 -606h207v-129h-276l-56 -99v-73h332v-131h-332v-408h-205v408h-333z" />
    <glyph glyph-name="section" unicode="&#xa7;" horiz-adv-x="915" 
d="M385 39q102 0 164 56q61 56 61 159q0 41 -12 92l-135 770h162l143 -799q10 -55 10 -92q0 -156 -104 -254t-276 -98t-294 104l91 138q88 -76 190 -76zM137 1120q-1 154 103 252t279 98t292 -104l-94 -131q-87 70 -189 70q-102 1 -162 -53t-61 -154q0 -43 10 -82l140 -789
h-162l-146 799q-10 39 -10 94z" />
    <glyph glyph-name="dieresis" unicode="&#xa8;" horiz-adv-x="1021" 
d="M258 1599v207h164v-207h-164zM602 1599v207h162v-207h-162z" />
    <glyph glyph-name="copyright" unicode="&#xa9;" horiz-adv-x="1685" 
d="M453 720q0 169 111 290q112 121 292 120q104 0 194 -55t140 -147l-127 -68q-27 53 -83 91t-120 38q-114 0 -184 -78q-70 -77 -70 -191t68 -191t186 -76q63 0 117 35q53 36 86 94l127 -68q-43 -84 -134 -143t-200 -60q-182 0 -293 120q-110 120 -110 289zM262 723
q0 -256 167 -433t413 -177t414 176t169 434q0 258 -169 434q-168 176 -414 176t-413 -177t-167 -433zM113 723q0 311 213 529t517 218t518 -218t214 -529t-214 -529t-518 -218t-517 218t-213 529z" />
    <glyph glyph-name="ordfeminine" unicode="&#xaa;" horiz-adv-x="872" 
d="M152 543v116h561v-116h-561zM414 903q58 0 102 56t43 126v17h-24q-233 0 -234 -111q0 -39 28 -63q27 -24 85 -25zM362 784q-76 0 -144 52q-67 52 -66 145q0 225 387 225h20v13q0 129 -131 129q-84 0 -170 -58l-59 101q100 75 237 75q271 -1 271 -258v-411h-140v94h-4
q-23 -45 -74 -76t-127 -31z" />
    <glyph glyph-name="guillemotleft" unicode="&#xab;" horiz-adv-x="1148" 
d="M428 158l-336 420l336 421h199l-336 -421l336 -420h-199zM506 578l336 421h198l-335 -421l335 -420h-198z" />
    <glyph glyph-name="logicalnot" unicode="&#xac;" horiz-adv-x="1282" 
d="M147 696v160h977v-549h-166v389h-811z" />
    <glyph glyph-name="uni00AD" unicode="&#xad;" horiz-adv-x="884" 
d="M143 496v176h598v-176h-598z" />
    <glyph glyph-name="registered" unicode="&#xae;" horiz-adv-x="1685" 
d="M735 745h123q59 0 92 35q33 36 33 96t-33 93t-90 32h-125v-256zM590 340v774h299q109 0 175 -66t66 -159q0 -95 -43 -149t-98 -68v-4q8 -8 27 -43l149 -285h-161l-142 299h-127v-299h-145zM262 723q0 -256 167 -433t413 -177t414 176t169 434q0 258 -169 434
q-168 176 -414 176t-413 -177t-167 -433zM113 723q0 311 213 529t517 218t518 -218t214 -529t-214 -529t-518 -218t-517 218t-213 529z" />
    <glyph glyph-name="macron" unicode="&#xaf;" horiz-adv-x="1021" 
d="M252 1606v145h520v-145h-520z" />
    <glyph glyph-name="degree" unicode="&#xb0;" horiz-adv-x="837" 
d="M418 1321q-62 0 -106 -45t-44 -110q0 -64 44 -108t108 -44t108 44t43 108q0 64 -45 110t-108 45zM418 864q-129 0 -219 88t-90 214t90 215t219 89t221 -89t92 -214t-92 -214t-221 -89z" />
    <glyph glyph-name="plusminus" unicode="&#xb1;" horiz-adv-x="1181" 
d="M82 -195h1018v-157h-1018v157zM49 504v160h459v503h168v-503h457v-160h-457v-504h-168v504h-459z" />
    <glyph glyph-name="twosuperior" unicode="&#xb2;" 
d="M90 940q0 96 45 171t109 121t126 86q154 97 154 189q0 57 -42 95t-105 38q-92 0 -174 -98l-101 92q43 64 120 106t161 42q127 0 211 -75t84 -194q0 -81 -42 -147t-102 -108t-122 -78q-150 -89 -156 -179h436v-135h-596q-6 37 -6 74z" />
    <glyph glyph-name="threesuperior" unicode="&#xb3;" 
d="M373 846q-86 0 -168 35t-133 100l86 109q31 -43 88 -73t124 -30q66 0 116 45t50 112q0 68 -52 106q-54 38 -128 38h-69l-35 78l182 211l51 49v4q-39 -6 -75 -6h-289v137h555v-98l-223 -258q102 -14 171 -81q68 -66 68 -184t-90 -206t-229 -88z" />
    <glyph glyph-name="acute" unicode="&#xb4;" horiz-adv-x="1021" 
d="M330 1546l147 260h215l-196 -260h-166z" />
    <glyph glyph-name="mu" unicode="&#xb5;" horiz-adv-x="1230" 
d="M348 -123v-287h-176v1446h199v-618q0 -125 39 -192t151 -66q156 0 247 114t91 277v485h199v-1036h-191v141l4 74h-6q-14 -36 -49 -80q-35 -45 -74 -77q-40 -32 -110 -58t-150 -25q-129 0 -186 66h-4q16 -102 16 -164z" />
    <glyph glyph-name="mu" unicode="&#x3bc;" horiz-adv-x="1230" 
d="M348 -123v-287h-176v1446h199v-618q0 -125 39 -192t151 -66q156 0 247 114t91 277v485h199v-1036h-191v141l4 74h-6q-14 -36 -49 -80q-35 -45 -74 -77q-40 -32 -110 -58t-150 -25q-129 0 -186 66h-4q16 -102 16 -164z" />
    <glyph glyph-name="paragraph" unicode="&#xb6;" horiz-adv-x="1222" 
d="M842 -102v1255h153v-1255h-153zM563 -102v596q-199 0 -342 138t-143 338t142 338t343 138h555v-176h-403v-1372h-152z" />
    <glyph glyph-name="periodcentered" unicode="&#xb7;" horiz-adv-x="495" 
d="M143 487v215h207v-215h-207z" />
    <glyph glyph-name="cedilla" unicode="&#xb8;" horiz-adv-x="1021" 
d="M672 -264q0 -76 -60 -118t-134 -42q-72 0 -128 12v121q35 -14 86 -14q98 0 99 63q0 63 -109 64l-37 -2l60 227l100 -22v-15l-25 -112q66 -8 107 -48q41 -38 41 -114z" />
    <glyph glyph-name="onesuperior" unicode="&#xb9;" 
d="M147 866v135h191v510l4 54h-4q-8 -18 -35 -45l-74 -70l-92 100l217 211h138v-760h188v-135h-533z" />
    <glyph glyph-name="ordmasculine" unicode="&#xba;" horiz-adv-x="989" 
d="M176 543v116h639v-116h-639zM694 1129q0 91 -58 149t-143 59q-85 0 -143 -58q-58 -57 -59 -149q1 -92 59 -151t143 -59t143 59t58 150zM494 786q-146 0 -248 98t-102 243t100 243q102 98 250 98t248 -96t102 -244q0 -148 -102 -245t-248 -97z" />
    <glyph glyph-name="guillemotright" unicode="&#xbb;" horiz-adv-x="1148" 
d="M109 158l335 420l-335 421h198l336 -421l-336 -420h-198zM520 158l336 420l-336 421h199l336 -421l-336 -420h-199z" />
    <glyph glyph-name="onequarter" unicode="&#xbc;" horiz-adv-x="1953" 
d="M123 553v135h190v510l4 53h-4q-8 -18 -34 -45l-74 -69l-92 100l217 211h137v-760h188v-135h-532zM688 0h-153l688 1446h151zM1335 354h258v252l6 119h-4q-27 -55 -59 -98l-201 -269v-4zM1593 0v219h-424v103l410 573h166v-541h127v-135h-127v-219h-152z" />
    <glyph glyph-name="onehalf" unicode="&#xbd;" horiz-adv-x="1931" 
d="M121 553v135h190v510l4 53h-4q-8 -18 -35 -45l-73 -69l-92 100l217 211h137v-760h188v-135h-532zM688 0h-153l688 1446h151zM1227 74q0 96 45 171t108 121q62 46 126 86q154 97 155 189q0 57 -42 95t-106 38q-92 0 -174 -98l-100 92q43 63 120 105t161 42q127 -1 211 -75
t84 -193q0 -81 -42 -147q-43 -66 -103 -108t-122 -79q-149 -90 -155 -178h436v-135h-596q-6 37 -6 74z" />
    <glyph glyph-name="threequarters" unicode="&#xbe;" horiz-adv-x="1986" 
d="M719 0h-154l688 1446h152zM389 532q-86 0 -168 35t-133 101l86 108q31 -43 88 -73q57 -29 124 -29t117 45t50 111t-53 106q-53 39 -127 39h-70l-35 78l183 211l51 49v4q-39 -6 -76 -6h-289v137h555v-98l-223 -258q102 -14 171 -81t69 -185q-1 -118 -91 -206t-229 -88z
M1366 354h258v252l6 119h-4q-27 -55 -59 -98l-201 -269v-4zM1624 0v219h-424v103l410 573h166v-541h127v-135h-127v-219h-152z" />
    <glyph glyph-name="questiondown" unicode="&#xbf;" horiz-adv-x="935" 
d="M639 1034v-203h-205v203h205zM633 637v-96q0 -158 -123 -274q-51 -48 -101 -92q-122 -107 -122 -226q0 -86 66 -145q67 -58 179 -58t220 86l110 -141q-146 -131 -340 -131t-319 104t-125 274t127 290q53 50 107 96q128 110 128 229v84h193z" />
    <glyph glyph-name="Agrave" unicode="&#xc0;" horiz-adv-x="1312" 
d="M575 1546l-194 260h213l149 -260h-168zM436 584h438l-159 456l-58 207h-4q-31 -131 -55 -207zM31 0l518 1446h215l518 -1446h-209l-145 416h-545l-145 -416h-207z" />
    <glyph glyph-name="Aacute" unicode="&#xc1;" horiz-adv-x="1312" 
d="M567 1546l148 260h215l-197 -260h-166zM436 584h438l-159 456l-58 207h-4q-31 -131 -55 -207zM31 0l518 1446h215l518 -1446h-209l-145 416h-545l-145 -416h-207z" />
    <glyph glyph-name="Acircumflex" unicode="&#xc2;" horiz-adv-x="1312" 
d="M371 1546l180 260h205l182 -260h-174l-109 164h-4l-106 -164h-174zM436 584h438l-159 456l-58 207h-4q-31 -131 -55 -207zM31 0l518 1446h215l518 -1446h-209l-145 416h-545l-145 -416h-207z" />
    <glyph glyph-name="Atilde" unicode="&#xc3;" horiz-adv-x="1312" 
d="M309 1548q0 260 209 260q58 0 104 -34t83 -70q37 -35 75 -35t57 40t19 93h143q0 -260 -208 -260q-59 0 -105 35t-82 70q-37 35 -72 34q-80 0 -79 -133h-144zM436 584h438l-159 456l-58 207h-4q-31 -131 -55 -207zM31 0l518 1446h215l518 -1446h-209l-145 416h-545
l-145 -416h-207z" />
    <glyph glyph-name="Adieresis" unicode="&#xc4;" horiz-adv-x="1312" 
d="M401 1599v207h164v-207h-164zM745 1599v207h162v-207h-162zM436 584h438l-159 456l-58 207h-4q-31 -131 -55 -207zM31 0l518 1446h215l518 -1446h-209l-145 416h-545l-145 -416h-207z" />
    <glyph glyph-name="Aring" unicode="&#xc5;" horiz-adv-x="1312" 
d="M654 1606q30 0 49 19t19 50t-18 50q-20 19 -50 19t-48 -18q-18 -20 -18 -51t18 -50t48 -19zM827 1674q0 -68 -51 -110t-122 -42t-122 42t-51 110t51 111q51 42 123 42t122 -42t50 -111zM436 584h438l-159 456l-58 207h-4q-31 -131 -55 -207zM31 0l518 1446h215l518 -1446
h-209l-145 416h-545l-145 -416h-207z" />
    <glyph glyph-name="AE" unicode="&#xc6;" horiz-adv-x="1796" 
d="M836 811v459h-97l-186 -459h283zM1675 1446v-176h-639v-453h518v-176h-518v-465h672v-176h-872v643h-351l-256 -643h-211l598 1446h1059z" />
    <glyph glyph-name="Ccedilla" unicode="&#xc7;" horiz-adv-x="1468" 
d="M846 1286q-246 0 -390 -158t-144 -396t146 -404q148 -166 392 -166q121 0 239 50t205 138l109 -145q-217 -217 -531 -228l-16 -79q66 -8 107 -48t41 -114q0 -76 -60 -118t-134 -42q-72 0 -128 12v121q35 -14 86 -14q98 0 98 63t-108 64l-37 -2l41 160q-297 28 -478 238
q-182 210 -182 520t208 522t533 210q325 0 523 -190l-102 -152q-80 72 -194 115t-224 43z" />
    <glyph glyph-name="Egrave" unicode="&#xc8;" horiz-adv-x="1155" 
d="M553 1546l-195 260h213l150 -260h-168zM190 0v1446h842v-176h-639v-453h518v-176h-518v-465h674v-176h-877z" />
    <glyph glyph-name="Eacute" unicode="&#xc9;" horiz-adv-x="1155" 
d="M190 0v1446h842v-176h-639v-453h518v-176h-518v-465h674v-176h-877zM543 1546l147 260h215l-196 -260h-166z" />
    <glyph glyph-name="Ecircumflex" unicode="&#xca;" horiz-adv-x="1155" 
d="M190 0v1446h842v-176h-639v-453h518v-176h-518v-465h674v-176h-877zM348 1546l180 260h205l182 -260h-174l-108 164h-4l-107 -164h-174z" />
    <glyph glyph-name="Edieresis" unicode="&#xcb;" horiz-adv-x="1155" 
d="M190 0v1446h842v-176h-639v-453h518v-176h-518v-465h674v-176h-877zM381 1599v207h164v-207h-164zM725 1599v207h162v-207h-162z" />
    <glyph glyph-name="Igrave" unicode="&#xcc;" horiz-adv-x="585" 
d="M215 1546l-195 260h213l150 -260h-168zM190 0v1446h203v-1446h-203z" />
    <glyph glyph-name="Iacute" unicode="&#xcd;" horiz-adv-x="585" 
d="M207 1546l147 260h215l-196 -260h-166zM190 0v1446h203v-1446h-203z" />
    <glyph glyph-name="Icircumflex" unicode="&#xce;" horiz-adv-x="585" 
d="M12 1546l181 260h204l183 -260h-174l-109 164h-4l-107 -164h-174zM190 0v1446h203v-1446h-203z" />
    <glyph glyph-name="Idieresis" unicode="&#xcf;" horiz-adv-x="585" 
d="M43 1599v207h164v-207h-164zM387 1599v207h162v-207h-162zM190 0v1446h203v-1446h-203z" />
    <glyph glyph-name="Eth" unicode="&#xd0;" horiz-adv-x="1521" 
d="M403 176h267q248 0 392 142t144 404t-145 405q-145 142 -391 143h-267v-463h308v-168h-308v-463zM203 0v639h-119v168h119v639h481q334 0 533 -192t199 -530q0 -340 -200 -532q-198 -192 -532 -192h-481z" />
    <glyph glyph-name="Ntilde" unicode="&#xd1;" horiz-adv-x="1540" 
d="M424 1548q0 260 209 260q59 0 104 -34t82 -70q37 -35 75 -35t57 40t20 93h143q0 -260 -209 -260q-59 0 -104 35t-82 70t-72 34q-80 0 -80 -133h-143zM190 0v1446h201l645 -938l119 -211h4q-12 129 -12 211v938h201v-1446h-199l-645 938l-119 211h-4q12 -129 12 -211v-938
h-203z" />
    <glyph glyph-name="Ograve" unicode="&#xd2;" horiz-adv-x="1685" 
d="M762 1546l-195 260h213l150 -260h-168zM843 1286q-230 0 -382 -158t-152 -399q0 -239 152 -403t382 -164t382 164q151 164 151 404t-152 398t-381 158zM1585 728q0 -318 -211 -534q-211 -218 -530 -218q-320 0 -532 217t-212 535t211 530t531 212t532 -212
q211 -212 211 -530z" />
    <glyph glyph-name="Oacute" unicode="&#xd3;" horiz-adv-x="1685" 
d="M843 1286q-230 0 -382 -158t-152 -399q0 -239 152 -403t382 -164t382 164q151 164 151 404t-152 398t-381 158zM1585 728q0 -318 -211 -534q-211 -218 -530 -218q-320 0 -532 217t-212 535t211 530t531 212t532 -212q211 -212 211 -530zM754 1546l147 260h215l-196 -260
h-166z" />
    <glyph glyph-name="Ocircumflex" unicode="&#xd4;" horiz-adv-x="1685" 
d="M843 1286q-230 0 -382 -158t-152 -399q0 -239 152 -403t382 -164t382 164q151 164 151 404t-152 398t-381 158zM1585 728q0 -318 -211 -534q-211 -218 -530 -218q-320 0 -532 217t-212 535t211 530t531 212t532 -212q211 -212 211 -530zM559 1546l180 260h205l182 -260
h-174l-108 164h-4l-107 -164h-174z" />
    <glyph glyph-name="Otilde" unicode="&#xd5;" horiz-adv-x="1685" 
d="M498 1548q0 260 209 260q59 0 104 -34t82 -70q37 -35 75 -35t57 40t19 93h144q0 -260 -209 -260q-59 0 -105 35t-82 70t-71 34q-80 0 -80 -133h-143zM843 1286q-230 0 -382 -158t-152 -399q0 -239 152 -403t382 -164t382 164q151 164 151 404t-152 398t-381 158z
M1585 728q0 -318 -211 -534q-211 -218 -530 -218q-320 0 -532 217t-212 535t211 530t531 212t532 -212q211 -212 211 -530z" />
    <glyph glyph-name="Odieresis" unicode="&#xd6;" horiz-adv-x="1685" 
d="M843 1286q-230 0 -382 -158t-152 -399q0 -239 152 -403t382 -164t382 164q151 164 151 404t-152 398t-381 158zM1585 728q0 -318 -211 -534q-211 -218 -530 -218q-320 0 -532 217t-212 535t211 530t531 212t532 -212q211 -212 211 -530zM590 1599v207h164v-207h-164z
M934 1599v207h162v-207h-162z" />
    <glyph glyph-name="multiply" unicode="&#xd7;" horiz-adv-x="1181" 
d="M57 113l424 471l-424 471l115 112l418 -465l418 465l114 -112l-424 -471l424 -471l-114 -113l-418 465l-418 -465z" />
    <glyph glyph-name="Oslash" unicode="&#xd8;" horiz-adv-x="1683" 
d="M842 162q223 0 379 164q155 164 155 408t-170 403l-643 -893q127 -82 279 -82zM844 1286q-223 0 -379 -160t-156 -398t162 -404l637 886q-123 76 -264 76zM100 731q0 313 215 526t529 213q205 0 379 -100l94 129l100 -69l-92 -130q123 -104 192 -250t68 -319
q0 -317 -214 -536t-527 -220q-217 0 -393 111l-97 -137l-102 69l100 140q-117 104 -184 254q-68 150 -68 319z" />
    <glyph glyph-name="Ugrave" unicode="&#xd9;" horiz-adv-x="1486" 
d="M662 1546l-195 260h213l149 -260h-167zM174 512v934h203v-932q0 -166 99 -259t267 -93t267 93q98 93 98 261v930h203v-934q0 -242 -156 -389t-411 -147q-254 0 -412 146q-158 148 -158 390z" />
    <glyph glyph-name="Uacute" unicode="&#xda;" horiz-adv-x="1486" 
d="M174 512v934h203v-932q0 -166 99 -259t267 -93t267 93q98 93 98 261v930h203v-934q0 -242 -156 -389t-411 -147q-254 0 -412 146q-158 148 -158 390zM653 1546l148 260h215l-197 -260h-166z" />
    <glyph glyph-name="Ucircumflex" unicode="&#xdb;" horiz-adv-x="1486" 
d="M174 512v934h203v-932q0 -166 99 -259t267 -93t267 93q98 93 98 261v930h203v-934q0 -242 -156 -389t-411 -147q-254 0 -412 146q-158 148 -158 390zM459 1546l180 260h205l182 -260h-174l-109 164h-4l-106 -164h-174z" />
    <glyph glyph-name="Udieresis" unicode="&#xdc;" horiz-adv-x="1486" 
d="M174 512v934h203v-932q0 -166 99 -259t267 -93t267 93q98 93 98 261v930h203v-934q0 -242 -156 -389t-411 -147q-254 0 -412 146q-158 148 -158 390zM489 1599v207h164v-207h-164zM834 1599v207h161v-207h-161z" />
    <glyph glyph-name="Yacute" unicode="&#xdd;" horiz-adv-x="1212" 
d="M516 1546l148 260h215l-197 -260h-166zM506 0v612l-486 834h230l266 -475l88 -183h4q43 98 88 183l267 475h229l-485 -834v-612h-201z" />
    <glyph glyph-name="Thorn" unicode="&#xde;" horiz-adv-x="1245" 
d="M393 465h295q129 0 205 76t76 206q0 129 -75 203t-204 74h-297v-559zM190 0v1446h203v-246h328q201 0 327 -124t126 -328t-127 -332q-127 -127 -328 -127h-326v-289h-203z" />
    <glyph glyph-name="germandbls" unicode="&#xdf;" horiz-adv-x="1204" 
d="M154 0v1085q0 177 132 281t305 104t283 -95t111 -234q0 -68 -32 -126q-33 -58 -71 -93q-102 -93 -102 -156q0 -62 129 -152q53 -37 108 -78q54 -42 92 -104t38 -135q0 -151 -101 -231t-264 -80t-276 59v176q123 -63 266 -63q74 0 123 37t49 101t-57 118t-126 95
q-69 39 -126 105t-57 132q0 110 104 208t102 185q0 63 -52 111t-146 48t-164 -59t-70 -168v-1071h-198z" />
    <glyph glyph-name="agrave" unicode="&#xe0;" horiz-adv-x="1079" 
d="M457 1188l-195 260h213l150 -260h-168zM266 299q0 -68 51 -117t144 -49q123 1 201 103t77 227v39h-51q-422 0 -422 -203zM68 271q0 127 63 205q100 122 365 157q90 12 190 12h53v21q0 227 -227 227q-150 0 -291 -100l-80 145q63 53 172 88t215 35q197 -1 303 -105
t107 -301v-655h-186v104l6 82h-4q-46 -92 -138 -151t-218 -59t-228 83q-102 85 -102 212z" />
    <glyph glyph-name="aacute" unicode="&#xe1;" horiz-adv-x="1079" 
d="M442 1188l148 260h215l-197 -260h-166zM266 299q0 -68 51 -117t144 -49q123 1 201 103t77 227v39h-51q-422 0 -422 -203zM68 271q0 127 63 205q100 122 365 157q90 12 190 12h53v21q0 227 -227 227q-150 0 -291 -100l-80 145q63 53 172 88t215 35q197 -1 303 -105
t107 -301v-655h-186v104l6 82h-4q-46 -92 -138 -151t-218 -59t-228 83q-102 85 -102 212z" />
    <glyph glyph-name="acircumflex" unicode="&#xe2;" horiz-adv-x="1079" 
d="M248 1188l180 260h205l182 -260h-174l-109 164h-4l-106 -164h-174zM266 299q0 -68 51 -117t144 -49q123 1 201 103t77 227v39h-51q-422 0 -422 -203zM68 271q0 127 63 205q100 122 365 157q90 12 190 12h53v21q0 227 -227 227q-150 0 -291 -100l-80 145q63 53 172 88
t215 35q197 -1 303 -105t107 -301v-655h-186v104l6 82h-4q-46 -92 -138 -151t-218 -59t-228 83q-102 85 -102 212z" />
    <glyph glyph-name="atilde" unicode="&#xe3;" horiz-adv-x="1079" 
d="M188 1190q0 260 209 260q59 0 105 -35t82 -69t74 -35q38 0 58 40q19 40 19 93h144q0 -260 -209 -260q-58 0 -104 35t-83 69t-71 35q-80 0 -80 -133h-144zM266 299q0 -68 51 -117t144 -49q123 1 201 103t77 227v39h-51q-422 0 -422 -203zM68 271q0 127 63 205
q100 122 365 157q90 12 190 12h53v21q0 227 -227 227q-150 0 -291 -100l-80 145q63 53 172 88t215 35q197 -1 303 -105t107 -301v-655h-186v104l6 82h-4q-46 -92 -138 -151t-218 -59t-228 83q-102 85 -102 212z" />
    <glyph glyph-name="adieresis" unicode="&#xe4;" horiz-adv-x="1079" 
d="M281 1241v207h163v-207h-163zM625 1241v207h161v-207h-161zM266 299q0 -68 51 -117t144 -49q123 1 201 103t77 227v39h-51q-422 0 -422 -203zM68 271q0 127 63 205q100 122 365 157q90 12 190 12h53v21q0 227 -227 227q-150 0 -291 -100l-80 145q63 53 172 88t215 35
q197 -1 303 -105t107 -301v-655h-186v104l6 82h-4q-46 -92 -138 -151t-218 -59t-228 83q-102 85 -102 212z" />
    <glyph glyph-name="aring" unicode="&#xe5;" horiz-adv-x="1079" 
d="M465 1317q0 -31 18 -51t48 -19q29 -1 49 19t20 51t-19 50t-49 19t-49 -19q-18 -19 -18 -50zM531 1163q-71 0 -121 42t-52 111q0 68 52 110t122 42q72 0 122 -42t50 -110t-50 -111q-52 -42 -123 -42zM266 299q0 -68 51 -117t144 -49q123 1 201 103t77 227v39h-51
q-422 0 -422 -203zM68 271q0 127 63 205q100 122 365 157q90 12 190 12h53v21q0 227 -227 227q-150 0 -291 -100l-80 145q63 53 172 88t215 35q197 -1 303 -105t107 -301v-655h-186v104l6 82h-4q-46 -92 -138 -151t-218 -59t-228 83q-102 85 -102 212z" />
    <glyph glyph-name="ae" unicode="&#xe6;" horiz-adv-x="1767" 
d="M270 301q0 -70 52 -118t158 -48q108 -1 185 103t76 229v29h-98q-373 0 -373 -195zM938 641h541q-4 123 -75 192q-72 69 -180 69t-187 -68t-99 -193zM688 641h51v25q0 227 -233 227q-147 0 -287 -100l-80 145q66 55 171 89t208 34q262 0 346 -182h4q123 182 367 182
q207 0 326 -137t118 -344q0 -27 -4 -84h-745q8 -166 104 -257t255 -91t294 118l82 -143q-73 -66 -183 -107t-241 -41t-246 68t-176 190h-4q-19 -56 -101 -145q-44 -47 -121 -79t-169 -32q-150 1 -252 85t-102 238t115 231t245 94q129 16 258 16z" />
    <glyph glyph-name="ccedilla" unicode="&#xe7;" horiz-adv-x="1118" 
d="M86 527q0 222 157 378t401 156t386 -152l-94 -139q-119 119 -281 119q-162 1 -264 -105t-102 -265t103 -265t263 -107q86 0 173 38t147 102l80 -146q-145 -156 -389 -166l-17 -77q66 -8 107 -48t41 -114q-1 -76 -61 -118t-132 -42t-129 12v121q37 -14 86 -14q98 0 98 63
t-108 64l-37 -2l41 162q-211 29 -340 176t-129 369z" />
    <glyph glyph-name="egrave" unicode="&#xe8;" horiz-adv-x="1140" 
d="M526 1188l-194 260h213l149 -260h-168zM299 635h555q-4 129 -75 201t-183 72t-194 -74q-83 -72 -103 -199zM637 -25q-243 0 -397 155q-154 156 -154 394t147 388t365 149q218 0 338 -138q119 -138 119 -348q0 -27 -8 -83h-754q8 -162 109 -253t259 -91t293 120l84 -145
q-74 -68 -184 -108t-217 -40z" />
    <glyph glyph-name="eacute" unicode="&#xe9;" horiz-adv-x="1140" 
d="M299 635h555q-4 129 -75 201t-183 72t-194 -74q-83 -72 -103 -199zM637 -25q-243 0 -397 155q-154 156 -154 394t147 388t365 149q218 0 338 -138q119 -138 119 -348q0 -27 -8 -83h-754q8 -162 109 -253t259 -91t293 120l84 -145q-74 -68 -184 -108t-217 -40zM514 1188
l148 260h215l-197 -260h-166z" />
    <glyph glyph-name="ecircumflex" unicode="&#xea;" horiz-adv-x="1140" 
d="M299 635h555q-4 129 -75 201t-183 72t-194 -74q-83 -72 -103 -199zM637 -25q-243 0 -397 155q-154 156 -154 394t147 388t365 149q218 0 338 -138q119 -138 119 -348q0 -27 -8 -83h-754q8 -162 109 -253t259 -91t293 120l84 -145q-74 -68 -184 -108t-217 -40zM319 1188
l181 260h205l182 -260h-174l-109 164h-4l-106 -164h-175z" />
    <glyph glyph-name="edieresis" unicode="&#xeb;" horiz-adv-x="1140" 
d="M299 635h555q-4 129 -75 201t-183 72t-194 -74q-83 -72 -103 -199zM637 -25q-243 0 -397 155q-154 156 -154 394t147 388t365 149q218 0 338 -138q119 -138 119 -348q0 -27 -8 -83h-754q8 -162 109 -253t259 -91t293 120l84 -145q-74 -68 -184 -108t-217 -40zM352 1241
v207h164v-207h-164zM696 1241v207h162v-207h-162z" />
    <glyph glyph-name="igrave" unicode="&#xec;" horiz-adv-x="503" 
d="M176 1188l-194 260h213l149 -260h-168zM154 0v1036h198v-1036h-198z" />
    <glyph glyph-name="iacute" unicode="&#xed;" horiz-adv-x="503" 
d="M154 0v1036h198v-1036h-198zM166 1188l147 260h215l-196 -260h-166z" />
    <glyph glyph-name="icircumflex" unicode="&#xee;" horiz-adv-x="503" 
d="M154 0v1036h198v-1036h-198zM-29 1188l181 260h204l183 -260h-174l-109 164h-4l-107 -164h-174z" />
    <glyph glyph-name="idieresis" unicode="&#xef;" horiz-adv-x="503" 
d="M154 0v1036h198v-1036h-198zM4 1241v207h164v-207h-164zM348 1241v207h162v-207h-162z" />
    <glyph glyph-name="eth" unicode="&#xf0;" horiz-adv-x="1189" 
d="M594 795q-140 1 -220 -93t-81 -227q0 -133 76 -231q75 -98 221 -98t224 115q78 116 79 250q0 134 -79 209q-80 75 -220 75zM90 475q0 199 130 339t355 140q75 0 137 -22t89 -43l26 -21h4q-61 164 -223 273l-370 -164l-21 127l254 113q-115 59 -264 94l55 162
q248 -59 424 -164l285 125l18 -125l-188 -86q295 -246 295 -660q0 -221 -119 -396q-59 -87 -163 -139t-239 -53q-221 1 -353 151t-132 349z" />
    <glyph glyph-name="ntilde" unicode="&#xf1;" horiz-adv-x="1234" 
d="M293 1190q0 260 209 260q59 0 104 -35t82 -69t75 -35q38 0 57 40t20 93h143q0 -260 -209 -260q-59 0 -104 35t-82 69t-72 35q-80 0 -80 -133h-143zM154 0v1036h192v-141l-6 -78h4q39 88 140 166t253 78q354 0 355 -397v-664h-199v618q0 125 -40 193t-155 68
q-150 0 -248 -110t-98 -271v-498h-198z" />
    <glyph glyph-name="ograve" unicode="&#xf2;" horiz-adv-x="1288" 
d="M563 1188l-194 260h213l149 -260h-168zM289 519q0 -161 103 -266q104 -105 252 -105t252 106t105 266q0 160 -104 264t-253 104t-252 -104t-103 -265zM86 519q0 232 162 387t396 155t396 -154t162 -387t-162 -389t-395 -156t-396 156t-163 388z" />
    <glyph glyph-name="oacute" unicode="&#xf3;" horiz-adv-x="1288" 
d="M289 519q0 -161 103 -266q104 -105 252 -105t252 106t105 266q0 160 -104 264t-253 104t-252 -104t-103 -265zM86 519q0 232 162 387t396 155t396 -154t162 -387t-162 -389t-395 -156t-396 156t-163 388zM555 1188l147 260h216l-197 -260h-166z" />
    <glyph glyph-name="ocircumflex" unicode="&#xf4;" horiz-adv-x="1288" 
d="M289 519q0 -161 103 -266q104 -105 252 -105t252 106t105 266q0 160 -104 264t-253 104t-252 -104t-103 -265zM86 519q0 232 162 387t396 155t396 -154t162 -387t-162 -389t-395 -156t-396 156t-163 388zM360 1188l181 260h204l183 -260h-174l-109 164h-4l-106 -164h-175
z" />
    <glyph glyph-name="otilde" unicode="&#xf5;" horiz-adv-x="1288" 
d="M299 1190q0 260 209 260q59 0 104 -35t82 -69t75 -35q38 0 57 40t20 93h143q0 -260 -209 -260q-59 0 -104 35t-82 69t-72 35q-80 0 -80 -133h-143zM289 519q0 -161 103 -266q104 -105 252 -105t252 106t105 266q0 160 -104 264t-253 104t-252 -104t-103 -265zM86 519
q0 232 162 387t396 155t396 -154t162 -387t-162 -389t-395 -156t-396 156t-163 388z" />
    <glyph glyph-name="odieresis" unicode="&#xf6;" horiz-adv-x="1288" 
d="M289 519q0 -161 103 -266q104 -105 252 -105t252 106t105 266q0 160 -104 264t-253 104t-252 -104t-103 -265zM86 519q0 232 162 387t396 155t396 -154t162 -387t-162 -389t-395 -156t-396 156t-163 388zM391 1241v207h164v-207h-164zM735 1241v207h162v-207h-162z" />
    <glyph glyph-name="divide" unicode="&#xf7;" horiz-adv-x="1181" 
d="M494 90v186h192v-186h-192zM74 504v160h1034v-160h-1034zM494 891v186h192v-186h-192z" />
    <glyph glyph-name="oslash" unicode="&#xf8;" horiz-adv-x="1290" 
d="M645 147q150 -1 253 105t103 260t-94 254l-418 -582q78 -37 156 -37zM645 889q-147 -1 -251 -105t-105 -262q0 -158 104 -266l422 588q-78 45 -170 45zM86 506q0 246 162 401q162 154 397 154q147 0 277 -68l82 113l96 -70l-80 -110q184 -158 184 -398t-163 -397
q-163 -156 -396 -156q-145 0 -262 62l-80 -115l-98 70l78 108q-197 160 -197 406z" />
    <glyph glyph-name="ugrave" unicode="&#xf9;" horiz-adv-x="1222" 
d="M526 1188l-194 260h213l149 -260h-168zM141 373v663h199v-618q0 -123 41 -191t154 -67q153 0 245 114t92 277v485h197v-1036h-192v143l8 76h-4q-41 -92 -143 -168t-242 -76q-355 1 -355 398z" />
    <glyph glyph-name="uacute" unicode="&#xfa;" horiz-adv-x="1222" 
d="M141 373v663h199v-618q0 -123 41 -191t154 -67q153 0 245 114t92 277v485h197v-1036h-192v143l8 76h-4q-41 -92 -143 -168t-242 -76q-355 1 -355 398zM516 1188l148 260h215l-197 -260h-166z" />
    <glyph glyph-name="ucircumflex" unicode="&#xfb;" horiz-adv-x="1222" 
d="M141 373v663h199v-618q0 -123 41 -191t154 -67q153 0 245 114t92 277v485h197v-1036h-192v143l8 76h-4q-41 -92 -143 -168t-242 -76q-355 1 -355 398zM319 1188l181 260h205l182 -260h-174l-109 164h-4l-106 -164h-175z" />
    <glyph glyph-name="udieresis" unicode="&#xfc;" horiz-adv-x="1222" 
d="M141 373v663h199v-618q0 -123 41 -191t154 -67q153 0 245 114t92 277v485h197v-1036h-192v143l8 76h-4q-41 -92 -143 -168t-242 -76q-355 1 -355 398zM352 1241v207h164v-207h-164zM696 1241v207h162v-207h-162z" />
    <glyph glyph-name="yacute" unicode="&#xfd;" horiz-adv-x="1095" 
d="M461 1188l147 260h215l-196 -260h-166zM221 -260q125 0 189 154l51 118l-434 1024h223l260 -678l39 -125h4q16 70 35 123l252 680h215l-488 -1222q-45 -120 -134 -182t-202 -62q-51 0 -100 16t-74 33l-24 14l69 152q57 -45 119 -45z" />
    <glyph glyph-name="thorn" unicode="&#xfe;" horiz-adv-x="1228" 
d="M346 528q0 -176 81 -279t212 -103t215 102q84 104 84 269t-81 268t-210 103t-215 -92t-86 -268zM154 -410v1856h198v-473l-4 -84h4q43 78 128 125t200 47q209 0 334 -152q125 -151 125 -391t-130 -392t-335 -151q-98 0 -188 44t-134 126h-4q4 -37 4 -90v-465h-198z" />
    <glyph glyph-name="ydieresis" unicode="&#xff;" horiz-adv-x="1095" 
d="M297 1241v207h164v-207h-164zM641 1241v207h162v-207h-162zM221 -260q125 0 189 154l51 118l-434 1024h223l260 -678l39 -125h4q16 70 35 123l252 680h215l-488 -1222q-45 -120 -134 -182t-202 -62q-51 0 -100 16t-74 33l-24 14l69 152q57 -45 119 -45z" />
    <glyph glyph-name="Amacron" unicode="&#x100;" horiz-adv-x="1312" 
d="M395 1606v145h520v-145h-520zM436 584h438l-159 456l-58 207h-4q-31 -131 -55 -207zM31 0l518 1446h215l518 -1446h-209l-145 416h-545l-145 -416h-207z" />
    <glyph glyph-name="amacron" unicode="&#x101;" horiz-adv-x="1079" 
d="M274 1247v146h521v-146h-521zM266 299q0 -68 51 -117t144 -49q123 1 201 103t77 227v39h-51q-422 0 -422 -203zM68 271q0 127 63 205q100 122 365 157q90 12 190 12h53v21q0 227 -227 227q-150 0 -291 -100l-80 145q63 53 172 88t215 35q197 -1 303 -105t107 -301v-655
h-186v104l6 82h-4q-46 -92 -138 -151t-218 -59t-228 83q-102 85 -102 212z" />
    <glyph glyph-name="Abreve" unicode="&#x102;" horiz-adv-x="1312" 
d="M924 1778q0 -112 -79 -176t-191 -64t-190 64t-79 176v28h147v-26q0 -61 36 -92t86 -31t86 32t36 93v24h148v-28zM436 584h438l-159 456l-58 207h-4q-31 -131 -55 -207zM31 0l518 1446h215l518 -1446h-209l-145 416h-545l-145 -416h-207z" />
    <glyph glyph-name="abreve" unicode="&#x103;" horiz-adv-x="1079" 
d="M531 1180q-113 0 -191 63t-78 176v29h148v-27q0 -61 36 -92t85 -31q50 0 86 32t36 93v25h148v-29q0 -113 -79 -176t-191 -63zM266 299q0 -68 51 -117t144 -49q123 1 201 103t77 227v39h-51q-422 0 -422 -203zM68 271q0 127 63 205q100 122 365 157q90 12 190 12h53v21
q0 227 -227 227q-150 0 -291 -100l-80 145q63 53 172 88t215 35q197 -1 303 -105t107 -301v-655h-186v104l6 82h-4q-46 -92 -138 -151t-218 -59t-228 83q-102 85 -102 212z" />
    <glyph glyph-name="Aogonek" unicode="&#x104;" horiz-adv-x="1312" 
d="M436 584h438l-159 456l-58 207h-4q-31 -131 -55 -207zM1151 -182q0 -35 29 -57t57 -27l27 -4l-47 -154q-20 0 -72 15q-51 15 -83 35t-58 58t-25 87q0 123 135 229h-41l-145 416h-545l-145 -416h-207l518 1446h215l518 -1446q-131 -104 -131 -182z" />
    <glyph glyph-name="aogonek" unicode="&#x105;" horiz-adv-x="1079" 
d="M266 299q0 -68 51 -117t144 -49q123 1 201 103t77 227v39h-51q-422 0 -422 -203zM68 271q0 127 63 205q100 122 365 157q90 12 190 12h53v21q0 227 -227 227q-150 0 -291 -100l-80 145q63 53 172 88t215 35q197 -1 303 -105t107 -301v-655q-133 -102 -133 -182
q0 -35 28 -57t56 -27l29 -4l-46 -154q-21 0 -73 15q-51 15 -83 35t-58 58t-25 87q0 117 141 229h-22v104l6 82h-4q-46 -92 -138 -151t-218 -59t-228 83q-102 85 -102 212z" />
    <glyph glyph-name="Cacute" unicode="&#x106;" horiz-adv-x="1468" 
d="M102 728q0 320 208 532t533 210q325 0 523 -190l-102 -152q-80 72 -194 115t-224 43q-246 0 -390 -158t-144 -396t146 -404q148 -166 392 -166q121 0 239 50t205 138l109 -145q-229 -229 -559 -229t-536 215q-206 217 -206 537zM733 1546l148 260h215l-197 -260h-166z
" />
    <glyph glyph-name="cacute" unicode="&#x107;" horiz-adv-x="1116" 
d="M641 -25q-243 -1 -399 153t-156 388t157 389q157 156 401 156t386 -152l-94 -139q-119 119 -281 119q-162 1 -264 -105t-102 -265t103 -265t263 -107q86 0 173 38t147 102l80 -146q-72 -76 -183 -121t-231 -45zM510 1188l147 260h215l-196 -260h-166z" />
    <glyph glyph-name="Ccircumflex" unicode="&#x108;" horiz-adv-x="1468" 
d="M102 728q0 320 208 532t533 210q325 0 523 -190l-102 -152q-80 72 -194 115t-224 43q-246 0 -390 -158t-144 -396t146 -404q148 -166 392 -166q121 0 239 50t205 138l109 -145q-229 -229 -559 -229t-536 215q-206 217 -206 537zM539 1546l180 260h205l182 -260h-174
l-109 164h-4l-106 -164h-174z" />
    <glyph glyph-name="ccircumflex" unicode="&#x109;" horiz-adv-x="1116" 
d="M641 -25q-243 -1 -399 153t-156 388t157 389q157 156 401 156t386 -152l-94 -139q-119 119 -281 119q-162 1 -264 -105t-102 -265t103 -265t263 -107q86 0 173 38t147 102l80 -146q-72 -76 -183 -121t-231 -45zM315 1188l181 260h204l183 -260h-174l-109 164h-4
l-107 -164h-174z" />
    <glyph glyph-name="Cdotaccent" unicode="&#x10a;" horiz-adv-x="1468" 
d="M735 1606v200h176v-200h-176zM102 728q0 320 208 532t533 210q325 0 523 -190l-102 -152q-80 72 -194 115t-224 43q-246 0 -390 -158t-144 -396t146 -404q148 -166 392 -166q121 0 239 50t205 138l109 -145q-229 -229 -559 -229t-536 215q-206 217 -206 537z" />
    <glyph glyph-name="cdotaccent" unicode="&#x10b;" horiz-adv-x="1116" 
d="M514 1247v201h176v-201h-176zM641 -25q-243 -1 -399 153t-156 388t157 389q157 156 401 156t386 -152l-94 -139q-119 119 -281 119q-162 1 -264 -105t-102 -265t103 -265t263 -107q86 0 173 38t147 102l80 -146q-72 -76 -183 -121t-231 -45z" />
    <glyph glyph-name="Ccaron" unicode="&#x10c;" horiz-adv-x="1468" 
d="M102 728q0 320 208 532t533 210q325 0 523 -190l-102 -152q-80 72 -194 115t-224 43q-246 0 -390 -158t-144 -396t146 -404q148 -166 392 -166q121 0 239 50t205 138l109 -145q-229 -229 -559 -229t-536 215q-206 217 -206 537zM719 1546l-180 260h174l106 -166h4
l109 166h174l-182 -260h-205z" />
    <glyph glyph-name="ccaron" unicode="&#x10d;" horiz-adv-x="1116" 
d="M641 -25q-243 -1 -399 153t-156 388t157 389q157 156 401 156t386 -152l-94 -139q-119 119 -281 119q-162 1 -264 -105t-102 -265t103 -265t263 -107q86 0 173 38t147 102l80 -146q-72 -76 -183 -121t-231 -45zM496 1188l-181 260h174l107 -166h4l109 166h174l-183 -260
h-204z" />
    <glyph glyph-name="Dcaron" unicode="&#x10e;" horiz-adv-x="1509" 
d="M393 176h264q248 0 393 142q144 142 144 404t-145 405q-145 142 -392 143h-264v-1094zM190 0v1446h482q334 0 532 -192t199 -530q0 -340 -199 -532t-532 -192h-482zM596 1546l-180 260h174l106 -166h4l109 166h174l-182 -260h-205z" />
    <glyph glyph-name="dcaron" unicode="&#x10f;" horiz-adv-x="1249" 
d="M885 504q0 168 -77 276t-211 107q-134 1 -219 -99t-85 -269t81 -270t210 -101t215 94t86 262zM90 519q0 245 131 393t338 149q100 0 186 -44t136 -126h4q-4 31 -4 70v485h196v-1446h-188v104l6 70h-4q-47 -88 -136 -143t-208 -56q-207 -1 -332 149t-125 395zM1382 1322
q0 -67 -51 -175h-151q39 111 39 173t-25 124h174q14 -55 14 -122z" />
    <glyph glyph-name="Dcroat" unicode="&#x110;" horiz-adv-x="1521" 
d="M403 176h267q248 0 392 142t144 404t-145 405q-145 142 -391 143h-267v-463h308v-168h-308v-463zM203 0v639h-119v168h119v639h481q334 0 533 -192t199 -530q0 -340 -200 -532q-198 -192 -532 -192h-481z" />
    <glyph glyph-name="dcroat" unicode="&#x111;" horiz-adv-x="1230" 
d="M885 504q0 168 -77 276t-211 109q-134 -1 -219 -101t-85 -269t81 -270t210 -101t215 94t86 262zM90 519q0 245 131 393t338 149q98 0 185 -42t135 -122h4q-2 31 -2 70v186h-269v129h269v164h196v-164h156v-129h-156v-1153h-188v98l2 70h-4q-47 -88 -135 -140t-205 -53
q-207 -1 -332 149t-125 395z" />
    <glyph glyph-name="Emacron" unicode="&#x112;" horiz-adv-x="1155" 
d="M375 1606v145h520v-145h-520zM190 0v1446h842v-176h-639v-453h518v-176h-518v-465h674v-176h-877z" />
    <glyph glyph-name="emacron" unicode="&#x113;" horiz-adv-x="1140" 
d="M346 1247v146h520v-146h-520zM299 635h555q-4 129 -75 201t-183 72t-194 -74q-83 -72 -103 -199zM637 -25q-243 0 -397 155q-154 156 -154 394t147 388t365 149q218 0 338 -138q119 -138 119 -348q0 -27 -8 -83h-754q8 -162 109 -253t259 -91t293 120l84 -145
q-74 -68 -184 -108t-217 -40z" />
    <glyph glyph-name="Ebreve" unicode="&#x114;" horiz-adv-x="1155" 
d="M901 1778q-1 -112 -79 -176t-190 -64t-191 64t-79 176v28h148v-26q0 -61 36 -92t86 -31t86 32t36 93v24h147v-28zM190 0v1446h842v-176h-639v-453h518v-176h-518v-465h674v-176h-877z" />
    <glyph glyph-name="ebreve" unicode="&#x115;" horiz-adv-x="1140" 
d="M872 1419q0 -113 -78 -176t-191 -63t-191 63t-78 176v29h147v-27q0 -61 36 -92t86 -31t86 32t36 93v25h147v-29zM299 635h555q-4 129 -75 201t-183 72t-194 -74q-83 -72 -103 -199zM637 -25q-243 0 -397 155q-154 156 -154 394t147 388t365 149q218 0 338 -138
q119 -138 119 -348q0 -27 -8 -83h-754q8 -162 109 -253t259 -91t293 120l84 -145q-74 -68 -184 -108t-217 -40z" />
    <glyph glyph-name="Edotaccent" unicode="&#x116;" horiz-adv-x="1155" 
d="M545 1606v200h176v-200h-176zM190 0v1446h842v-176h-639v-453h518v-176h-518v-465h674v-176h-877z" />
    <glyph glyph-name="edotaccent" unicode="&#x117;" horiz-adv-x="1140" 
d="M516 1247v201h176v-201h-176zM299 635h555q-4 129 -75 201t-183 72t-194 -74q-83 -72 -103 -199zM637 -25q-243 0 -397 155q-154 156 -154 394t147 388t365 149q218 0 338 -138q119 -138 119 -348q0 -27 -8 -83h-754q8 -162 109 -253t259 -91t293 120l84 -145
q-74 -68 -184 -108t-217 -40z" />
    <glyph glyph-name="Eogonek" unicode="&#x118;" horiz-adv-x="1155" 
d="M190 0v1446h842v-176h-639v-453h518v-176h-518v-465h674v-176q-133 -102 -133 -182q0 -35 29 -57t57 -27l29 -4l-48 -154q-20 0 -71 15t-83 35q-31 20 -57 58t-26 87q0 121 145 229h-719z" />
    <glyph glyph-name="eogonek" unicode="&#x119;" horiz-adv-x="1140" 
d="M299 635h555q-4 129 -75 201t-183 72t-194 -74q-83 -74 -103 -199zM86 524q0 238 147 388t365 149q218 0 338 -138q119 -138 119 -348l-8 -83h-754q8 -162 109 -253t258 -91t294 120l82 -145q-20 -19 -99 -77t-127 -114t-48 -102q0 -47 29 -69t57 -27l26 -4l-45 -154
q-21 0 -73 15t-84 35t-57 58q-26 38 -25 87q0 109 125 213q-45 -8 -78 -9q-243 0 -397 155q-154 156 -154 394z" />
    <glyph glyph-name="Ecaron" unicode="&#x11a;" horiz-adv-x="1155" 
d="M190 0v1446h842v-176h-639v-453h518v-176h-518v-465h674v-176h-877zM528 1546l-180 260h174l107 -166h4l108 166h174l-182 -260h-205z" />
    <glyph glyph-name="ecaron" unicode="&#x11b;" horiz-adv-x="1140" 
d="M299 635h555q-4 129 -75 201t-183 72t-194 -74q-83 -72 -103 -199zM637 -25q-243 0 -397 155q-154 156 -154 394t147 388t365 149q218 0 338 -138q119 -138 119 -348q0 -27 -8 -83h-754q8 -162 109 -253t259 -91t293 120l84 -145q-74 -68 -184 -108t-217 -40zM500 1188
l-181 260h175l106 -166h4l109 166h174l-182 -260h-205z" />
    <glyph glyph-name="Gcircumflex" unicode="&#x11c;" horiz-adv-x="1560" 
d="M102 720q0 320 211 535t527 215t526 -176l-102 -149q-74 61 -188 101t-222 40q-246 0 -394 -160t-148 -402t151 -402t383 -160t405 180v209h-233v176h420v-727h-178v90l2 62h-5q-77 -80 -195 -128t-249 -49q-297 0 -504 212q-207 213 -207 533zM532 1546l181 260h205
l182 -260h-174l-109 164h-4l-106 -164h-175z" />
    <glyph glyph-name="gcircumflex" unicode="&#x11d;" horiz-adv-x="1216" 
d="M575 889q-133 0 -207 -91t-75 -253q0 -162 81 -261q81 -100 211 -100t207 84t76 273q0 348 -293 348zM536 -258q146 0 237 71t91 218v84l6 65h-4q-100 -168 -311 -168t-337 150t-126 379t121 374t332 146q104 0 192 -39t135 -119h7q-6 12 -7 31v102h191v-993
q0 -123 -44 -217q-79 -169 -286 -229q-90 -27 -192 -27q-182 0 -355 86l66 156q138 -70 284 -70zM307 1188l180 260h205l182 -260h-174l-108 164h-4l-107 -164h-174z" />
    <glyph glyph-name="Gbreve" unicode="&#x11e;" horiz-adv-x="1560" 
d="M1087 1778q-1 -112 -79 -176t-190 -64t-190 64t-79 176v28h147v-26q0 -61 36 -92t86 -31t86 32t36 93v24h147v-28zM102 720q0 320 211 535t527 215t526 -176l-102 -149q-74 61 -188 101t-222 40q-246 0 -394 -160t-148 -402t151 -402t383 -160t405 180v209h-233v176h420
v-727h-178v90l2 62h-5q-77 -80 -195 -128t-249 -49q-297 0 -504 212q-207 213 -207 533z" />
    <glyph glyph-name="gbreve" unicode="&#x11f;" horiz-adv-x="1216" 
d="M860 1419q0 -113 -78 -176t-191 -63q-112 0 -191 63t-78 176v29h147v-27q0 -61 36 -92t86 -31t86 32t36 93v25h147v-29zM575 889q-133 0 -207 -91t-75 -253q0 -162 81 -261q81 -100 211 -100t207 84t76 273q0 348 -293 348zM536 -258q146 0 237 71t91 218v84l6 65h-4
q-100 -168 -311 -168t-337 150t-126 379t121 374t332 146q104 0 192 -39t135 -119h7q-6 12 -7 31v102h191v-993q0 -123 -44 -217q-79 -169 -286 -229q-90 -27 -192 -27q-182 0 -355 86l66 156q138 -70 284 -70z" />
    <glyph glyph-name="Gdotaccent" unicode="&#x120;" horiz-adv-x="1560" 
d="M731 1606v200h176v-200h-176zM102 720q0 320 211 535t527 215t526 -176l-102 -149q-74 61 -188 101t-222 40q-246 0 -394 -160t-148 -402t151 -402t383 -160t405 180v209h-233v176h420v-727h-178v90l2 62h-5q-77 -80 -195 -128t-249 -49q-297 0 -504 212
q-207 213 -207 533z" />
    <glyph glyph-name="gdotaccent" unicode="&#x121;" horiz-adv-x="1216" 
d="M504 1247v201h176v-201h-176zM575 889q-133 0 -207 -91t-75 -253q0 -162 81 -261q81 -100 211 -100t207 84t76 273q0 348 -293 348zM536 -258q146 0 237 71t91 218v84l6 65h-4q-100 -168 -311 -168t-337 150t-126 379t121 374t332 146q104 0 192 -39t135 -119h7
q-6 12 -7 31v102h191v-993q0 -123 -44 -217q-79 -169 -286 -229q-90 -27 -192 -27q-182 0 -355 86l66 156q138 -70 284 -70z" />
    <glyph glyph-name="Gcommaaccent" unicode="&#x122;" horiz-adv-x="1560" 
d="M102 720q0 320 211 535t527 215t526 -176l-102 -149q-74 61 -188 101t-222 40q-246 0 -394 -160t-148 -402t151 -402t383 -160t405 180v209h-233v176h420v-727h-178v90l2 62h-5q-77 -80 -195 -128t-249 -49q-297 0 -504 212q-207 213 -207 533zM907 -242q0 -66 -51 -176
h-151q39 110 39 172t-25 125h174q14 -55 14 -121z" />
    <glyph glyph-name="gcommaaccent" unicode="&#x123;" horiz-adv-x="1216" 
d="M575 889q-133 0 -207 -91t-75 -253q0 -162 81 -261q81 -100 211 -100t207 84t76 273q0 348 -293 348zM536 -258q146 0 237 71t91 218v84l6 65h-4q-100 -168 -311 -168t-337 150t-126 379t121 374t332 146q104 0 192 -39t135 -119h7q-6 12 -7 31v102h191v-993
q0 -123 -44 -217q-79 -169 -286 -229q-90 -27 -192 -27q-182 0 -355 86l66 156q138 -70 284 -70zM496 1272q0 64 51 174h149q-39 -110 -39 -170t25 -123h-172q-14 55 -14 119z" />
    <glyph glyph-name="Hcircumflex" unicode="&#x124;" horiz-adv-x="1536" 
d="M190 0v1446h203v-635h752v635h201v-1446h-201v635h-752v-635h-203zM483 1546l181 260h204l183 -260h-174l-109 164h-4l-107 -164h-174z" />
    <glyph glyph-name="hcircumflex" unicode="&#x125;" horiz-adv-x="1234" 
d="M154 0v1446h198v-537l-8 -86h4q44 90 146 164t243 74q354 0 355 -397v-664h-199v618q0 125 -40 193t-155 68q-150 0 -248 -110t-98 -277v-492h-198zM-27 1546l181 260h204l183 -260h-174l-109 164h-4l-107 -164h-174z" />
    <glyph glyph-name="Hbar" unicode="&#x126;" horiz-adv-x="1554" 
d="M410 811h735v242h-735v-242zM205 0v1053h-135v137h135v256h205v-256h735v256h205v-256h133v-137h-133v-1053h-205v635h-735v-635h-205z" />
    <glyph glyph-name="hbar" unicode="&#x127;" horiz-adv-x="1234" 
d="M154 0v1153h-148v129h148v164h198v-164h273v-129h-273v-238l-4 -86h4q40 88 142 160t243 72q354 0 355 -397v-664h-199v618q0 125 -40 193t-155 68q-154 0 -250 -112t-96 -269v-498h-198z" />
    <glyph glyph-name="Itilde" unicode="&#x128;" horiz-adv-x="585" 
d="M-49 1548q0 260 209 260q59 0 104 -34t82 -70q37 -35 75 -35t57 40t20 93h143q0 -260 -209 -260q-74 0 -146 70t-112 69q-80 0 -80 -133h-143zM190 0v1446h203v-1446h-203z" />
    <glyph glyph-name="itilde" unicode="&#x129;" horiz-adv-x="503" 
d="M-88 1190q0 260 209 260q75 0 147 -70t112 -70t59 41q19 40 20 93h143q0 -260 -209 -260q-59 0 -104 35t-82 69t-72 35q-80 0 -80 -133h-143zM154 0v1036h198v-1036h-198z" />
    <glyph glyph-name="Imacron" unicode="&#x12a;" horiz-adv-x="585" 
d="M37 1606v145h520v-145h-520zM190 0v1446h203v-1446h-203z" />
    <glyph glyph-name="imacron" unicode="&#x12b;" horiz-adv-x="503" 
d="M-4 1247v146h520v-146h-520zM154 0v1036h198v-1036h-198z" />
    <glyph glyph-name="Ibreve" unicode="&#x12c;" horiz-adv-x="585" 
d="M565 1778q-1 -112 -79 -176t-190 -64t-191 64t-78 176v28h147v-26q0 -61 36 -92t86 -31t86 32t36 93v24h147v-28zM190 0v1446h203v-1446h-203z" />
    <glyph glyph-name="ibreve" unicode="&#x12d;" horiz-adv-x="503" 
d="M524 1419q0 -113 -78 -176t-191 -63t-191 63t-78 176v29h147v-27q0 -61 36 -92t86 -31t86 32t36 93v25h147v-29zM154 0v1036h198v-1036h-198z" />
    <glyph glyph-name="Iogonek" unicode="&#x12e;" horiz-adv-x="585" 
d="M190 0v1446h203v-1446q-131 -104 -131 -182q0 -35 29 -57t57 -27l27 -4l-47 -154q-20 0 -72 15q-51 15 -83 35q-31 20 -57 58t-26 87q0 119 139 229h-39z" />
    <glyph glyph-name="iogonek" unicode="&#x12f;" horiz-adv-x="505" 
d="M150 1245v201h204v-201h-204zM154 0v1036h198v-1036q-131 -104 -131 -182q0 -35 29 -57t57 -27l27 -4l-45 -154q-22 0 -74 15q-51 15 -83 35t-58 58t-25 87q0 117 141 229h-36z" />
    <glyph glyph-name="Idotaccent" unicode="&#x130;" horiz-adv-x="585" 
d="M209 1606v200h176v-200h-176zM190 0v1446h203v-1446h-203z" />
    <glyph glyph-name="dotlessi" unicode="&#x131;" horiz-adv-x="503" 
d="M154 0v1036h198v-1036h-198z" />
    <glyph glyph-name="IJ" unicode="&#x132;" horiz-adv-x="1245" 
d="M190 0v1446h203v-1446h-203zM582 -8v184q105 0 184 56q100 71 98 260v954h205v-957q0 -497 -487 -497z" />
    <glyph glyph-name="ij" unicode="&#x133;" horiz-adv-x="1009" 
d="M657 -23v1059h199v-1071q0 -98 -30 -172t-72 -114q-105 -101 -295 -101q-20 0 -70 4v170q20 -4 71 -4t101 30q96 56 96 199zM653 1245v201h205v-201h-205zM154 0v1036h198v-1036h-198zM150 1245v201h204v-201h-204z" />
    <glyph glyph-name="Jcircumflex" unicode="&#x134;" horiz-adv-x="1091" 
d="M57 416v71h201v-61q0 -116 56 -190t162 -74t172 62q65 62 65 194v852h-365v176h565v-1030q0 -219 -126 -330t-302 -111t-302 112t-126 329zM342 1546l180 260h205l182 -260h-174l-108 164h-4l-107 -164h-174z" />
    <glyph glyph-name="jcircumflex" unicode="&#x135;" horiz-adv-x="503" 
d="M154 -23v1059h198v-1071q0 -98 -30 -172t-71 -114q-42 -41 -114 -71t-150 -30q-77 0 -102 4v170q29 -4 55 -4t60 8q96 23 131 101q23 48 23 120zM-29 1186l181 260h192l180 -260h-166l-108 166h-4l-107 -166h-168z" />
    <glyph glyph-name="Kcommaaccent" unicode="&#x136;" horiz-adv-x="1257" 
d="M190 0v1446h203v-608h215l367 608h223l-422 -686v-4l449 -756h-232l-385 662h-215v-662h-203zM745 -242q0 -66 -51 -176h-151q39 110 39 172t-25 125h174q14 -55 14 -121z" />
    <glyph glyph-name="kcommaaccent" unicode="&#x137;" horiz-adv-x="1069" 
d="M154 0v1446h198v-791h148l280 381h226l-344 -456v-5l382 -575h-231l-309 485h-152v-485h-198zM653 -242q0 -66 -51 -176h-151q39 110 39 172t-25 125h174q14 -55 14 -121z" />
    <glyph glyph-name="kgreenlandic" unicode="&#x138;" horiz-adv-x="1064" 
d="M154 0v1036h198v-407h144l297 407h229l-360 -481v-4l366 -551h-237l-291 461h-148v-461h-198z" />
    <glyph glyph-name="Lacute" unicode="&#x139;" horiz-adv-x="1077" 
d="M190 0v1446h203v-1270h649v-176h-852zM207 1546l147 260h215l-196 -260h-166z" />
    <glyph glyph-name="lacute" unicode="&#x13a;" horiz-adv-x="546" 
d="M154 285v1161h196v-1129q0 -83 30 -115t68 -32t50 2v-176q-43 -6 -66 -6q-278 0 -278 295zM168 1546l147 260h215l-196 -260h-166z" />
    <glyph glyph-name="Lcommaaccent" unicode="&#x13b;" horiz-adv-x="1077" 
d="M190 0v1446h203v-1270h649v-176h-852zM725 -242q0 -66 -51 -176h-152q40 110 40 172t-25 125h174q14 -55 14 -121z" />
    <glyph glyph-name="lcommaaccent" unicode="&#x13c;" horiz-adv-x="546" 
d="M154 285v1161h196v-1129q0 -83 30 -115t68 -32t50 2v-176q-43 -6 -66 -6q-278 0 -278 295zM424 -242q0 -66 -51 -176h-152q39 110 39 172t-24 125h174q14 -55 14 -121z" />
    <glyph glyph-name="Lcaron" unicode="&#x13d;" horiz-adv-x="1079" 
d="M190 0v1446h203v-1270h649v-176h-852zM590 1320q0 62 -25 124h174q15 -55 15 -122t-52 -175h-151q39 111 39 173z" />
    <glyph glyph-name="lcaron" unicode="&#x13e;" horiz-adv-x="563" 
d="M154 285v1161h196v-1129q0 -83 30 -115t68 -32t50 2v-176q-43 -6 -66 -6q-278 0 -278 295zM657 1322q0 -67 -51 -175h-151q39 111 39 173t-25 124h174q14 -55 14 -122z" />
    <glyph glyph-name="Ldot" unicode="&#x13f;" horiz-adv-x="1079" 
d="M631 668v215h207v-215h-207zM190 0v1446h203v-1270h649v-176h-852z" />
    <glyph glyph-name="ldot" unicode="&#x140;" horiz-adv-x="702" 
d="M498 668v215h207v-215h-207zM154 285v1161h196v-1129q0 -83 30 -115t68 -32t50 2v-176q-43 -6 -66 -6q-278 0 -278 295z" />
    <glyph glyph-name="Lslash" unicode="&#x141;" horiz-adv-x="1087" 
d="M203 0v616l-123 -69v198l123 70v631h200v-516l224 129v-199l-224 -129v-555h648v-176h-848z" />
    <glyph glyph-name="lslash" unicode="&#x142;" horiz-adv-x="585" 
d="M182 1446h199v-483l168 96v-199l-168 -98v-445q0 -147 111 -147l36 2v-176q-31 -6 -67 -6q-279 0 -279 295v364l-149 -86v199l149 86v598z" />
    <glyph glyph-name="Nacute" unicode="&#x143;" horiz-adv-x="1540" 
d="M190 0v1446h201l645 -938l119 -211h4q-12 129 -12 211v938h201v-1446h-199l-645 938l-119 211h-4q12 -129 12 -211v-938h-203zM680 1546l147 260h215l-196 -260h-166z" />
    <glyph glyph-name="nacute" unicode="&#x144;" horiz-adv-x="1234" 
d="M154 0v1036h192v-141l-6 -78h4q39 88 140 166t253 78q354 0 355 -397v-664h-199v618q0 125 -40 193t-155 68q-150 0 -248 -110t-98 -271v-498h-198zM549 1188l147 260h215l-196 -260h-166z" />
    <glyph glyph-name="Ncommaaccent" unicode="&#x145;" horiz-adv-x="1540" 
d="M190 0v1446h201l645 -938l119 -211h4q-12 129 -12 211v938h201v-1446h-199l-645 938l-119 211h-4q12 -129 12 -211v-938h-203zM864 -242q0 -66 -51 -176h-151q39 110 39 172t-25 125h174q14 -55 14 -121z" />
    <glyph glyph-name="ncommaaccent" unicode="&#x146;" horiz-adv-x="1234" 
d="M154 0v1036h192v-141l-6 -78h4q39 88 140 166t253 78q354 0 355 -397v-664h-199v618q0 125 -40 193t-155 68q-150 0 -248 -110t-98 -271v-498h-198zM551 -246q0 62 -25 125h174q14 -55 14 -121t-50 -176h-152q39 110 39 172z" />
    <glyph glyph-name="Ncaron" unicode="&#x147;" horiz-adv-x="1540" 
d="M190 0v1446h201l645 -938l119 -211h4q-12 129 -12 211v938h201v-1446h-199l-645 938l-119 211h-4q12 -129 12 -211v-938h-203zM666 1546l-181 260h174l107 -166h4l109 166h174l-183 -260h-204z" />
    <glyph glyph-name="ncaron" unicode="&#x148;" horiz-adv-x="1234" 
d="M154 0v1036h192v-141l-6 -78h4q39 88 140 166t253 78q354 0 355 -397v-664h-199v618q0 125 -40 193t-155 68q-150 0 -248 -110t-98 -271v-498h-198zM535 1188l-181 260h174l107 -166h4l109 166h174l-183 -260h-204z" />
    <glyph glyph-name="napostrophe" unicode="&#x149;" horiz-adv-x="1234" 
d="M154 0v1036h192v-141l-6 -78h4q39 88 140 166t253 78q354 0 355 -397v-664h-199v618q0 125 -40 193t-155 68q-150 0 -248 -110t-98 -271v-498h-198zM31 1320q0 62 -25 124h174q14 -55 14 -122t-51 -175h-151q39 111 39 173z" />
    <glyph glyph-name="Eng" unicode="&#x14a;" horiz-adv-x="1538" 
d="M190 0v1446h201l645 -938l119 -211h4q-12 129 -12 211v938h201v-1391q0 -367 -307 -452q-79 -23 -169 -23v187q96 0 179 61q82 61 90 186l-637 924l-119 211h-4q12 -129 12 -211v-938h-203z" />
    <glyph glyph-name="eng" unicode="&#x14b;" horiz-adv-x="1234" 
d="M154 0v1036h192v-153l-4 -60h4q41 88 140 163t251 75q354 0 355 -397v-705q0 -98 -30 -172t-72 -114q-106 -101 -296 -101l-69 4v170q18 -2 68 -2t117 37q38 20 60 69q23 49 23 121v647q0 125 -40 193t-155 68q-154 0 -250 -112t-96 -269v-498h-198z" />
    <glyph glyph-name="Omacron" unicode="&#x14c;" horiz-adv-x="1685" 
d="M843 1286q-230 0 -382 -158t-152 -399q0 -239 152 -403t382 -164t382 164q151 164 151 404t-152 398t-381 158zM1585 728q0 -318 -211 -534q-211 -218 -530 -218q-320 0 -532 217t-212 535t211 530t531 212t532 -212q211 -212 211 -530zM584 1606v145h520v-145h-520z" />
    <glyph glyph-name="omacron" unicode="&#x14d;" horiz-adv-x="1288" 
d="M289 519q0 -161 103 -266q104 -105 252 -105t252 106t105 266q0 160 -104 264t-253 104t-252 -104t-103 -265zM86 519q0 232 162 387t396 155t396 -154t162 -387t-162 -389t-395 -156t-396 156t-163 388zM385 1247v146h520v-146h-520z" />
    <glyph glyph-name="Obreve" unicode="&#x14e;" horiz-adv-x="1685" 
d="M1110 1778q0 -112 -78 -176t-191 -64q-112 0 -191 64t-79 176v28h148v-26q0 -61 36 -92t86 -31t86 32t36 93v24h147v-28zM843 1286q-230 0 -382 -158t-152 -399q0 -239 152 -403t382 -164t382 164q151 164 151 404t-152 398t-381 158zM1585 728q0 -318 -211 -534
q-211 -218 -530 -218q-320 0 -532 217t-212 535t211 530t531 212t532 -212q211 -212 211 -530z" />
    <glyph glyph-name="obreve" unicode="&#x14f;" horiz-adv-x="1288" 
d="M911 1419q-1 -113 -79 -176t-190 -63t-190 63t-79 176v29h147v-27q0 -61 36 -92t86 -31t86 32t36 93v25h147v-29zM289 519q0 -161 103 -266q104 -105 252 -105t252 106t105 266q0 160 -104 264t-253 104t-252 -104t-103 -265zM86 519q0 232 162 387t396 155t396 -154
t162 -387t-162 -389t-395 -156t-396 156t-163 388z" />
    <glyph glyph-name="Ohungarumlaut" unicode="&#x150;" horiz-adv-x="1685" 
d="M843 1286q-230 0 -382 -158t-152 -399q0 -239 152 -403t382 -164t382 164q151 164 151 404t-152 398t-381 158zM1585 728q0 -318 -211 -534q-211 -218 -530 -218q-320 0 -532 217t-212 535t211 530t531 212t532 -212q211 -212 211 -530zM571 1546l140 260h180l-146 -260
h-174zM887 1546l149 260h207l-196 -260h-160z" />
    <glyph glyph-name="ohungarumlaut" unicode="&#x151;" horiz-adv-x="1288" 
d="M289 519q0 -161 103 -266q104 -105 252 -105t252 106t105 266q0 160 -104 264t-253 104t-252 -104t-103 -265zM86 519q0 232 162 387t396 155t396 -154t162 -387t-162 -389t-395 -156t-396 156t-163 388zM373 1188l139 260h180l-145 -260h-174zM688 1188l150 260h206
l-196 -260h-160z" />
    <glyph glyph-name="OE" unicode="&#x152;" horiz-adv-x="1957" 
d="M850 158q73 0 145 16v1098q-63 16 -145 16q-236 0 -388 -162t-151 -402q0 -242 151 -404t388 -162zM1835 1446v-176h-639v-453h520v-176h-520v-465h674v-176h-768q-31 0 -115 -9t-137 -9q-319 0 -534 214q-214 214 -214 528t214 527t534 213l252 -18h733z" />
    <glyph glyph-name="oe" unicode="&#x153;" horiz-adv-x="2054" 
d="M289 517q0 -165 103 -267t252 -102t252 102q103 104 103 269t-104 267q-103 102 -251 102t-252 -102q-104 -104 -103 -269zM1210 635h553q-4 127 -73 198q-70 71 -180 71t-194 -72q-83 -72 -106 -197zM86 516q0 240 161 392t392 153q301 0 448 -246h5q129 246 426 246
q212 0 330 -138t118 -348l-6 -83h-756q12 -162 114 -253t257 -91q156 0 293 120l82 -145q-74 -68 -183 -108t-219 -40q-313 0 -452 252h-4q-145 -252 -453 -252q-231 1 -392 151t-161 390z" />
    <glyph glyph-name="Racute" unicode="&#x154;" horiz-adv-x="1286" 
d="M393 752h291q118 0 188 72t70 194q0 170 -135 227q-55 25 -174 25h-240v-518zM190 0v1446h459q183 0 279 -43t157 -141t61 -236t-70 -247q-71 -110 -187 -148v-4q16 -20 41 -66l307 -561h-229l-306 575h-309v-575h-203zM537 1546l147 260h215l-197 -260h-165z" />
    <glyph glyph-name="racute" unicode="&#x155;" horiz-adv-x="770" 
d="M154 0v1036h192v-186l-6 -76h4q39 119 127 197t203 78q20 0 53 -5v-196q-16 4 -57 4q-156 0 -237 -126t-81 -296v-430h-198zM369 1188l147 260h215l-196 -260h-166z" />
    <glyph glyph-name="Rcommaaccent" unicode="&#x156;" horiz-adv-x="1286" 
d="M393 752h291q118 0 188 72t70 194q0 170 -135 227q-55 25 -174 25h-240v-518zM190 0v1446h459q183 0 279 -43t157 -141t61 -236t-70 -247q-71 -110 -187 -148v-4q16 -20 41 -66l307 -561h-229l-306 575h-309v-575h-203zM762 -242q0 -66 -51 -176h-152q39 110 39 172
t-25 125h175q14 -55 14 -121z" />
    <glyph glyph-name="rcommaaccent" unicode="&#x157;" horiz-adv-x="770" 
d="M154 0v1036h192v-186l-6 -76h4q39 119 127 197t203 78q20 0 53 -5v-196q-16 4 -57 4q-156 0 -237 -126t-81 -296v-430h-198zM354 -242q0 -66 -51 -176h-151q39 110 39 172t-25 125h174q14 -55 14 -121z" />
    <glyph glyph-name="Rcaron" unicode="&#x158;" horiz-adv-x="1286" 
d="M393 752h291q118 0 188 72t70 194q0 170 -135 227q-55 25 -174 25h-240v-518zM190 0v1446h459q183 0 279 -43t157 -141t61 -236t-70 -247q-71 -110 -187 -148v-4q16 -20 41 -66l307 -561h-229l-306 575h-309v-575h-203zM520 1546l-180 260h174l107 -166h4l108 166h174
l-182 -260h-205z" />
    <glyph glyph-name="rcaron" unicode="&#x159;" horiz-adv-x="770" 
d="M154 0v1036h192v-186l-6 -76h4q39 119 127 197t203 78q20 0 53 -5v-196q-16 4 -57 4q-156 0 -237 -126t-81 -296v-430h-198zM356 1188l-180 260h174l107 -166h4l108 166h174l-182 -260h-205z" />
    <glyph glyph-name="Sacute" unicode="&#x15a;" horiz-adv-x="1116" 
d="M572 164q106 0 176 56t70 148t-73 153q-72 61 -175 105t-205 93t-175 137q-72 88 -71 213q0 180 134 291t339 110q248 0 403 -147l-92 -166q-61 57 -148 92t-185 35t-173 -56q-73 -56 -73 -138t51 -138q51 -55 129 -87q78 -31 168 -73t168 -87t129 -127t51 -191
q0 -176 -123 -294t-338 -118q-280 1 -475 191l115 153q70 -67 168 -111q99 -44 205 -44zM471 1546l147 260h216l-197 -260h-166z" />
    <glyph glyph-name="sacute" unicode="&#x15b;" horiz-adv-x="915" 
d="M465 141q80 0 128 36t48 94q0 57 -55 97t-133 68t-156 64t-133 102t-55 160q0 141 106 220t266 79q209 0 336 -115l-80 -143q-45 43 -117 67t-149 25q-76 0 -124 -33t-48 -92t55 -98t133 -67q78 -29 157 -63t134 -101t56 -160q0 -133 -104 -219t-269 -87q-245 0 -395 152
l94 135q125 -121 305 -121zM367 1188l147 260h215l-197 -260h-165z" />
    <glyph glyph-name="Scircumflex" unicode="&#x15c;" horiz-adv-x="1116" 
d="M572 164q106 0 176 56t70 148t-73 153q-72 61 -175 105t-205 93t-175 137q-72 88 -71 213q0 180 134 291t339 110q248 0 403 -147l-92 -166q-61 57 -148 92t-185 35t-173 -56q-73 -56 -73 -138t51 -138q51 -55 129 -87q78 -31 168 -73t168 -87t129 -127t51 -191
q0 -176 -123 -294t-338 -118q-280 1 -475 191l115 153q70 -67 168 -111q99 -44 205 -44zM279 1546l180 260h205l182 -260h-174l-109 164h-4l-106 -164h-174z" />
    <glyph glyph-name="scircumflex" unicode="&#x15d;" horiz-adv-x="915" 
d="M465 141q80 0 128 36t48 94q0 57 -55 97t-133 68t-156 64t-133 102t-55 160q0 141 106 220t266 79q209 0 336 -115l-80 -143q-45 43 -117 67t-149 25q-76 0 -124 -33t-48 -92t55 -98t133 -67q78 -29 157 -63t134 -101t56 -160q0 -133 -104 -219t-269 -87q-245 0 -395 152
l94 135q125 -121 305 -121zM178 1188l180 260h205l182 -260h-174l-108 164h-4l-107 -164h-174z" />
    <glyph glyph-name="Scedilla" unicode="&#x15e;" horiz-adv-x="1118" 
d="M572 164q106 0 176 56t70 148t-73 153q-72 61 -175 105t-205 93t-175 137q-72 88 -71 213q0 180 134 291t339 110q248 0 403 -147l-92 -166q-61 57 -148 92t-185 35t-173 -56q-73 -56 -73 -138t51 -138q51 -55 129 -87q78 -31 168 -73t168 -87t129 -127t51 -191
q0 -165 -108 -279t-298 -131l-16 -79q66 -8 107 -48t41 -114q0 -76 -61 -118t-133 -42t-128 12v121q37 -14 86 -14q98 0 98 63t-108 64l-37 -2l41 157q-252 20 -420 189l115 153q70 -67 168 -111q99 -44 205 -44z" />
    <glyph glyph-name="scedilla" unicode="&#x15f;" horiz-adv-x="919" 
d="M467 141q80 0 128 36t48 94q0 57 -55 97t-133 68t-156 64t-133 102t-55 160q0 141 106 220t266 79q209 0 336 -115l-80 -143q-45 43 -117 67t-149 25q-76 0 -124 -33t-48 -92t55 -98t134 -67q79 -29 157 -63t133 -101q56 -67 56 -175t-90 -192t-238 -97l-16 -79
q66 -8 106 -48t41 -114q0 -76 -60 -118t-133 -42t-129 12v121q35 -14 86 -14q98 0 99 63q0 63 -109 64l-37 -2l41 160q-207 20 -329 147l94 135q125 -121 305 -121z" />
    <glyph glyph-name="Scaron" unicode="&#x160;" horiz-adv-x="1116" 
d="M572 164q106 0 176 56t70 148t-73 153q-72 61 -175 105t-205 93t-175 137q-72 88 -71 213q0 180 134 291t339 110q248 0 403 -147l-92 -166q-61 57 -148 92t-185 35t-173 -56q-73 -56 -73 -138t51 -138q51 -55 129 -87q78 -31 168 -73t168 -87t129 -127t51 -191
q0 -176 -123 -294t-338 -118q-280 1 -475 191l115 153q70 -67 168 -111q99 -44 205 -44zM459 1546l-180 260h174l106 -166h4l109 166h174l-182 -260h-205z" />
    <glyph glyph-name="scaron" unicode="&#x161;" horiz-adv-x="915" 
d="M465 141q80 0 128 36t48 94q0 57 -55 97t-133 68t-156 64t-133 102t-55 160q0 141 106 220t266 79q209 0 336 -115l-80 -143q-45 43 -117 67t-149 25q-76 0 -124 -33t-48 -92t55 -98t133 -67q78 -29 157 -63t134 -101t56 -160q0 -133 -104 -219t-269 -87q-245 0 -395 152
l94 135q125 -121 305 -121zM358 1188l-180 260h174l107 -166h4l108 166h174l-182 -260h-205z" />
    <glyph glyph-name="Tcommaaccent" unicode="&#x162;" horiz-adv-x="1259" 
d="M528 0v1270h-497v176h1196v-176h-498v-1270h-49l-23 -102q66 -8 107 -48t41 -114q-1 -76 -61 -118t-132 -42t-129 12v121q37 -14 86 -14q98 0 99 63q0 63 -109 64l-37 -2l47 180h-41z" />
    <glyph glyph-name="tcommaaccent" unicode="&#x163;" horiz-adv-x="714" 
d="M197 379v485h-136v162h140v295h194v-295h250v-162h-250v-463q0 -160 112 -211q50 -22 93 -22t64 4v-176q-48 -6 -94 -6t-97 12l-22 -104q67 -8 107 -48t40 -114q0 -76 -60 -118t-133 -42t-129 12v121q35 -14 86 -14q98 0 99 63q0 63 -109 64l-37 -2l58 219
q-176 90 -176 340z" />
    <glyph glyph-name="Tcaron" unicode="&#x164;" horiz-adv-x="1259" 
d="M528 0v1270h-497v176h1196v-176h-498v-1270h-201zM524 1546l-180 260h174l107 -166h4l108 166h174l-182 -260h-205z" />
    <glyph glyph-name="tcaron" unicode="&#x165;" horiz-adv-x="714" 
d="M197 379v485h-136v162h140v295h194v-295h250v-162h-250v-463q0 -160 112 -211q50 -22 93 -22t64 4v-176q-49 -6 -112 -6t-138 31q-74 31 -116 71t-72 114q-29 75 -29 173zM541 1324q0 58 -25 122h174q14 -55 14 -120t-51 -171h-151q39 111 39 169z" />
    <glyph glyph-name="Tbar" unicode="&#x166;" horiz-adv-x="1280" 
d="M539 0v635h-320v156h320v479h-498v176h1196v-176h-498v-479h330v-156h-330v-635h-200z" />
    <glyph glyph-name="tbar" unicode="&#x167;" horiz-adv-x="722" 
d="M57 530v140h146v194h-135v162h139v295h192v-295h250v-162h-250v-194h240v-140h-240v-137q0 -140 83 -187q66 -38 139 -38l47 4v-176q-29 -6 -101 -6t-147 31q-76 31 -118 71t-71 114q-29 75 -28 173v151h-146z" />
    <glyph glyph-name="Utilde" unicode="&#x168;" horiz-adv-x="1486" 
d="M397 1548q0 260 209 260q58 0 104 -34t83 -70q37 -35 75 -35t57 40t19 93h143q0 -260 -208 -260q-59 0 -105 35t-82 70q-37 35 -71 34q-80 0 -80 -133h-144zM174 512v934h203v-932q0 -166 99 -259t267 -93t267 93q98 93 98 261v930h203v-934q0 -242 -156 -389t-411 -147
q-254 0 -412 146q-158 148 -158 390z" />
    <glyph glyph-name="utilde" unicode="&#x169;" horiz-adv-x="1222" 
d="M260 1190q0 260 209 260q59 0 104 -35t82 -69t75 -35q38 0 57 40t20 93h143q0 -260 -209 -260q-59 0 -104 35t-82 69t-72 35q-80 0 -80 -133h-143zM141 373v663h199v-618q0 -123 41 -191t154 -67q153 0 245 114t92 277v485h197v-1036h-192v143l8 76h-4q-41 -92 -143 -168
t-242 -76q-355 1 -355 398z" />
    <glyph glyph-name="Umacron" unicode="&#x16a;" horiz-adv-x="1486" 
d="M483 1606v145h521v-145h-521zM174 512v934h203v-932q0 -166 99 -259t267 -93t267 93q98 93 98 261v930h203v-934q0 -242 -156 -389t-411 -147q-254 0 -412 146q-158 148 -158 390z" />
    <glyph glyph-name="umacron" unicode="&#x16b;" horiz-adv-x="1222" 
d="M346 1247v146h520v-146h-520zM141 373v663h199v-618q0 -123 41 -191t154 -67q153 0 245 114t92 277v485h197v-1036h-192v143l8 76h-4q-41 -92 -143 -168t-242 -76q-355 1 -355 398z" />
    <glyph glyph-name="Ubreve" unicode="&#x16c;" horiz-adv-x="1486" 
d="M1010 1778q0 -112 -79 -176t-191 -64t-190 64t-79 176v28h147v-26q0 -61 36 -92t86 -31t86 32t36 93v24h148v-28zM174 512v934h203v-932q0 -166 99 -259t267 -93t267 93q98 93 98 261v930h203v-934q0 -242 -156 -389t-411 -147q-254 0 -412 146q-158 148 -158 390z" />
    <glyph glyph-name="ubreve" unicode="&#x16d;" horiz-adv-x="1222" 
d="M874 1419q0 -113 -78 -176t-191 -63t-191 63t-78 176v29h147v-27q0 -61 36 -92t86 -31t86 32t36 93v25h147v-29zM141 373v663h199v-618q0 -123 41 -191t154 -67q153 0 245 114t92 277v485h197v-1036h-192v143l8 76h-4q-41 -92 -143 -168t-242 -76q-355 1 -355 398z" />
    <glyph glyph-name="Uring" unicode="&#x16e;" horiz-adv-x="1486" 
d="M174 512v934h203v-932q0 -166 99 -259t267 -93t267 93q98 93 98 261v930h203v-934q0 -242 -156 -389t-411 -147q-254 0 -412 146q-158 148 -158 390zM740 1606q30 0 50 19q19 19 19 50t-19 50q-20 19 -50 19t-48 -18q-18 -20 -18 -51t18 -50t48 -19zM913 1674
q0 -68 -51 -110t-122 -42t-122 42t-51 110t51 111q51 42 123 42t122 -42t50 -111z" />
    <glyph glyph-name="uring" unicode="&#x16f;" horiz-adv-x="1222" 
d="M141 373v663h199v-618q0 -123 41 -191t154 -67q153 0 245 114t92 277v485h197v-1036h-192v143l8 76h-4q-41 -92 -143 -168t-242 -76q-355 1 -355 398zM539 1317q0 -31 18 -51t48 -19q30 -1 49 19q20 20 20 51t-20 50t-49 19q-30 0 -48 -19t-18 -50zM605 1163
q-71 0 -122 42t-51 111q0 68 51 110t123 42t122 -42t50 -110t-51 -111q-51 -42 -122 -42z" />
    <glyph glyph-name="Uhungarumlaut" unicode="&#x170;" horiz-adv-x="1486" 
d="M471 1546l139 260h181l-146 -260h-174zM786 1546l150 260h207l-197 -260h-160zM174 512v934h203v-932q0 -166 99 -259t267 -93t267 93q98 93 98 261v930h203v-934q0 -242 -156 -389t-411 -147q-254 0 -412 146q-158 148 -158 390z" />
    <glyph glyph-name="uhungarumlaut" unicode="&#x171;" horiz-adv-x="1222" 
d="M336 1188l139 260h180l-145 -260h-174zM651 1188l150 260h207l-197 -260h-160zM141 373v663h199v-618q0 -123 41 -191t154 -67q153 0 245 114t92 277v485h197v-1036h-192v143l8 76h-4q-41 -92 -143 -168t-242 -76q-355 1 -355 398z" />
    <glyph glyph-name="Uogonek" unicode="&#x172;" horiz-adv-x="1486" 
d="M176 512v934h201v-932q0 -166 99 -259t267 -93t268 94q99 94 99 260v930h201v-934q0 -180 -73 -284t-198 -187q-135 -96 -170 -137q-32 -45 -32 -83t28 -60t56 -27l28 -4l-47 -154q-19 0 -71 15t-84 35t-57 58q-26 38 -25 87q0 115 112 206q-27 -2 -45 -2
q-233 -1 -395 143t-162 394z" />
    <glyph glyph-name="uogonek" unicode="&#x173;" horiz-adv-x="1222" 
d="M141 373v663h199v-618q0 -123 41 -191t154 -67q153 0 245 114t92 277v485h197v-1036q-131 -104 -131 -182q0 -35 29 -57t57 -27l27 -4l-47 -154q-21 0 -72 15t-83 35q-31 20 -57 58t-26 87q0 117 141 229h-30v143l8 76h-4q-41 -92 -143 -168t-242 -76q-355 1 -355 398z
" />
    <glyph glyph-name="Wcircumflex" unicode="&#x174;" horiz-adv-x="1927" 
d="M428 0l-369 1446h213l252 -1061l29 -154h4q12 74 33 154l284 1061h179l282 -1061l33 -154h4q8 76 27 154l268 1061h209l-381 -1446h-231l-254 938l-43 203h-9q-18 -109 -45 -203l-251 -938h-234zM688 1546l180 260h205l182 -260h-174l-108 164h-4l-107 -164h-174z" />
    <glyph glyph-name="wcircumflex" unicode="&#x175;" horiz-adv-x="1695" 
d="M383 0l-334 1036h211l215 -727l27 -110h4q12 57 29 110l223 725h184l223 -725l27 -110h4q10 57 27 110l217 727h207l-332 -1036h-221l-213 666l-31 112h-4q-12 -59 -29 -112l-213 -666h-221zM563 1188l180 260h205l182 -260h-174l-108 164h-4l-107 -164h-174z" />
    <glyph glyph-name="Ycircumflex" unicode="&#x176;" horiz-adv-x="1212" 
d="M322 1546l180 260h205l182 -260h-174l-109 164h-4l-106 -164h-174zM506 0v612l-486 834h230l266 -475l88 -183h4q43 98 88 183l267 475h229l-485 -834v-612h-201z" />
    <glyph glyph-name="ycircumflex" unicode="&#x177;" horiz-adv-x="1095" 
d="M266 1188l180 260h205l183 -260h-175l-108 164h-4l-107 -164h-174zM221 -260q125 0 189 154l51 118l-434 1024h223l260 -678l39 -125h4q16 70 35 123l252 680h215l-488 -1222q-45 -120 -134 -182t-202 -62q-51 0 -100 16t-74 33l-24 14l69 152q57 -45 119 -45z" />
    <glyph glyph-name="Ydieresis" unicode="&#x178;" horiz-adv-x="1212" 
d="M346 1599v207h164v-207h-164zM690 1599v207h162v-207h-162zM506 0v612l-486 834h230l266 -475l88 -183h4q43 98 88 183l267 475h229l-485 -834v-612h-201z" />
    <glyph glyph-name="Zacute" unicode="&#x179;" horiz-adv-x="1216" 
d="M74 0v135l694 1004q50 74 92 116l12 15v4q-39 -4 -106 -4h-657v176h1015v-133l-696 -1006q-49 -68 -88 -114l-14 -17v-4q37 4 106 4h701v-176h-1059zM541 1546l147 260h215l-196 -260h-166z" />
    <glyph glyph-name="zacute" unicode="&#x17a;" horiz-adv-x="1046" 
d="M74 0v115l524 655l84 96v4q-33 -4 -100 -4h-486v170h854v-114l-522 -656q-21 -29 -88 -96v-4q35 6 102 6h527v-172h-895zM426 1188l147 260h215l-196 -260h-166z" />
    <glyph glyph-name="Zdotaccent" unicode="&#x17b;" horiz-adv-x="1216" 
d="M543 1606v200h176v-200h-176zM74 0v135l694 1004q50 74 92 116l12 15v4q-39 -4 -106 -4h-657v176h1015v-133l-696 -1006q-49 -68 -88 -114l-14 -17v-4q37 4 106 4h701v-176h-1059z" />
    <glyph glyph-name="zdotaccent" unicode="&#x17c;" horiz-adv-x="1046" 
d="M428 1247v201h176v-201h-176zM74 0v115l524 655l84 96v4q-33 -4 -100 -4h-486v170h854v-114l-522 -656q-21 -29 -88 -96v-4q35 6 102 6h527v-172h-895z" />
    <glyph glyph-name="Zcaron" unicode="&#x17d;" horiz-adv-x="1216" 
d="M74 0v135l694 1004q50 74 92 116l12 15v4q-39 -4 -106 -4h-657v176h1015v-133l-696 -1006q-49 -68 -88 -114l-14 -17v-4q37 4 106 4h701v-176h-1059zM526 1546l-180 260h174l107 -166h4l108 166h174l-182 -260h-205z" />
    <glyph glyph-name="zcaron" unicode="&#x17e;" horiz-adv-x="1046" 
d="M74 0v115l524 655l84 96v4q-33 -4 -100 -4h-486v170h854v-114l-522 -656q-21 -29 -88 -96v-4q35 6 102 6h527v-172h-895zM414 1188l-181 260h175l106 -166h4l109 166h174l-183 -260h-204z" />
    <glyph glyph-name="longs" unicode="&#x17f;" horiz-adv-x="595" 
d="M203 0v864h-129v162h129v45q0 266 197 347q89 38 194 38l76 -6v-172q-20 4 -50 4q-216 0 -219 -217v-1065h-198z" />
    <glyph glyph-name="florin" unicode="&#x192;" horiz-adv-x="1181" 
d="M192 -55q223 0 242 227l49 545h-168v160h181l20 208q8 98 44 171t80 113q111 101 302 101l170 -14v-172q-100 14 -148 14q-230 0 -249 -227l-19 -194h240v-160h-254l-49 -561q-11 -121 -59 -203t-118 -118q-120 -62 -245 -62l-143 12v172q78 -12 124 -12z" />
    <glyph glyph-name="Scommaaccent" unicode="&#x218;" horiz-adv-x="1116" 
d="M572 164q106 0 176 56t70 148t-73 153q-72 61 -175 105t-205 93t-175 137q-72 88 -71 213q0 180 134 291t339 110q248 0 403 -147l-92 -166q-61 57 -148 92t-185 35t-173 -56q-73 -56 -73 -138t51 -138q51 -55 129 -87q78 -31 168 -73t168 -87t129 -127t51 -191
q0 -176 -123 -294t-338 -118q-280 1 -475 191l115 153q70 -67 168 -111q99 -44 205 -44zM647 -242q0 -66 -51 -176h-152q40 110 40 172t-25 125h174q14 -55 14 -121z" />
    <glyph glyph-name="scommaaccent" unicode="&#x219;" horiz-adv-x="915" 
d="M465 141q80 0 128 36t48 94q0 57 -55 97t-133 68t-156 64t-133 102t-55 160q0 141 106 220t266 79q209 0 336 -115l-80 -143q-45 43 -117 67t-149 25q-76 0 -124 -33t-48 -92t55 -98t133 -67q78 -29 157 -63t134 -101t56 -160q0 -133 -104 -219t-269 -87q-245 0 -395 152
l94 135q125 -121 305 -121zM551 -242q0 -66 -51 -176h-152q39 110 39 172t-25 125h175q14 -55 14 -121z" />
    <glyph glyph-name="uni021A" unicode="&#x21a;" horiz-adv-x="1259" 
d="M528 0v1270h-497v176h1196v-176h-498v-1270h-201zM721 -242q0 -66 -51 -176h-152q39 110 39 172t-25 125h175q14 -55 14 -121z" />
    <glyph glyph-name="uni021B" unicode="&#x21b;" horiz-adv-x="714" 
d="M197 379v485h-136v162h140v295h194v-295h250v-162h-250v-463q0 -160 112 -211q50 -22 93 -22t64 4v-176q-49 -6 -112 -6t-138 31q-74 31 -116 71t-72 114q-29 75 -29 173zM528 -242q0 -66 -51 -176h-151q39 110 39 172t-25 125h174q14 -55 14 -121z" />
    <glyph glyph-name="circumflex" unicode="&#x2c6;" horiz-adv-x="1021" 
d="M227 1546l181 260h204l183 -260h-174l-109 164h-4l-107 -164h-174z" />
    <glyph glyph-name="caron" unicode="&#x2c7;" horiz-adv-x="1021" 
d="M408 1546l-181 260h174l107 -166h4l109 166h174l-183 -260h-204z" />
    <glyph glyph-name="breve" unicode="&#x2d8;" horiz-adv-x="1021" 
d="M780 1778q0 -112 -78 -176t-191 -64t-191 64t-78 176v28h147v-26q0 -61 36 -92t86 -31t86 32t36 93v24h147v-28z" />
    <glyph glyph-name="dotaccent" unicode="&#x2d9;" horiz-adv-x="1024" 
d="M424 1606v200h176v-200h-176z" />
    <glyph glyph-name="ring" unicode="&#x2da;" horiz-adv-x="1024" 
d="M511 1606q30 0 49 19q20 19 20 50t-20 50t-49 19q-30 0 -48 -18q-19 -20 -19 -51t18 -50t49 -19zM684 1674q0 -68 -51 -110t-122 -42t-122 42t-51 110t51 111q51 42 123 42t122 -42t50 -111z" />
    <glyph glyph-name="ogonek" unicode="&#x2db;" horiz-adv-x="1021" 
d="M348 -231q0 47 24 101t108 127q30 26 50 38l21 12l125 -27q-55 -36 -106 -99q-52 -62 -52 -100t29 -60t57 -27l29 -4l-47 -154q-10 0 -57 9t-89 35q-40 26 -66 64t-26 85z" />
    <glyph glyph-name="tilde" unicode="&#x2dc;" horiz-adv-x="1021" 
d="M166 1548q0 260 209 260q59 0 104 -34t82 -70q37 -35 75 -35t57 40t20 93h143q0 -260 -209 -260q-59 0 -104 35t-82 70t-72 34q-80 0 -80 -133h-143z" />
    <glyph glyph-name="hungarumlaut" unicode="&#x2dd;" horiz-adv-x="1021" 
d="M176 1546l139 260h181l-146 -260h-174zM492 1546l149 260h207l-197 -260h-159z" />
    <glyph glyph-name="uni0400" unicode="&#x400;" horiz-adv-x="1155" 
d="M586 1546l-195 260h213l150 -260h-168zM190 0v1446h842v-176h-639v-453h518v-176h-518v-465h674v-176h-877z" />
    <glyph glyph-name="uni0401" unicode="&#x401;" horiz-adv-x="1155" 
d="M190 0v1446h842v-176h-639v-453h518v-176h-518v-465h674v-176h-877zM371 1599v207h164v-207h-164zM715 1599v207h162v-207h-162z" />
    <glyph glyph-name="uni0402" unicode="&#x402;" horiz-adv-x="1507" 
d="M426 0v1270h-395v176h1073v-176h-475v-404l-4 -63h4q171 84 373 84t321 -121q119 -122 119 -330t-128 -334t-327 -127q-49 0 -98 7v170q37 -4 74 -5q113 0 195 69t81 206q0 137 -73 211t-212 74q-82 0 -164 -22t-122 -42l-39 -20v-623h-203z" />
    <glyph glyph-name="uni0403" unicode="&#x403;" horiz-adv-x="1013" 
d="M190 0v1446h797v-176h-594v-1270h-203zM469 1546l147 260h215l-196 -260h-166z" />
    <glyph glyph-name="uni0404" unicode="&#x404;" horiz-adv-x="1466" 
d="M844 -25q-324 0 -533 217q-209 218 -209 536t206 530t530 212q197 0 328 -62q132 -62 180 -110l20 -18l-102 -152q-18 18 -54 44t-144 70t-220 44q-216 0 -362 -135t-167 -342h756v-168h-756q25 -211 168 -346t352 -135t381 118q40 28 60 46l20 18l107 -141l-24 -24
q-15 -15 -69 -54q-117 -84 -271 -123q-95 -25 -197 -25z" />
    <glyph glyph-name="uni0405" unicode="&#x405;" horiz-adv-x="1116" 
d="M572 164q106 0 176 56t70 148t-73 153q-72 61 -175 105t-205 93t-175 137q-72 88 -71 213q0 180 134 291t339 110q248 0 403 -147l-92 -166q-61 57 -148 92t-185 35t-173 -56q-73 -56 -73 -138t51 -138q51 -55 129 -87q78 -31 168 -73t168 -87t129 -127t51 -191
q0 -176 -123 -294t-338 -118q-280 1 -475 191l115 153q70 -67 168 -111q99 -44 205 -44z" />
    <glyph glyph-name="uni0406" unicode="&#x406;" horiz-adv-x="585" 
d="M190 0v1446h203v-1446h-203z" />
    <glyph glyph-name="uni0407" unicode="&#x407;" horiz-adv-x="585" 
d="M43 1599v207h164v-207h-164zM387 1599v207h162v-207h-162zM190 0v1446h203v-1446h-203z" />
    <glyph glyph-name="uni0408" unicode="&#x408;" horiz-adv-x="1091" 
d="M57 416v71h201v-61q0 -116 56 -190t162 -74t172 62q65 62 65 194v852h-365v176h565v-1030q0 -219 -126 -330t-302 -111t-302 112t-126 329z" />
    <glyph glyph-name="uni0409" unicode="&#x409;" horiz-adv-x="1951" 
d="M1159 176h256q123 0 198 66t75 182t-76 186q-76 68 -199 68h-254v-502zM365 1065v381h794v-592h281q202 0 328 -117t126 -311t-126 -310t-320 -116h-490v1270h-391v-205q0 -638 -149 -871q-56 -88 -152 -144t-225 -64v188q180 18 252 234t72 657z" />
    <glyph glyph-name="uni040A" unicode="&#x40a;" horiz-adv-x="2064" 
d="M1268 176h260q122 0 196 66t74 182t-75 182q-75 68 -197 68h-258v-498zM190 0v1446h203v-598h674v598h201v-596h293q197 0 321 -117t123 -308q0 -191 -126 -308t-318 -117h-494v672h-674v-672h-203z" />
    <glyph glyph-name="uni040B" unicode="&#x40b;" horiz-adv-x="1505" 
d="M426 0v1270h-395v176h1071v-176h-473v-408l-4 -67h4q184 92 383 92t298 -114t99 -316v-457h-205v428q0 279 -254 279q-178 0 -321 -95v-612h-203z" />
    <glyph glyph-name="uni040C" unicode="&#x40c;" horiz-adv-x="1257" 
d="M190 0v1446h203v-608h215l367 608h223l-422 -686v-4l449 -756h-232l-385 662h-215v-662h-203zM563 1546l148 260h215l-197 -260h-166z" />
    <glyph glyph-name="uni040D" unicode="&#x40d;" horiz-adv-x="1540" 
d="M705 1546l-195 260h213l149 -260h-167zM190 0v1446h203v-938l-12 -211h4q72 135 123 213l641 936h199v-1446h-201v938l12 211h-4q-70 -131 -121 -211l-645 -938h-199z" />
    <glyph glyph-name="uni040E" unicode="&#x40e;" horiz-adv-x="1226" 
d="M920 1776q0 -121 -88 -192t-215 -71q-126 0 -215 71t-89 192v30h160v-28q0 -64 43 -100t101 -36t102 36q43 36 43 102v26h158v-30zM154 70l92 153q94 -71 160 -71t101 40q36 40 68 121l-571 1133h223l353 -727l82 -191h4q31 100 61 189l268 729h213l-460 -1180
q-115 -291 -330 -291q-129 1 -264 95z" />
    <glyph glyph-name="uni040F" unicode="&#x40f;" horiz-adv-x="1495" 
d="M190 0v1446h203v-1270h709v1270h203v-1446h-465v-287h-185v287h-465z" />
    <glyph glyph-name="uni0410" unicode="&#x410;" horiz-adv-x="1312" 
d="M436 584h438l-159 456l-58 207h-4q-31 -131 -55 -207zM31 0l518 1446h215l518 -1446h-209l-145 416h-545l-145 -416h-207z" />
    <glyph glyph-name="uni0411" unicode="&#x411;" horiz-adv-x="1239" 
d="M393 176h295q121 0 190 68q68 68 68 186t-70 190q-71 71 -192 70h-291v-514zM190 0v1446h854v-176h-651v-404h318q195 0 317 -116t123 -314q0 -200 -120 -318t-310 -118h-531z" />
    <glyph glyph-name="uni0412" unicode="&#x412;" horiz-adv-x="1277" 
d="M393 176h326q115 0 181 68t67 180q0 112 -68 178q-68 68 -180 68h-326v-494zM393 838h303q96 0 155 61q58 61 58 157t-57 155q-57 58 -158 59h-301v-432zM190 0v1446h506q188 0 304 -98t116 -271q0 -104 -48 -186t-132 -125v-4q113 -33 176 -129t64 -221
q0 -196 -134 -304t-333 -108h-519z" />
    <glyph glyph-name="uni0413" unicode="&#x413;" horiz-adv-x="1013" 
d="M190 0v1446h797v-176h-594v-1270h-203z" />
    <glyph glyph-name="uni0414" unicode="&#x414;" horiz-adv-x="1474" 
d="M12 176h146q135 190 181 434t46 539v297h846v-1270h160v-463h-183v287h-1007v-287h-189v463zM1028 176v1094h-453v-133q1 -648 -204 -961h657z" />
    <glyph glyph-name="uni0415" unicode="&#x415;" horiz-adv-x="1155" 
d="M190 0v1446h842v-176h-639v-453h518v-176h-518v-465h674v-176h-877z" />
    <glyph glyph-name="uni0416" unicode="&#x416;" horiz-adv-x="1826" 
d="M813 838v608h201v-608h190l336 608h221l-391 -686v-4l422 -756h-229l-359 662h-190v-662h-201v662h-188l-361 -662h-227l420 756v4l-391 686h221l338 -608h188z" />
    <glyph glyph-name="uni0417" unicode="&#x417;" horiz-adv-x="1118" 
d="M528 158q116 0 198 70q83 70 83 187t-75 181t-195 63h-179v168h144q112 0 186 66t74 167t-65 167t-191 65q-178 0 -324 -123l-86 152q180 150 439 149q190 0 312 -103t122 -282q0 -221 -209 -325v-4q118 -33 186 -124t68 -222q0 -197 -140 -316t-352 -119q-133 1 -259 53
t-210 144l113 137q60 -67 152 -109t208 -42z" />
    <glyph glyph-name="uni0418" unicode="&#x418;" horiz-adv-x="1540" 
d="M190 0v1446h203v-938l-12 -211h4q72 135 123 213l641 936h199v-1446h-201v938l12 211h-4q-70 -131 -121 -211l-645 -938h-199z" />
    <glyph glyph-name="uni0419" unicode="&#x419;" horiz-adv-x="1540" 
d="M190 0v1446h203v-938l-12 -211h4q72 135 123 213l641 936h199v-1446h-201v938l12 211h-4q-70 -131 -121 -211l-645 -938h-199zM777 1513q-126 0 -215 71t-89 192v30h160v-28q0 -64 43 -100t101 -36t102 36q43 36 43 102v26h157v-30q0 -121 -88 -192t-214 -71z" />
    <glyph glyph-name="uni041A" unicode="&#x41a;" horiz-adv-x="1257" 
d="M190 0v1446h203v-608h215l367 608h223l-422 -686v-4l449 -756h-232l-385 662h-215v-662h-203z" />
    <glyph glyph-name="uni041B" unicode="&#x41b;" horiz-adv-x="1388" 
d="M354 1446h844v-1446h-203v1270h-448v-168q0 -550 -118 -826t-404 -292v186q178 25 254 252t75 682v342z" />
    <glyph glyph-name="uni041C" unicode="&#x41c;" horiz-adv-x="1742" 
d="M135 0l119 1446h211l334 -782l69 -195h4q39 115 72 195l334 782h211l117 -1446h-201l-70 911l-4 213h-4q-45 -133 -78 -213l-288 -651h-181l-286 651l-78 217h-4q4 -129 -4 -217l-70 -911h-203z" />
    <glyph glyph-name="uni041D" unicode="&#x41d;" horiz-adv-x="1536" 
d="M190 0v1446h203v-635h752v635h201v-1446h-201v635h-752v-635h-203z" />
    <glyph glyph-name="uni041E" unicode="&#x41e;" horiz-adv-x="1685" 
d="M309 728q0 -238 156 -402t379 -164t378 165q154 165 154 402t-154 397q-155 160 -378 160t-379 -160t-156 -398zM100 729q0 315 215 528t529 213t527 -213q214 -213 214 -528t-214 -534t-527 -219q-312 0 -528 218q-216 220 -216 535z" />
    <glyph glyph-name="uni041F" unicode="&#x41f;" horiz-adv-x="1519" 
d="M190 0v1446h1139v-1446h-203v1270h-733v-1270h-203z" />
    <glyph glyph-name="uni0420" unicode="&#x420;" horiz-adv-x="1236" 
d="M393 711h295q129 -1 205 75t76 206t-75 204t-204 74h-297v-559zM190 0v1446h531q201 0 327 -124t126 -329t-127 -331t-326 -127h-328v-535h-203z" />
    <glyph glyph-name="uni0421" unicode="&#x421;" horiz-adv-x="1468" 
d="M102 728q0 320 208 532t533 210q325 0 523 -190l-102 -152q-80 72 -194 115t-224 43q-246 0 -390 -158t-144 -396t146 -404q148 -166 392 -166q121 0 239 50t205 138l109 -145q-229 -229 -559 -229t-536 215q-206 217 -206 537z" />
    <glyph glyph-name="uni0422" unicode="&#x422;" horiz-adv-x="1259" 
d="M528 0v1270h-497v176h1196v-176h-498v-1270h-201z" />
    <glyph glyph-name="uni0423" unicode="&#x423;" horiz-adv-x="1226" 
d="M154 70l92 153q94 -71 160 -71t101 40q36 40 68 121l-571 1133h223l353 -727l82 -191h4q31 100 61 189l268 729h213l-460 -1180q-115 -291 -330 -291q-129 1 -264 95z" />
    <glyph glyph-name="uni0424" unicode="&#x424;" horiz-adv-x="1703" 
d="M752 1198q-211 0 -338 -116t-127 -314q0 -200 127 -318t338 -118v866zM954 332q211 0 338 119t127 317t-127 314t-338 116v-866zM80 768q0 272 185 437t487 165v166h202v-166q300 0 486 -165t186 -437t-185 -440t-487 -168v-185h-202v185q-301 0 -487 168
q-185 168 -185 440z" />
    <glyph glyph-name="uni0425" unicode="&#x425;" horiz-adv-x="1224" 
d="M33 0l454 745l-426 701h232l227 -391l90 -168h4q43 88 91 168l229 391h233l-430 -701l457 -745h-227l-265 444l-90 166h-4q-43 -86 -88 -166l-262 -444h-225z" />
    <glyph glyph-name="uni0426" unicode="&#x426;" horiz-adv-x="1550" 
d="M190 0v1446h203v-1270h709v1270h203v-1270h165v-463h-182v287h-1098z" />
    <glyph glyph-name="uni0427" unicode="&#x427;" horiz-adv-x="1308" 
d="M524 555q-202 0 -311 109t-109 313v469h205v-426q0 -139 66 -210q65 -71 227 -71t309 99v608h205v-1446h-205v586l4 67h-4q-185 -98 -387 -98z" />
    <glyph glyph-name="uni0428" unicode="&#x428;" horiz-adv-x="2058" 
d="M190 0v1446h203v-1270h535v1270h202v-1270h535v1270h201v-1446h-1676z" />
    <glyph glyph-name="uni0429" unicode="&#x429;" horiz-adv-x="2121" 
d="M190 0v1446h203v-1270h535v1270h202v-1270h535v1270h201v-1270h178v-463h-184v287h-1670z" />
    <glyph glyph-name="uni042A" unicode="&#x42a;" horiz-adv-x="1406" 
d="M596 176h281q121 0 191 72t69 198q0 126 -72 203q-72 76 -193 76h-276v-549zM393 0v1270h-377v176h580v-545h305q195 0 318 -122t123 -328q0 -207 -122 -329q-120 -122 -311 -122h-516z" />
    <glyph glyph-name="uni042B" unicode="&#x42b;" horiz-adv-x="1728" 
d="M393 176h275q122 0 190 72t68 198t-71 203q-71 76 -191 76h-271v-549zM190 0v1446h203v-545h297q195 0 318 -122q122 -122 122 -328q0 -207 -120 -329t-310 -122h-510zM1335 0v1446h201v-1446h-201z" />
    <glyph glyph-name="uni042C" unicode="&#x42c;" horiz-adv-x="1206" 
d="M393 176h281q124 0 192 72t68 198t-71 203q-71 76 -191 76h-279v-549zM190 0v1446h203v-545h307q195 0 318 -122t123 -328q0 -207 -121 -329t-311 -122h-519z" />
    <glyph glyph-name="uni042D" unicode="&#x42d;" horiz-adv-x="1466" 
d="M625 160q213 0 357 137t169 344h-756v168h758q-19 209 -165 343t-374 134t-415 -162l-101 152q94 94 238 144t295 50q327 0 531 -210t204 -531t-210 -537t-531 -217q-161 0 -307 60t-250 162l106 141q78 -80 200 -129t251 -49z" />
    <glyph glyph-name="uni042E" unicode="&#x42e;" horiz-adv-x="2183" 
d="M1356 1284q-216 0 -364 -160q-150 -160 -150 -396t150 -400q150 -166 364 -166t366 166t152 401t-151 395t-367 160zM190 0v1446h203v-635h246q25 283 228 471q204 188 500 188t506 -213t210 -528t-210 -534t-504 -219t-495 186q-201 188 -231 473h-250v-635h-203z" />
    <glyph glyph-name="uni042F" unicode="&#x42f;" horiz-adv-x="1273" 
d="M602 748h279v522h-230q-127 0 -188 -33q-117 -66 -117 -219q0 -126 68 -198t188 -72zM139 1020q-1 144 61 242t160 141t277 43h446v-1446h-202v575h-267l-340 -575h-227l324 539l43 67v4q-137 49 -206 158t-69 252z" />
    <glyph glyph-name="uni0430" unicode="&#x430;" horiz-adv-x="1077" 
d="M266 299q0 -68 51 -117t144 -49q123 1 201 103t77 227v39h-51q-422 0 -422 -203zM68 271q0 127 63 205q100 122 365 157q90 12 190 12h53v21q0 227 -227 227q-150 0 -291 -100l-80 145q63 53 172 88t215 35q197 -1 303 -105t107 -301v-655h-186v104l6 82h-4
q-46 -92 -138 -151t-218 -59t-228 83q-102 85 -102 212z" />
    <glyph glyph-name="uni0431" unicode="&#x431;" horiz-adv-x="1200" 
d="M315 460q0 -144 84 -230q84 -87 210 -87t211 87q85 88 85 234t-84 234t-210 88t-211 -91t-85 -235zM109 599q0 286 102 460t364 284l371 160l66 -164l-398 -165q-156 -72 -232 -169t-87 -245h4q123 184 367 184q196 0 318 -130t122 -347t-135 -354t-371 -137t-364 168
q-128 169 -127 455z" />
    <glyph glyph-name="uni0432" unicode="&#x432;" horiz-adv-x="1064" 
d="M352 139h213q104 0 158 43q53 43 53 120t-55 120t-158 43h-211v-326zM352 598h195q88 0 133 42t45 116q0 143 -184 143h-189v-301zM154 0v1036h428q160 0 253 -68t93 -198q0 -76 -39 -136t-109 -91v-2q94 -23 146 -90q51 -68 51 -156q1 -141 -103 -218t-278 -77h-442z
" />
    <glyph glyph-name="uni0433" unicode="&#x433;" horiz-adv-x="845" 
d="M154 0v1036h649v-170h-451v-866h-198z" />
    <glyph glyph-name="uni0434" unicode="&#x434;" horiz-adv-x="1216" 
d="M25 164h127q162 221 161 682v190h701v-872h147v-410h-182v246h-768v-246h-186v410zM815 164v710h-311v-55q-1 -426 -148 -655h459z" />
    <glyph glyph-name="uni0435" unicode="&#x435;" horiz-adv-x="1140" 
d="M299 635h555q-4 129 -75 201t-183 72t-194 -74q-83 -72 -103 -199zM637 -25q-243 0 -397 155q-154 156 -154 394t147 388t365 149q218 0 338 -138q119 -138 119 -348q0 -27 -8 -83h-754q8 -162 109 -253t259 -91t293 120l84 -145q-74 -68 -184 -108t-217 -40z" />
    <glyph glyph-name="uni0436" unicode="&#x436;" horiz-adv-x="1540" 
d="M676 612v424h188v-424h148l256 424h209l-303 -499v-5l333 -532h-223l-270 442h-150v-442h-188v442h-148l-272 -442h-221l334 532v5l-306 499h211l254 -424h148z" />
    <glyph glyph-name="uni0437" unicode="&#x437;" horiz-adv-x="917" 
d="M416 135q94 0 154 44t61 126q0 158 -213 158h-127v143h108q197 0 197 150q0 72 -49 110t-135 39q-131 0 -252 -90l-74 133q152 113 360 113q154 0 252 -74t99 -207q0 -172 -152 -235v-4q186 -59 186 -244q1 -154 -113 -238t-284 -84q-221 0 -381 152l92 131
q117 -123 271 -123z" />
    <glyph glyph-name="uni0438" unicode="&#x438;" horiz-adv-x="1224" 
d="M154 0v1036h190v-618q0 -109 -6 -139h4q10 25 92 139l447 618h192v-1036h-192v618l6 138h-4q-2 -4 -90 -138l-449 -618h-190z" />
    <glyph glyph-name="uni0439" unicode="&#x439;" horiz-adv-x="1224" 
d="M154 0v1036h190v-618q0 -109 -6 -139h4q10 25 92 139l447 618h192v-1036h-192v618l6 138h-4q-2 -4 -90 -138l-449 -618h-190zM913 1417q0 -121 -88 -191t-214 -71q-126 0 -215 71t-89 191v31h160v-29q0 -63 43 -99t101 -36t102 36q43 36 43 101v27h157v-31z" />
    <glyph glyph-name="uni043A" unicode="&#x43a;" horiz-adv-x="1069" 
d="M154 0v1036h198v-418h146l282 418h226l-347 -493v-4l388 -539h-236l-309 449h-150v-449h-198z" />
    <glyph glyph-name="uni043B" unicode="&#x43b;" horiz-adv-x="1122" 
d="M274 717v319h695v-1036h-199v872h-305v-155q0 -358 -99 -537q-100 -178 -325 -190v178q117 18 175 146t58 403z" />
    <glyph glyph-name="uni043C" unicode="&#x43c;" horiz-adv-x="1495" 
d="M111 0l90 1036h221l264 -585l57 -140h5q31 76 57 140l270 585h217l90 -1036h-192l-45 616l2 179h-4q-27 -72 -66 -152l-246 -518h-169l-246 516l-66 154h-4l2 -179l-45 -616h-192z" />
    <glyph glyph-name="uni043D" unicode="&#x43d;" horiz-adv-x="1228" 
d="M154 0v1036h198v-422h525v422h198v-1036h-198v444h-525v-444h-198z" />
    <glyph glyph-name="uni043E" unicode="&#x43e;" horiz-adv-x="1288" 
d="M289 519q0 -161 103 -266q104 -105 252 -105t252 106t105 266q0 160 -104 264t-253 104t-252 -104t-103 -265zM86 519q0 232 162 387t396 155t396 -154t162 -387t-162 -389t-395 -156t-396 156t-163 388z" />
    <glyph glyph-name="uni043F" unicode="&#x43f;" horiz-adv-x="1212" 
d="M154 0v1036h905v-1036h-199v866h-508v-866h-198z" />
    <glyph glyph-name="uni0440" unicode="&#x440;" horiz-adv-x="1230" 
d="M346 532q0 -166 79 -275q79 -110 210 -110q131 -1 217 99t86 269t-81 270t-210 101t-215 -94t-86 -260zM154 -410v1446h184v-92l-6 -78h4q49 92 141 144t207 51q209 0 332 -150q123 -151 123 -395t-131 -392t-338 -148t-322 176h-4q8 -37 8 -91v-471h-198z" />
    <glyph glyph-name="uni0441" unicode="&#x441;" horiz-adv-x="1116" 
d="M641 -25q-243 -1 -399 153t-156 388t157 389q157 156 401 156t386 -152l-94 -139q-119 119 -281 119q-162 1 -264 -105t-102 -265t103 -265t263 -107q86 0 173 38t147 102l80 -146q-72 -76 -183 -121t-231 -45z" />
    <glyph glyph-name="uni0442" unicode="&#x442;" horiz-adv-x="1003" 
d="M403 0v866h-360v170h920v-170h-363v-866h-197z" />
    <glyph glyph-name="uni0443" unicode="&#x443;" horiz-adv-x="1095" 
d="M221 -260q125 0 189 154l51 118l-434 1024h223l260 -678l39 -125h4q16 70 35 123l252 680h215l-488 -1222q-45 -120 -134 -182t-202 -62q-51 0 -100 16t-74 33l-24 14l69 152q57 -45 119 -45z" />
    <glyph glyph-name="uni0444" unicode="&#x444;" horiz-adv-x="1486" 
d="M285 521q0 -165 101 -267t263 -113v754q-164 -9 -264 -109t-100 -265zM1204 521q0 165 -101 264t-263 110v-754q162 11 263 113t101 267zM88 518q0 234 158 382t403 159v375h191v-375q246 -11 402 -157t157 -382q0 -236 -157 -386t-402 -159v-385h-191v385
q-245 9 -403 159t-158 384z" />
    <glyph glyph-name="uni0445" unicode="&#x445;" horiz-adv-x="1021" 
d="M35 0l354 532l-334 504h228l192 -315l33 -62h4q20 35 35 62l192 315h228l-334 -504l354 -532h-225l-250 401h-4q-14 -31 -31 -55l-217 -346h-225z" />
    <glyph glyph-name="uni0446" unicode="&#x446;" horiz-adv-x="1249" 
d="M154 0v1036h198v-864h494v864h201v-864h145v-418h-182v246h-856z" />
    <glyph glyph-name="uni0447" unicode="&#x447;" horiz-adv-x="1071" 
d="M432 360q-164 0 -254 87t-90 251v338h195v-309q0 -88 45 -141q44 -54 166 -54t225 74v430h199v-1036h-199v375l2 61h-4q-121 -76 -285 -76z" />
    <glyph glyph-name="uni0448" unicode="&#x448;" horiz-adv-x="1646" 
d="M154 0v1036h190v-864h383v864h193v-864h383v864h190v-1036h-1339z" />
    <glyph glyph-name="uni0449" unicode="&#x449;" horiz-adv-x="1697" 
d="M154 0v1036h190v-864h383v864h193v-864h383v864h190v-864h147v-418h-182v246h-1304z" />
    <glyph glyph-name="uni044A" unicode="&#x44a;" horiz-adv-x="1144" 
d="M500 143h178q102 1 153 51t51 137t-49 137q-50 50 -155 50h-178v-375zM301 0v866h-281v170h480v-374h209q170 0 272 -83t102 -243t-94 -248t-282 -88h-406z" />
    <glyph glyph-name="uni044B" unicode="&#x44b;" horiz-adv-x="1443" 
d="M352 143h174q102 1 154 51t51 136q0 86 -51 137t-156 51h-172v-375zM154 0v1036h198v-374h203q172 0 274 -83q103 -83 103 -243t-95 -248t-284 -88h-399zM1092 0v1036h198v-1036h-198z" />
    <glyph glyph-name="uni044C" unicode="&#x44c;" horiz-adv-x="997" 
d="M352 143h178q102 1 154 51t51 137q0 87 -50 137t-155 50h-178v-375zM154 0v1036h198v-374h209q173 0 275 -83t102 -243t-95 -248t-286 -88h-403z" />
    <glyph glyph-name="uni044D" unicode="&#x44d;" horiz-adv-x="1114" 
d="M465 139q143 0 245 85q101 85 121 222h-495v144h495q-20 139 -120 224t-256 85t-283 -121l-90 137q66 72 174 109t221 37q241 0 395 -155q154 -156 154 -390t-155 -388t-401 -153q-246 0 -409 156l78 141q131 -133 326 -133z" />
    <glyph glyph-name="uni044E" unicode="&#x44e;" horiz-adv-x="1695" 
d="M733 519q0 -161 97 -266q98 -105 240 -105t240 104q98 106 97 267q0 161 -97 265q-98 104 -240 104t-240 -104t-97 -265zM154 0v1036h198v-434h189q29 201 176 330t363 129t373 -154t157 -387t-156 -389t-372 -156t-364 130t-177 333h-189v-438h-198z" />
    <glyph glyph-name="uni044F" unicode="&#x44f;" horiz-adv-x="1048" 
d="M524 520h172v379h-166q-219 0 -219 -186q-1 -93 59 -143t154 -50zM481 1036h414v-1036h-199v375h-174l-254 -375h-219l287 408v2q-94 28 -160 108t-65 193q0 157 101 241t269 84z" />
    <glyph glyph-name="uni0450" unicode="&#x450;" horiz-adv-x="1140" 
d="M549 1188l-195 260h213l150 -260h-168zM299 635h555q-4 129 -75 201t-183 72t-194 -74q-83 -72 -103 -199zM637 -25q-243 0 -397 155q-154 156 -154 394t147 388t365 149q218 0 338 -138q119 -138 119 -348q0 -27 -8 -83h-754q8 -162 109 -253t259 -91t293 120l84 -145
q-74 -68 -184 -108t-217 -40z" />
    <glyph glyph-name="uni0451" unicode="&#x451;" horiz-adv-x="1140" 
d="M299 635h555q-4 129 -75 201t-183 72t-194 -74q-83 -72 -103 -199zM637 -25q-243 0 -397 155q-154 156 -154 394t147 388t365 149q218 0 338 -138q119 -138 119 -348q0 -27 -8 -83h-754q8 -162 109 -253t259 -91t293 120l84 -145q-74 -68 -184 -108t-217 -40zM342 1241
v207h164v-207h-164zM686 1241v207h162v-207h-162z" />
    <glyph glyph-name="uni0452" unicode="&#x452;" horiz-adv-x="1234" 
d="M154 0v1133h-129v145h129v168h198v-168h422v-145h-422v-334l-4 -86h4q40 87 142 159t243 72q354 0 355 -397v-555q0 -102 -29 -182t-70 -124t-112 -80t-172 -36l-84 6v170q27 -4 78 -4t100 33q88 59 90 217v510q0 124 -40 192t-156 68q-115 0 -205 -72
q-137 -110 -140 -321v-369h-198z" />
    <glyph glyph-name="uni0453" unicode="&#x453;" horiz-adv-x="845" 
d="M154 0v1036h649v-170h-451v-866h-198zM352 1188l148 260h215l-197 -260h-166z" />
    <glyph glyph-name="uni0454" unicode="&#x454;" horiz-adv-x="1116" 
d="M86 516q0 234 157 389q157 156 398 156q117 0 215 -37t137 -74l39 -35l-92 -139q-12 12 -36 32t-100 54q-76 33 -157 33q-143 0 -243 -81t-121 -216h493v-143h-495q18 -143 120 -229t252 -87q90 0 171 35t118 72l37 35l78 -144q-105 -105 -269 -144q-72 -17 -147 -18
q-243 -1 -399 153t-156 388z" />
    <glyph glyph-name="uni0455" unicode="&#x455;" horiz-adv-x="915" 
d="M465 141q80 0 128 36t48 94q0 57 -55 97t-133 68t-156 64t-133 102t-55 160q0 141 106 220t266 79q209 0 336 -115l-80 -143q-45 43 -117 67t-149 25q-76 0 -124 -33t-48 -92t55 -98t133 -67q78 -29 157 -63t134 -101t56 -160q0 -133 -104 -219t-269 -87q-245 0 -395 152
l94 135q125 -121 305 -121z" />
    <glyph glyph-name="uni0456" unicode="&#x456;" horiz-adv-x="503" 
d="M154 0v1036h198v-1036h-198zM150 1245v201h204v-201h-204z" />
    <glyph glyph-name="uni0457" unicode="&#x457;" horiz-adv-x="503" 
d="M154 0v1036h198v-1036h-198zM2 1241v207h164v-207h-164zM346 1241v207h162v-207h-162z" />
    <glyph glyph-name="uni0458" unicode="&#x458;" horiz-adv-x="503" 
d="M154 -23v1059h198v-1071q0 -98 -30 -172t-71 -114q-106 -101 -296 -101q-20 0 -70 4v170q20 -4 51 -4t64 8q96 23 131 101q23 48 23 120zM150 1245v201h204v-201h-204z" />
    <glyph glyph-name="uni0459" unicode="&#x459;" horiz-adv-x="1542" 
d="M903 143h182q102 0 153 47q50 47 50 130q0 82 -50 132t-153 50h-182v-359zM289 1036h614v-389h205q172 0 274 -81q102 -82 102 -238t-94 -242q-95 -86 -286 -86h-399v872h-226v-157q-1 -369 -99 -541t-327 -184v178q121 16 178 143t58 398v327z" />
    <glyph glyph-name="uni045A" unicode="&#x45a;" horiz-adv-x="1673" 
d="M1034 143h183q205 0 204 179q0 174 -213 174h-174v-353zM154 0v1036h198v-395h484v395h198v-397h197q172 0 278 -79q107 -80 107 -234t-95 -240t-286 -86h-399v481h-484v-481h-198z" />
    <glyph glyph-name="uni045B" unicode="&#x45b;" horiz-adv-x="1234" 
d="M154 0v1133h-129v145h129v168h198v-168h422v-145h-422v-334l-4 -86h4q40 91 142 161t243 70q183 0 269 -98t86 -297v-549h-199v504q0 126 -40 192t-156 66q-115 0 -205 -71q-137 -109 -140 -322v-369h-198z" />
    <glyph glyph-name="uni045C" unicode="&#x45c;" horiz-adv-x="1069" 
d="M154 0v1036h198v-418h146l282 418h226l-347 -493v-4l388 -539h-236l-309 449h-150v-449h-198zM444 1188l148 260h215l-197 -260h-166z" />
    <glyph glyph-name="uni045D" unicode="&#x45d;" horiz-adv-x="1224" 
d="M571 1188l-194 260h213l149 -260h-168zM154 0v1036h190v-618q0 -109 -6 -139h4q10 25 92 139l447 618h192v-1036h-192v618l6 138h-4q-2 -4 -90 -138l-449 -618h-190z" />
    <glyph glyph-name="uni045E" unicode="&#x45e;" horiz-adv-x="1095" 
d="M852 1417q0 -121 -88 -191t-214 -71q-126 0 -215 71t-89 191v31h160v-29q0 -63 43 -99t101 -36t101 36t43 101v27h158v-31zM221 -260q125 0 189 154l51 118l-434 1024h223l260 -678l39 -125h4q16 70 35 123l252 680h215l-488 -1222q-45 -120 -134 -182t-202 -62
q-51 0 -100 16t-74 33l-24 14l69 152q57 -45 119 -45z" />
    <glyph glyph-name="uni045F" unicode="&#x45f;" horiz-adv-x="1177" 
d="M154 0v1036h198v-864h473v864h197v-1036h-342v-246h-182v246h-344z" />
    <glyph glyph-name="uni0462" unicode="&#x462;" horiz-adv-x="1411" 
d="M590 176h278q123 0 198 70t75 188t-76 188q-76 69 -199 68h-276v-514zM389 0v1104h-364v162h366v211h199v-211h418v-162h-418v-238h309q197 0 323 -116t126 -313t-126 -317t-321 -120h-512z" />
    <glyph glyph-name="uni0463" unicode="&#x463;" horiz-adv-x="1095" 
d="M444 143h185q104 1 155 51t52 136q0 86 -52 137t-155 51h-185v-375zM246 0v940h-248v150h248v356h198v-356h340v-150h-340v-278h215q171 0 273 -83t102 -243t-94 -248t-283 -88h-411z" />
    <glyph glyph-name="uni0472" unicode="&#x472;" horiz-adv-x="1685" 
d="M843 1290q-208 0 -358 -135t-176 -344h1067q-27 209 -176 344t-357 135zM844 156q209 0 357 139t175 354h-1067q29 -215 177 -354t358 -139zM1585 728q0 -318 -212 -534q-212 -218 -529 -218q-316 0 -530 217t-214 535t213 530t531 212t529 -212q212 -212 212 -530z" />
    <glyph glyph-name="uni0473" unicode="&#x473;" horiz-adv-x="1288" 
d="M644 907q-140 0 -244 -89t-124 -230h736q-20 141 -124 230t-244 89zM645 129q141 0 245 92q103 92 124 240h-738q18 -147 123 -239t246 -93zM86 519q0 232 162 387t396 155t396 -154t162 -387t-162 -389t-395 -156t-396 156t-163 388z" />
    <glyph glyph-name="uni0474" unicode="&#x474;" horiz-adv-x="1409" 
d="M1247 1446h135v-178h-47q-43 0 -59 -1q-51 -3 -70 -36q-20 -33 -35 -74l-405 -1157h-213l-528 1446h219l358 -1022l55 -199h5q29 121 55 199l289 860q35 104 81 133q47 29 160 29z" />
    <glyph glyph-name="uni0475" unicode="&#x475;" horiz-adv-x="1155" 
d="M999 1036h117v-174h-45q-67 0 -97 -22t-54 -90l-265 -750h-229l-387 1036h209l252 -700l37 -141h4q18 84 37 141l172 514q35 104 89 145t160 41z" />
    <glyph glyph-name="uni048A" unicode="&#x48a;" horiz-adv-x="1617" 
d="M781 1513q-126 0 -215 71t-89 192v30h160v-28q0 -64 43 -100t101 -36t102 36q43 36 43 102v26h157v-30q0 -121 -88 -192t-214 -71zM190 0v1446h203v-938l-12 -211h4q72 135 123 213l641 936h199v-1270h223v-117l-148 -346h-147l86 287h-215v938l12 211h-4
q-70 -131 -121 -211l-645 -938h-199z" />
    <glyph glyph-name="uni048B" unicode="&#x48b;" horiz-adv-x="1310" 
d="M924 1417q0 -121 -88 -191t-214 -71q-126 0 -215 71t-90 191v31h160v-29q0 -63 43 -99q44 -36 102 -36t101 36t43 101v27h158v-31zM154 0v1036h190v-618q0 -109 -6 -139h4q10 25 92 139l447 618h192v-866h189v-113l-127 -303h-142l74 246h-186v618l6 138h-4
q-2 -4 -90 -138l-449 -618h-190z" />
    <glyph glyph-name="uni048C" unicode="&#x48c;" horiz-adv-x="1386" 
d="M557 176h289q124 0 198 70t74 192t-76 192q-76 71 -198 70h-287v-524zM354 0v1167h-331v158h335v211h199v-211h377v-158h-377v-290h322q195 0 321 -120t125 -318q0 -199 -126 -319t-318 -120h-527z" />
    <glyph glyph-name="uni048D" unicode="&#x48d;" horiz-adv-x="1105" 
d="M455 143h184q103 1 155 51t52 136t-51 137t-156 51h-184v-375zM256 0v940h-248v150h248v356h199v-356h340v-150h-340v-278h215q170 0 272 -83t102 -243t-94 -248t-282 -88h-412z" />
    <glyph glyph-name="uni048E" unicode="&#x48e;" horiz-adv-x="1273" 
d="M983 998q0 120 -76 196t-211 76h-303v-576h301q68 0 119 19l-139 184l114 92l142 -188q53 77 53 197zM190 0v1446h531q201 0 327 -124t126 -332t-134 -335l121 -159l-110 -93l-131 170q-94 -39 -199 -38h-328v-535h-203z" />
    <glyph glyph-name="uni048F" unicode="&#x48f;" horiz-adv-x="1247" 
d="M952 528q0 154 -83 256t-216 102t-220 -93q-87 -95 -87 -265t80 -278t221 -109q78 0 144 37l-140 170l111 96l133 -161q57 91 57 245zM154 -410v1446h184v-92l-6 -78h4l11 22q7 13 37 46q115 127 312 127t320 -150t123 -388t-121 -388l112 -133l-110 -96l-113 133
q-109 -63 -236 -63t-209 60q-82 61 -102 97l-12 19h-4q8 -37 8 -91v-471h-198z" />
    <glyph glyph-name="uni0490" unicode="&#x490;" horiz-adv-x="1030" 
d="M190 0v1446h644v199h170v-375h-611v-1270h-203z" />
    <glyph glyph-name="uni0491" unicode="&#x491;" horiz-adv-x="845" 
d="M154 0v1036h491v187h160v-357h-453v-866h-198z" />
    <glyph glyph-name="uni0492" unicode="&#x492;" horiz-adv-x="1036" 
d="M203 0v633h-125v149h125v664h794v-176h-594v-488h328v-149h-328v-633h-200z" />
    <glyph glyph-name="uni0493" unicode="&#x493;" horiz-adv-x="860" 
d="M160 0v426h-127v135h127v475h651v-170h-453v-305h265v-135h-265v-426h-198z" />
    <glyph glyph-name="uni0494" unicode="&#x494;" horiz-adv-x="1251" 
d="M190 0v1446h799v-176h-596v-467q127 59 279 59q496 0 495 -581q0 -330 -140 -488t-384 -158v166q313 0 313 480q0 215 -77 310q-78 95 -246 95q-109 0 -240 -55v-631h-203z" />
    <glyph glyph-name="uni0495" unicode="&#x495;" horiz-adv-x="1030" 
d="M154 0v1036h663v-162h-465v-335q113 51 228 51q200 0 292 -127t93 -313q0 -373 -310 -574l-96 139q213 141 213 425t-231 284q-102 0 -189 -53v-371h-198z" />
    <glyph glyph-name="uni0496" unicode="&#x496;" horiz-adv-x="1921" 
d="M813 838v608h201v-608h190l336 608h221l-391 -686v-4l324 -580h196v-463h-182v287h-145l-359 662h-190v-662h-201v662h-188l-361 -662h-227l420 756v4l-391 686h221l338 -608h188z" />
    <glyph glyph-name="uni0497" unicode="&#x497;" horiz-adv-x="1622" 
d="M676 612v424h188v-424h148l256 424h209l-303 -499v-5l225 -360h184v-418h-182v246h-117l-270 442h-150v-442h-188v442h-148l-272 -442h-221l334 532v5l-306 499h211l254 -424h148z" />
    <glyph glyph-name="uni0498" unicode="&#x498;" horiz-adv-x="1122" 
d="M528 158q116 0 198 70q83 70 83 187t-75 181t-195 63h-179v168h144q112 0 186 66t74 167t-65 167t-191 65q-178 0 -324 -123l-86 152q180 150 439 149q190 0 312 -103t122 -282q0 -221 -209 -325v-4q118 -33 186 -124t68 -222q0 -172 -110 -286t-281 -140v-271h-185v269
q-244 30 -385 190l113 137q60 -67 152 -109t208 -42z" />
    <glyph glyph-name="uni0499" unicode="&#x499;" horiz-adv-x="921" 
d="M416 135q94 0 154 44t61 126q0 158 -213 158h-127v143h108q197 0 197 150q0 72 -49 110t-135 39q-131 0 -252 -90l-74 133q152 113 360 113q154 0 252 -74t99 -207q0 -172 -152 -235v-4q186 -59 186 -244q1 -127 -79 -207t-209 -104v-232h-178v226q-185 22 -312 147
l92 131q117 -123 271 -123z" />
    <glyph glyph-name="uni049A" unicode="&#x49a;" horiz-adv-x="1349" 
d="M190 0v1446h203v-608h215l367 608h223l-422 -686v-4l344 -580h199v-463h-182v287h-144l-385 662h-215v-662h-203z" />
    <glyph glyph-name="uni049B" unicode="&#x49b;" horiz-adv-x="1140" 
d="M154 0v1036h198v-418h146l282 418h226l-347 -493v-4l263 -367h182v-418h-182v246h-111l-309 449h-150v-449h-198z" />
    <glyph glyph-name="uni049C" unicode="&#x49c;" horiz-adv-x="1437" 
d="M190 0v1446h203v-608h146v245h151v-245h98l365 608h223l-420 -686v-4l449 -756h-231l-386 662h-98v-248h-151v248h-146v-662h-203z" />
    <glyph glyph-name="uni049D" unicode="&#x49d;" horiz-adv-x="1224" 
d="M154 0v1036h198v-418h111v209h143v-209h47l283 418h225l-344 -493v-4l385 -539h-233l-310 449h-53v-213h-143v213h-111v-449h-198z" />
    <glyph glyph-name="uni049E" unicode="&#x49e;" horiz-adv-x="1267" 
d="M33 1075v146h164v225h202v-225h195v-146h-195v-237h215l367 608h223l-422 -686v-4l449 -756h-232l-385 662h-215v-662h-202v1075h-164z" />
    <glyph glyph-name="uni049F" unicode="&#x49f;" horiz-adv-x="1069" 
d="M154 0v1083h-127v140h127v223h198v-223h232v-140h-232v-436h148l280 389h226l-344 -465v-4l382 -567h-231l-309 475h-152v-475h-198z" />
    <glyph glyph-name="uni04A0" unicode="&#x4a0;" horiz-adv-x="1536" 
d="M469 0v1270h-434v176h635v-608h217l364 608h224l-422 -686v-4l448 -756h-229l-385 662h-217v-662h-201z" />
    <glyph glyph-name="uni04A1" unicode="&#x4a1;" horiz-adv-x="1214" 
d="M301 0v866h-281v170h480v-418h145l283 418h223l-344 -493v-4l387 -539h-236l-309 449h-149v-449h-199z" />
    <glyph glyph-name="uni04A2" unicode="&#x4a2;" horiz-adv-x="1607" 
d="M190 0v1446h203v-635h752v635h201v-1270h200v-463h-184v287h-217v635h-752v-635h-203z" />
    <glyph glyph-name="uni04A3" unicode="&#x4a3;" horiz-adv-x="1296" 
d="M154 0v1036h198v-422h525v422h198v-864h174v-418h-182v246h-190v444h-525v-444h-198z" />
    <glyph glyph-name="uni04A4" unicode="&#x4a4;" horiz-adv-x="1908" 
d="M190 0v1446h203v-635h692v635h795v-176h-594v-1270h-201v635h-692v-635h-203z" />
    <glyph glyph-name="uni04A5" unicode="&#x4a5;" horiz-adv-x="1490" 
d="M154 0v1036h198v-422h477v422h619v-170h-420v-866h-199v444h-477v-444h-198z" />
    <glyph glyph-name="uni04A6" unicode="&#x4a6;" horiz-adv-x="2041" 
d="M190 0v1446h1004v-623q127 59 279 60q494 0 493 -602q0 -645 -522 -646v166q313 0 313 480q0 229 -78 331t-245 103q-104 0 -240 -58v-657h-201v1272h-600v-1272h-203z" />
    <glyph glyph-name="uni04A7" unicode="&#x4a7;" horiz-adv-x="1671" 
d="M154 0v1036h813v-438q111 53 229 53q201 0 306 -134t106 -337q0 -395 -310 -604l-96 139q213 145 213 455t-250 311q-111 0 -198 -53v-428h-199v866h-416v-866h-198z" />
    <glyph glyph-name="uni04A8" unicode="&#x4a8;" horiz-adv-x="1916" 
d="M954 854q0 -192 77 -338t218 -233q156 99 249 249t93 334t-89 290t-220 106q-132 0 -230 -108t-98 -300zM104 745q0 154 49 285q81 220 289 360q86 56 176 80l70 -182q-156 -53 -268 -193t-111 -369q1 -228 141 -396t392 -168q115 0 225 35q-152 113 -237 277t-85 364
q0 280 158 444t382 164q223 0 369 -160t146 -434q0 -186 -94 -357t-256 -298q111 -29 236 -29h96v-168h-99q-215 0 -413 80q-205 -104 -430 -105q-324 0 -530 212t-206 558z" />
    <glyph glyph-name="uni04A9" unicode="&#x4a9;" horiz-adv-x="1601" 
d="M1303 636q0 124 -66 196q-65 72 -175 71t-182 -79t-71 -201q0 -123 63 -223t177 -160q115 68 185 170t69 226zM88 535q0 207 113 341t262 185l67 -162q-104 -43 -179 -138t-75 -246t104 -263t308 -113q90 0 178 25q-246 176 -245 457q0 186 124 313q125 127 319 127
t310 -117t117 -299q0 -264 -256 -473q72 -14 160 -14h108v-158h-100q-178 0 -344 61q-178 -86 -373 -86q-282 0 -440 158t-158 402z" />
    <glyph glyph-name="uni04AA" unicode="&#x4aa;" horiz-adv-x="1468" 
d="M102 742q0 306 208 518t533 210q325 0 523 -190l-102 -152q-80 72 -194 115t-224 43q-246 0 -390 -158t-144 -396t146 -404q148 -166 392 -166q121 0 239 50t205 138l109 -145q-205 -205 -490 -225v-267h-184v271q-285 36 -456 244t-171 514z" />
    <glyph glyph-name="uni04AB" unicode="&#x4ab;" horiz-adv-x="1118" 
d="M86 530q0 219 157 375t401 156t386 -152l-94 -139q-119 119 -281 119q-162 1 -264 -105t-102 -265t103 -265t263 -107q86 0 173 38t147 102l80 -146q-129 -135 -346 -161v-226h-179v232q-200 33 -322 179t-122 365z" />
    <glyph glyph-name="uni04AC" unicode="&#x4ac;" horiz-adv-x="1263" 
d="M526 1270h-497v176h1196v-176h-498v-1094h201v-463h-185v287h-219l2 4v1266z" />
    <glyph glyph-name="uni04AD" unicode="&#x4ad;" horiz-adv-x="1015" 
d="M403 0v866h-360v170h920v-170h-363v-694h174v-418h-182v246h-189z" />
    <glyph glyph-name="uni04AE" unicode="&#x4ae;" horiz-adv-x="1187" 
d="M494 0v612l-486 834h230l266 -475l88 -183h4q43 98 88 183l266 475h230l-486 -834v-612h-200z" />
    <glyph glyph-name="uni04AF" unicode="&#x4af;" horiz-adv-x="1077" 
d="M637 -410h-197v457l-403 989h209l252 -643l39 -137h4q16 78 39 137l251 643h209l-403 -989v-457z" />
    <glyph glyph-name="uni04B0" unicode="&#x4b0;" horiz-adv-x="1187" 
d="M244 477v150h241l-477 819h230l266 -475l88 -183h4q43 98 88 183l266 475h230l-478 -819h246v-150h-254v-477h-200v477h-250z" />
    <glyph glyph-name="uni04B1" unicode="&#x4b1;" horiz-adv-x="1075" 
d="M203 0v145h196l-362 891h211l250 -643l39 -137h4q16 78 39 137l247 643h209l-360 -891h201v-145h-240v-410h-197v410h-237z" />
    <glyph glyph-name="uni04B2" unicode="&#x4b2;" horiz-adv-x="1316" 
d="M1288 176v-463h-184v287h-137l-265 444l-90 166h-4q-43 -86 -88 -166l-262 -444h-225l454 745l-426 701h232l227 -391l92 -172h4q41 92 89 172l229 391h233l-430 -701l348 -569h203z" />
    <glyph glyph-name="uni04B3" unicode="&#x4b3;" horiz-adv-x="1091" 
d="M1049 172v-418h-183v246h-104l-250 401h-4q-14 -31 -31 -55l-217 -346h-225l354 532l-334 504h228l192 -315l33 -62h4q20 35 35 62l192 315h228l-334 -504l239 -360h177z" />
    <glyph glyph-name="uni04B4" unicode="&#x4b4;" horiz-adv-x="1847" 
d="M469 0v1270h-434v176h1069v-176h-434v-1094h723v1270h200v-1270h187v-463h-183v287h-1128z" />
    <glyph glyph-name="uni04B5" unicode="&#x4b5;" horiz-adv-x="1499" 
d="M362 0v866h-317v170h838v-170h-322v-694h531v864h198v-864h154v-416h-182v244h-900z" />
    <glyph glyph-name="uni04B6" unicode="&#x4b6;" horiz-adv-x="1378" 
d="M524 555q-202 0 -311 109t-109 313v469h205v-426q0 -139 66 -210q65 -71 227 -71t309 99v608h205v-1270h199v-463h-182v287h-222v586l4 67h-4q-185 -98 -387 -98z" />
    <glyph glyph-name="uni04B7" unicode="&#x4b7;" horiz-adv-x="1144" 
d="M432 360q-164 0 -254 87t-90 251v338h195v-309q0 -88 45 -141q44 -54 166 -54t225 74v430h199v-864h180v-418h-180v246h-199v375l2 61h-4q-121 -76 -285 -76z" />
    <glyph glyph-name="uni04B8" unicode="&#x4b8;" horiz-adv-x="1339" 
d="M555 344v217q-229 0 -342 109t-113 313v463h205v-426q-1 -133 59 -202t191 -77v287h152v-278q139 27 235 88v608h205v-1446h-205v592l4 67h-4q-104 -55 -235 -81v-234h-152z" />
    <glyph glyph-name="uni04B9" unicode="&#x4b9;" horiz-adv-x="1120" 
d="M453 365q-174 0 -270 86q-95 86 -95 247v338h195v-309q0 -172 176 -192v249h145v-243q94 18 166 65v430h199v-1036h-199v383l4 61h-4q-70 -39 -166 -61v-180h-145v162h-6z" />
    <glyph glyph-name="uni04BA" unicode="&#x4ba;" horiz-adv-x="1284" 
d="M190 0v1446h203v-535l-4 -67h4q178 94 380 94t302 -114t101 -314v-510h-205v477q0 281 -254 281q-180 0 -324 -94v-664h-203z" />
    <glyph glyph-name="uni04BB" unicode="&#x4bb;" horiz-adv-x="1234" 
d="M154 0v1446h198v-537l-8 -86h4q44 90 146 164t243 74q354 0 355 -397v-664h-199v618q0 125 -40 193t-155 68q-150 0 -248 -110t-98 -277v-492h-198z" />
    <glyph glyph-name="uni04BC" unicode="&#x4bc;" horiz-adv-x="1794" 
d="M1481 864q1 180 -99 303t-288 123t-309 -125t-144 -301h840zM78 1053q0 98 16 170l17 80h184l-16 -82q-43 -203 23 -298q40 -58 124 -59h8q41 272 221 440q181 168 445 166q264 0 426 -181t162 -490l-7 -97h-1046q4 -248 148 -394t354 -146q109 0 215 40t152 72t75 58
l98 -156q-225 -201 -561 -201q-296 0 -492 204t-200 526h-6q-160 0 -250 90t-90 258z" />
    <glyph glyph-name="uni04BD" unicode="&#x4bd;" horiz-adv-x="1392" 
d="M549 635h555q-4 127 -75 198t-181 71t-195 -72q-84 -72 -104 -197zM68 799q0 78 24 151h164q-25 -66 -25 -141q0 -166 117 -172q35 195 175 309t343 115q203 0 321 -138t118 -348l-7 -83h-755q8 -162 110 -253t248 -92q78 0 155 31t113 60l37 30l82 -145q-18 -16 -50 -41
t-136 -66t-213 -41q-237 1 -389 147t-162 370q-270 0 -270 307z" />
    <glyph glyph-name="uni04BE" unicode="&#x4be;" horiz-adv-x="1796" 
d="M1481 864q1 180 -99 303t-288 123t-309 -125t-144 -301h840zM78 1053q0 98 16 170l17 80h184l-16 -82q-43 -203 23 -298q40 -58 124 -59h8q41 272 221 440q181 168 445 166q264 0 426 -181t162 -490l-7 -97h-1046q4 -248 148 -394t354 -146q109 0 215 40t152 72t75 58
l98 -156q-201 -178 -493 -199v-264h-185v273q-251 38 -411 234t-164 485h-6q-160 0 -250 90t-90 258z" />
    <glyph glyph-name="uni04BF" unicode="&#x4bf;" horiz-adv-x="1392" 
d="M549 635h555q-4 127 -75 198t-181 71t-195 -72q-84 -72 -104 -197zM68 799q0 78 24 151h164q-25 -66 -25 -141q0 -166 117 -172q35 195 175 309t343 115q203 0 321 -138t118 -348l-7 -83h-755q8 -162 110 -253t248 -92q78 0 155 31t113 60l37 30l82 -145q-16 -14 -45 -37
q-29 -22 -122 -62t-191 -47v-223h-178v238q-180 39 -293 175t-121 325q-270 0 -270 307z" />
    <glyph glyph-name="uni04C0" unicode="&#x4c0;" horiz-adv-x="583" 
d="M190 0v1446h201v-1446h-201z" />
    <glyph glyph-name="uni04C1" unicode="&#x4c1;" horiz-adv-x="1826" 
d="M919 1513q-126 0 -216 71q-89 71 -89 192v30h160v-28q0 -64 43 -100t101 -36t102 36q43 36 43 102v26h158v-30q0 -121 -88 -192t-214 -71zM813 838v608h201v-608h190l336 608h221l-391 -686v-4l422 -756h-229l-359 662h-190v-662h-201v662h-188l-361 -662h-227l420 756v4
l-391 686h221l338 -608h188z" />
    <glyph glyph-name="uni04C2" unicode="&#x4c2;" horiz-adv-x="1540" 
d="M1071 1417q0 -121 -88 -191t-214 -71q-126 0 -215 71t-89 191v31h160v-29q0 -63 43 -99t101 -36t101 36t43 101v27h158v-31zM676 612v424h188v-424h148l256 424h209l-303 -499v-5l333 -532h-223l-270 442h-150v-442h-188v442h-148l-272 -442h-221l334 532v5l-306 499h211
l254 -424h148z" />
    <glyph glyph-name="uni04C3" unicode="&#x4c3;" horiz-adv-x="1302" 
d="M190 0v1446h203v-608h215l367 608h223l-395 -645q201 -51 299 -204t98 -345q0 -285 -137 -451t-369 -166v170q125 1 210 103t85 324t-120 327q-120 106 -332 107h-144v-666h-203z" />
    <glyph glyph-name="uni04C4" unicode="&#x4c4;" horiz-adv-x="1081" 
d="M154 0v1036h198v-420h144l284 420h226l-326 -465v-4q315 -94 315 -458q0 -191 -91 -325t-222 -208l-94 143q215 113 215 390q0 163 -92 249t-262 86h-97v-444h-198z" />
    <glyph glyph-name="uni04C5" unicode="&#x4c5;" horiz-adv-x="1468" 
d="M354 1446h844v-1270h223v-117l-147 -346h-150l88 287h-217v1270h-448v-168q0 -550 -118 -826t-404 -292v186q178 25 254 252t75 682v342z" />
    <glyph glyph-name="uni04C6" unicode="&#x4c6;" horiz-adv-x="1200" 
d="M274 717v319h695v-866h182v-113l-129 -303h-139l73 246h-186v872h-305v-155q0 -358 -99 -537q-100 -178 -325 -190v178q117 18 175 146t58 403z" />
    <glyph glyph-name="uni04C7" unicode="&#x4c7;" horiz-adv-x="1536" 
d="M190 0v1446h203v-635h752v635h201l2 -1342q0 -325 -201 -427q-91 -46 -223 -44v172q221 0 221 293v537h-752v-635h-203z" />
    <glyph glyph-name="uni04C8" unicode="&#x4c8;" horiz-adv-x="1230" 
d="M154 0v1036h198v-422h525v422h200v-938q0 -204 -78 -318t-229 -204l-104 145q104 55 157 141t54 234v348h-525v-444h-198z" />
    <glyph glyph-name="uni04C9" unicode="&#x4c9;" horiz-adv-x="1617" 
d="M190 0v1446h203v-635h752v635h201v-1270h225v-117l-150 -346h-147l86 287h-215v635h-752v-635h-203z" />
    <glyph glyph-name="uni04CA" unicode="&#x4ca;" horiz-adv-x="1306" 
d="M154 0v1036h198v-422h525v422h198v-866h182v-113l-129 -303h-139l74 246h-186v444h-525v-444h-198z" />
    <glyph glyph-name="uni04CB" unicode="&#x4cb;" horiz-adv-x="1306" 
d="M524 555q-202 0 -311 109t-109 313v469h205v-426q0 -139 66 -210q65 -71 227 -71t309 99v608h205v-1446h-223v-287h-182v463h200v410l4 67h-4q-185 -98 -387 -98z" />
    <glyph glyph-name="uni04CC" unicode="&#x4cc;" horiz-adv-x="1077" 
d="M553 137h174v258l2 62h-2q-137 -78 -302 -78t-252 86t-87 248v323h197v-297q0 -195 196 -194q137 0 248 76v415h199v-1036h-191v-246h-182v383z" />
    <glyph glyph-name="uni04CD" unicode="&#x4cd;" horiz-adv-x="1830" 
d="M1815 176v-117l-148 -346h-147l86 287h-201l-70 911l-4 213h-4q-45 -133 -78 -213l-288 -651h-181l-286 651l-78 217h-4q4 -129 -4 -217l-70 -911h-203l119 1446h211l334 -782l69 -195h4q39 115 72 195l334 782h211l102 -1270h224z" />
    <glyph glyph-name="uni04CE" unicode="&#x4ce;" horiz-adv-x="1583" 
d="M1556 170v-113l-129 -303h-141l74 246h-170l-45 616l2 179h-4q-27 -72 -66 -152l-246 -518h-169l-246 516l-66 154h-4l2 -179l-45 -616h-192l90 1036h221l264 -585l57 -140h5q31 76 57 140l270 585h217l76 -866h188z" />
    <glyph glyph-name="uni04CF" unicode="&#x4cf;" horiz-adv-x="503" 
d="M154 0v1446h198v-1446h-198z" />
    <glyph glyph-name="uni04D0" unicode="&#x4d0;" horiz-adv-x="1312" 
d="M652 1513q-126 0 -215 71t-89 192v30h160v-28q0 -64 43 -100t101 -36t102 36q43 36 43 102v26h157v-30q0 -121 -88 -192t-214 -71zM436 584h438l-159 456l-58 207h-4q-31 -131 -55 -207zM31 0l518 1446h215l518 -1446h-209l-145 416h-545l-145 -416h-207z" />
    <glyph glyph-name="uni04D1" unicode="&#x4d1;" horiz-adv-x="1079" 
d="M858 1417q0 -121 -88 -191t-214 -71q-126 0 -215 71t-89 191v31h160v-29q0 -63 43 -99t101 -36t101 36t43 101v27h158v-31zM266 299q0 -68 51 -117t144 -49q123 1 201 103t77 227v39h-51q-422 0 -422 -203zM68 271q0 127 63 205q100 122 365 157q90 12 190 12h53v21
q0 227 -227 227q-150 0 -291 -100l-80 145q63 53 172 88t215 35q197 -1 303 -105t107 -301v-655h-186v104l6 82h-4q-46 -92 -138 -151t-218 -59t-228 83q-102 85 -102 212z" />
    <glyph glyph-name="uni04D2" unicode="&#x4d2;" horiz-adv-x="1312" 
d="M401 1599v207h164v-207h-164zM745 1599v207h162v-207h-162zM436 584h438l-159 456l-58 207h-4q-31 -131 -55 -207zM31 0l518 1446h215l518 -1446h-209l-145 416h-545l-145 -416h-207z" />
    <glyph glyph-name="uni04D3" unicode="&#x4d3;" horiz-adv-x="1079" 
d="M281 1241v207h163v-207h-163zM625 1241v207h161v-207h-161zM266 299q0 -68 51 -117t144 -49q123 1 201 103t77 227v39h-51q-422 0 -422 -203zM68 271q0 127 63 205q100 122 365 157q90 12 190 12h53v21q0 227 -227 227q-150 0 -291 -100l-80 145q63 53 172 88t215 35
q197 -1 303 -105t107 -301v-655h-186v104l6 82h-4q-46 -92 -138 -151t-218 -59t-228 83q-102 85 -102 212z" />
    <glyph glyph-name="uni04D4" unicode="&#x4d4;" horiz-adv-x="1794" 
d="M834 811v459h-97l-186 -459h283zM1673 1446v-176h-639v-453h518v-176h-518v-465h672v-176h-872v643h-351l-256 -643h-211l598 1446h1059z" />
    <glyph glyph-name="uni04D5" unicode="&#x4d5;" horiz-adv-x="1767" 
d="M270 301q0 -70 52 -118t158 -48q108 -1 185 103t76 229v29h-98q-373 0 -373 -195zM938 641h541q-4 123 -75 192q-72 69 -180 69t-187 -68t-99 -193zM688 641h51v25q0 227 -233 227q-147 0 -287 -100l-80 145q66 55 171 89t208 34q262 0 346 -182h4q123 182 367 182
q207 0 326 -137t118 -344q0 -27 -4 -84h-745q8 -166 104 -257t255 -91t294 118l82 -143q-73 -66 -183 -107t-241 -41t-246 68t-176 190h-4q-19 -56 -101 -145q-44 -47 -121 -79t-169 -32q-150 1 -252 85t-102 238t115 231t245 94q129 16 258 16z" />
    <glyph glyph-name="uni04D6" unicode="&#x4d6;" horiz-adv-x="1155" 
d="M622 1513q-126 0 -215 71t-90 192v30h160v-28q0 -64 43 -100q44 -36 102 -36t101 36t43 102v26h158v-30q0 -121 -88 -192t-214 -71zM190 0v1446h842v-176h-639v-453h518v-176h-518v-465h674v-176h-877z" />
    <glyph glyph-name="uni04D7" unicode="&#x4d7;" horiz-adv-x="1140" 
d="M899 1417q0 -121 -88 -191t-214 -71q-126 0 -215 71t-89 191v31h160v-29q0 -63 43 -99t101 -36t101 36t43 101v27h158v-31zM299 635h555q-4 129 -75 201t-183 72t-194 -74q-83 -72 -103 -199zM637 -25q-243 0 -397 155q-154 156 -154 394t147 388t365 149q218 0 338 -138
q119 -138 119 -348q0 -27 -8 -83h-754q8 -162 109 -253t259 -91t293 120l84 -145q-74 -68 -184 -108t-217 -40z" />
    <glyph glyph-name="uni04D8" unicode="&#x4d8;" horiz-adv-x="1478" 
d="M309 635q-1 -229 103 -353t306 -124t320 131q119 131 121 346h-850zM680 1286q-111 0 -239 -45t-205 -113l-103 152q246 190 556 190t498 -210q187 -211 187 -536t-180 -537t-471 -212q-291 1 -455 187t-164 532l7 103h1050q-10 217 -142 353t-339 136z" />
    <glyph glyph-name="uni04D9" unicode="&#x4d9;" horiz-adv-x="1140" 
d="M556 133q114 0 198 77t88 220h-549q4 -154 76 -226q73 -72 187 -71zM516 897q-84 0 -167 -29t-124 -57l-39 -31l-80 142l17 12q18 10 49 30t99 45q140 52 268 52q231 0 373 -153q142 -154 142 -396t-142 -389q-144 -147 -365 -147t-341 138q-120 140 -120 367l6 92h758
q-8 145 -104 235t-230 89z" />
    <glyph glyph-name="uni04DA" unicode="&#x4da;" horiz-adv-x="1478" 
d="M309 635q-1 -229 103 -353t306 -124t320 131q119 131 121 346h-850zM680 1286q-111 0 -239 -45t-205 -113l-103 152q246 190 556 190t498 -210q187 -211 187 -536t-180 -537t-471 -212q-291 1 -455 187t-164 532l7 103h1050q-10 217 -142 353t-339 136zM471 1599v207h164
v-207h-164zM815 1599v207h162v-207h-162z" />
    <glyph glyph-name="uni04DB" unicode="&#x4db;" horiz-adv-x="1140" 
d="M556 133q114 0 198 77t88 220h-549q4 -154 76 -226q73 -72 187 -71zM516 897q-84 0 -167 -29t-124 -57l-39 -31l-80 142l17 12q18 10 49 30t99 45q140 52 268 52q231 0 373 -153q142 -154 142 -396t-142 -389q-144 -147 -365 -147t-341 138q-120 140 -120 367l6 92h758
q-8 145 -104 235t-230 89zM289 1241v207h164v-207h-164zM633 1241v207h162v-207h-162z" />
    <glyph glyph-name="uni04DC" unicode="&#x4dc;" horiz-adv-x="1826" 
d="M666 1599v207h163v-207h-163zM1010 1599v207h161v-207h-161zM813 838v608h201v-608h190l336 608h221l-391 -686v-4l422 -756h-229l-359 662h-190v-662h-201v662h-188l-361 -662h-227l420 756v4l-391 686h221l338 -608h188z" />
    <glyph glyph-name="uni04DD" unicode="&#x4dd;" horiz-adv-x="1540" 
d="M676 612v424h188v-424h148l256 424h209l-303 -499v-5l333 -532h-223l-270 442h-150v-442h-188v442h-148l-272 -442h-221l334 532v5l-306 499h211l254 -424h148zM516 1241v207h164v-207h-164zM860 1241v207h162v-207h-162z" />
    <glyph glyph-name="uni04DE" unicode="&#x4de;" horiz-adv-x="1118" 
d="M528 158q116 0 198 70q83 70 83 187t-75 181t-195 63h-179v168h144q112 0 186 66t74 167t-65 167t-191 65q-178 0 -324 -123l-86 152q180 150 439 149q190 0 312 -103t122 -282q0 -221 -209 -325v-4q118 -33 186 -124t68 -222q0 -197 -140 -316t-352 -119q-133 1 -259 53
t-210 144l113 137q60 -67 152 -109t208 -42zM295 1599v207h164v-207h-164zM639 1599v207h162v-207h-162z" />
    <glyph glyph-name="uni04DF" unicode="&#x4df;" horiz-adv-x="917" 
d="M416 135q94 0 154 44t61 126q0 158 -213 158h-127v143h108q197 0 197 150q0 72 -49 110t-135 39q-131 0 -252 -90l-74 133q152 113 360 113q154 0 252 -74t99 -207q0 -172 -152 -235v-4q186 -59 186 -244q1 -154 -113 -238t-284 -84q-221 0 -381 152l92 131
q117 -123 271 -123zM193 1241v207h163v-207h-163zM537 1241v207h161v-207h-161z" />
    <glyph glyph-name="uni04E0" unicode="&#x4e0;" horiz-adv-x="1079" 
d="M465 147q143 0 230 74q87 75 87 185t-54 167t-175 74q-39 4 -313 4v135l376 412q28 31 89 78v4q-55 -4 -125 -4h-478v170h836v-154l-401 -428l-60 -51v-4q129 -2 187 -16q315 -57 315 -371q0 -203 -142 -323q-141 -119 -363 -119t-406 122l71 150q63 -45 153 -75t173 -30
z" />
    <glyph glyph-name="uni04E1" unicode="&#x4e1;" horiz-adv-x="997" 
d="M416 -262q143 0 230 74t87 184t-54 168t-175 74q-39 4 -314 4v135l377 411q17 19 88 78v4q-55 -4 -125 -4h-477v170h836v-153l-402 -428l-59 -52v-4q129 -2 186 -16q315 -57 316 -371q0 -202 -142 -322t-364 -120q-221 0 -406 123l72 149q64 -44 154 -74t172 -30z" />
    <glyph glyph-name="uni04E2" unicode="&#x4e2;" horiz-adv-x="1540" 
d="M190 0v1446h203v-938l-12 -211h4q72 135 123 213l641 936h199v-1446h-201v938l12 211h-4q-70 -131 -121 -211l-645 -938h-199zM526 1606v145h521v-145h-521z" />
    <glyph glyph-name="uni04E3" unicode="&#x4e3;" horiz-adv-x="1224" 
d="M360 1247v146h521v-146h-521zM154 0v1036h190v-618q0 -109 -6 -139h4q10 25 92 139l447 618h192v-1036h-192v618l6 138h-4q-2 -4 -90 -138l-449 -618h-190z" />
    <glyph glyph-name="uni04E4" unicode="&#x4e4;" horiz-adv-x="1540" 
d="M190 0v1446h203v-938l-12 -211h4q72 135 123 213l641 936h199v-1446h-201v938l12 211h-4q-70 -131 -121 -211l-645 -938h-199zM518 1599v207h164v-207h-164zM862 1599v207h162v-207h-162z" />
    <glyph glyph-name="uni04E5" unicode="&#x4e5;" horiz-adv-x="1224" 
d="M154 0v1036h190v-618q0 -109 -6 -139h4q10 25 92 139l447 618h192v-1036h-192v618l6 138h-4q-2 -4 -90 -138l-449 -618h-190zM367 1241v207h163v-207h-163zM711 1241v207h161v-207h-161z" />
    <glyph glyph-name="uni04E6" unicode="&#x4e6;" horiz-adv-x="1685" 
d="M843 1286q-230 0 -382 -158t-152 -399q0 -239 152 -403t382 -164t382 164q151 164 151 404t-152 398t-381 158zM1585 728q0 -318 -211 -534q-211 -218 -530 -218q-320 0 -532 217t-212 535t211 530t531 212t532 -212q211 -212 211 -530zM586 1599v207h164v-207h-164z
M930 1599v207h162v-207h-162z" />
    <glyph glyph-name="uni04E7" unicode="&#x4e7;" horiz-adv-x="1288" 
d="M289 519q0 -161 103 -266q104 -105 252 -105t252 106t105 266q0 160 -104 264t-253 104t-252 -104t-103 -265zM86 519q0 232 162 387t396 155t396 -154t162 -387t-162 -389t-395 -156t-396 156t-163 388zM393 1241v207h164v-207h-164zM737 1241v207h162v-207h-162z" />
    <glyph glyph-name="uni04E8" unicode="&#x4e8;" horiz-adv-x="1685" 
d="M843 1290q-208 0 -358 -135t-176 -344h1067q-27 209 -176 344t-357 135zM844 156q209 0 357 139t175 354h-1067q29 -215 177 -354t358 -139zM1585 728q0 -318 -212 -534q-212 -218 -529 -218q-316 0 -530 217t-214 535t213 530t531 212t529 -212q212 -212 212 -530z" />
    <glyph glyph-name="uni04E9" unicode="&#x4e9;" horiz-adv-x="1288" 
d="M644 907q-140 0 -244 -89t-124 -230h736q-20 141 -124 230t-244 89zM645 129q141 0 245 92q103 92 124 240h-738q18 -147 123 -239t246 -93zM86 519q0 232 162 387t396 155t396 -154t162 -387t-162 -389t-395 -156t-396 156t-163 388z" />
    <glyph glyph-name="uni04EA" unicode="&#x4ea;" horiz-adv-x="1685" 
d="M934 1599v207h162v-207h-162zM590 1599v207h164v-207h-164zM843 1290q-208 0 -358 -135t-176 -344h1067q-27 209 -176 344t-357 135zM844 156q209 0 357 139t175 354h-1067q29 -215 177 -354t358 -139zM1585 728q0 -318 -212 -534q-212 -218 -529 -218q-316 0 -530 217
t-214 535t213 530t531 212t529 -212q212 -212 212 -530z" />
    <glyph glyph-name="uni04EB" unicode="&#x4eb;" horiz-adv-x="1288" 
d="M731 1241v207h162v-207h-162zM387 1241v207h164v-207h-164zM644 907q-140 0 -244 -89t-124 -230h736q-20 141 -124 230t-244 89zM645 129q141 0 245 92q103 92 124 240h-738q18 -147 123 -239t246 -93zM86 519q0 232 162 387t396 155t396 -154t162 -387t-162 -389
t-395 -156t-396 156t-163 388z" />
    <glyph glyph-name="uni04EC" unicode="&#x4ec;" horiz-adv-x="1466" 
d="M625 160q213 0 357 137t169 344h-756v168h758q-19 209 -165 343t-374 134t-415 -162l-101 152q94 94 238 144t295 50q327 0 531 -210t204 -531t-210 -537t-531 -217q-161 0 -307 60t-250 162l106 141q78 -80 200 -129t251 -49zM414 1599v207h164v-207h-164zM758 1599v207
h162v-207h-162z" />
    <glyph glyph-name="uni04ED" unicode="&#x4ed;" horiz-adv-x="1114" 
d="M465 139q143 0 245 85q101 85 121 222h-495v144h495q-20 139 -120 224t-256 85t-283 -121l-90 137q66 72 174 109t221 37q241 0 395 -155q154 -156 154 -390t-155 -388t-401 -153q-246 0 -409 156l78 141q131 -133 326 -133zM266 1241v207h164v-207h-164zM610 1241v207
h162v-207h-162z" />
    <glyph glyph-name="uni04EE" unicode="&#x4ee;" horiz-adv-x="1226" 
d="M154 70l92 153q94 -71 160 -71t101 40q36 40 68 121l-571 1133h223l353 -727l82 -191h4q31 100 61 189l268 729h213l-460 -1180q-115 -291 -330 -291q-129 1 -264 95zM356 1606v145h521v-145h-521z" />
    <glyph glyph-name="uni04EF" unicode="&#x4ef;" horiz-adv-x="1095" 
d="M289 1247v146h520v-146h-520zM221 -260q125 0 189 154l51 118l-434 1024h223l260 -678l39 -125h4q16 70 35 123l252 680h215l-488 -1222q-45 -120 -134 -182t-202 -62q-51 0 -100 16t-74 33l-24 14l69 152q57 -45 119 -45z" />
    <glyph glyph-name="uni04F0" unicode="&#x4f0;" horiz-adv-x="1226" 
d="M154 70l92 153q94 -71 160 -71t101 40q36 40 68 121l-571 1133h223l353 -727l82 -191h4q31 100 61 189l268 729h213l-460 -1180q-115 -291 -330 -291q-129 1 -264 95zM371 1599v207h164v-207h-164zM715 1599v207h162v-207h-162z" />
    <glyph glyph-name="uni04F1" unicode="&#x4f1;" horiz-adv-x="1095" 
d="M295 1241v207h164v-207h-164zM639 1241v207h162v-207h-162zM221 -260q125 0 189 154l51 118l-434 1024h223l260 -678l39 -125h4q16 70 35 123l252 680h215l-488 -1222q-45 -120 -134 -182t-202 -62q-51 0 -100 16t-74 33l-24 14l69 152q57 -45 119 -45z" />
    <glyph glyph-name="uni04F2" unicode="&#x4f2;" horiz-adv-x="1226" 
d="M373 1546l139 260h180l-145 -260h-174zM688 1546l150 260h206l-196 -260h-160zM154 70l92 153q94 -71 160 -71t101 40q36 40 68 121l-571 1133h223l353 -727l82 -191h4q31 100 61 189l268 729h213l-460 -1180q-115 -291 -330 -291q-129 1 -264 95z" />
    <glyph glyph-name="uni04F3" unicode="&#x4f3;" horiz-adv-x="1095" 
d="M289 1188l139 260h180l-145 -260h-174zM604 1188l150 260h207l-197 -260h-160zM221 -260q125 0 189 154l51 118l-434 1024h223l260 -678l39 -125h4q16 70 35 123l252 680h215l-488 -1222q-45 -120 -134 -182t-202 -62q-51 0 -100 16t-74 33l-24 14l69 152q57 -45 119 -45
z" />
    <glyph glyph-name="uni04F4" unicode="&#x4f4;" horiz-adv-x="1308" 
d="M371 1599v207h164v-207h-164zM715 1599v207h162v-207h-162zM524 555q-202 0 -311 109t-109 313v469h205v-426q0 -139 66 -210q65 -71 227 -71t309 99v608h205v-1446h-205v586l4 67h-4q-185 -98 -387 -98z" />
    <glyph glyph-name="uni04F5" unicode="&#x4f5;" horiz-adv-x="1071" 
d="M432 360q-164 0 -254 87t-90 251v338h195v-309q0 -88 45 -141q44 -54 166 -54t225 74v430h199v-1036h-199v375l2 61h-4q-121 -76 -285 -76zM260 1241v207h164v-207h-164zM604 1241v207h162v-207h-162z" />
    <glyph glyph-name="uni04F6" unicode="&#x4f6;" horiz-adv-x="1021" 
d="M190 0v1446h797v-176h-594v-1094h201v-463h-184v287h-220z" />
    <glyph glyph-name="uni04F7" unicode="&#x4f7;" horiz-adv-x="851" 
d="M154 0v1036h649v-170h-451v-694h172v-418h-180v246h-190z" />
    <glyph glyph-name="uni04F8" unicode="&#x4f8;" horiz-adv-x="1728" 
d="M393 176h275q122 0 190 72t68 198t-71 203q-71 76 -191 76h-271v-549zM190 0v1446h203v-545h297q195 0 318 -122q122 -122 122 -328q0 -207 -120 -329t-310 -122h-510zM1335 0v1446h201v-1446h-201zM610 1599v207h164v-207h-164zM954 1599v207h162v-207h-162z" />
    <glyph glyph-name="uni04F9" unicode="&#x4f9;" horiz-adv-x="1443" 
d="M352 143h174q102 1 154 51t51 136q0 86 -51 137t-156 51h-172v-375zM154 0v1036h198v-374h203q172 0 274 -83q103 -83 103 -243t-95 -248t-284 -88h-399zM1092 0v1036h198v-1036h-198zM465 1241v207h164v-207h-164zM809 1241v207h162v-207h-162z" />
    <glyph glyph-name="uni0524" unicode="&#x524;" horiz-adv-x="1591" 
d="M190 0v1446h1139v-1270h201v-463h-184v287h-220v1270h-733v-1270h-203z" />
    <glyph glyph-name="uni0525" unicode="&#x525;" horiz-adv-x="1280" 
d="M154 0v1036h905v-864h174v-418h-182v246h-191v866h-508v-866h-198z" />
    <glyph glyph-name="uni1E9E" unicode="&#x1e9e;" horiz-adv-x="1384" 
d="M178 0v1036q0 176 118 293t298 117h635v-139l-283 -414l-51 -68v-4l51 -2q150 -12 247 -130q97 -119 97 -281t-126 -285t-302 -123h-305v176h291q104 0 170 71t66 172t-65 171t-167 69h-180v142l231 346q60 91 92 123v4q-16 -4 -90 -4h-303q-96 0 -158 -66t-61 -164
v-1040h-205z" />
    <glyph glyph-name="thinspace" unicode="&#x2009;" horiz-adv-x="28" 
 />
    <glyph glyph-name="endash" unicode="&#x2013;" horiz-adv-x="1370" 
d="M147 504v160h1076v-160h-1076z" />
    <glyph glyph-name="emdash" unicode="&#x2014;" horiz-adv-x="1779" 
d="M147 504v160h1485v-160h-1485z" />
    <glyph glyph-name="quoteleft" unicode="&#x2018;" horiz-adv-x="512" 
d="M123 1071l133 397h147l-88 -397h-192z" />
    <glyph glyph-name="quoteright" unicode="&#x2019;" horiz-adv-x="499" 
d="M131 1071l86 397h195l-136 -397h-145z" />
    <glyph glyph-name="quotesinglbase" unicode="&#x201a;" horiz-adv-x="528" 
d="M102 -182l88 397h187l-131 -397h-144z" />
    <glyph glyph-name="quotedblleft" unicode="&#x201c;" horiz-adv-x="800" 
d="M123 1071l133 397h147l-88 -397h-192zM412 1071l133 397h147l-88 -397h-192z" />
    <glyph glyph-name="quotedblright" unicode="&#x201d;" 
d="M131 1071l86 397h195l-133 -397h-148zM420 1071l86 397h194l-133 -397h-147z" />
    <glyph glyph-name="quotedblbase" unicode="&#x201e;" horiz-adv-x="811" 
d="M102 -182l88 397h187l-131 -397h-144zM385 -182l88 397h189l-134 -397h-143z" />
    <glyph glyph-name="dagger" unicode="&#x2020;" horiz-adv-x="872" 
d="M338 -102v979h-248v159h248v410h192v-410h252v-159h-252v-979h-192z" />
    <glyph glyph-name="daggerdbl" unicode="&#x2021;" horiz-adv-x="927" 
d="M119 350v160h246v367h-246v159h246v410h192v-410h252v-159h-252v-367h252v-160h-252v-452h-192v452h-246z" />
    <glyph glyph-name="bullet" unicode="&#x2022;" horiz-adv-x="974" 
d="M487 279q-131 0 -223 93t-92 224t92 224t223 93t225 -93t93 -224q1 -131 -93 -224t-225 -93z" />
    <glyph glyph-name="ellipsis" unicode="&#x2026;" horiz-adv-x="1558" 
d="M143 0v215h207v-215h-207zM676 0v215h207v-215h-207zM1206 0v215h209v-215h-209z" />
    <glyph glyph-name="perthousand" unicode="&#x2030;" horiz-adv-x="2265" 
d="M1008 279q0 -63 43 -107t106 -45q63 0 108 44q44 43 44 107t-44 109q-43 45 -107 45t-107 -45t-43 -108zM1733 279q0 -63 43 -107t106 -45q63 0 109 44q45 43 45 107t-45 109t-109 45t-106 -45q-43 -45 -43 -108zM848 277q0 125 90 215t219 90t220 -89t91 -215t-91 -215
q-91 -88 -220 -88t-219 88t-90 214zM1573 276q0 126 91 216t219 90t220 -90t92 -216t-92 -213q-92 -88 -220 -88t-219 88t-91 213zM414 1321q-62 0 -106 -45q-44 -44 -44 -108t44 -108t108 -44t108 44t43 107q0 63 -45 109t-108 45zM137 0l1104 1446h195l-1106 -1446h-193z
M416 864q-129 0 -220 89t-92 214q0 125 92 214t220 89q129 0 220 -89t91 -215t-91 -214t-220 -88z" />
    <glyph glyph-name="guilsinglleft" unicode="&#x2039;" horiz-adv-x="735" 
d="M428 158l-336 420l336 421h199l-336 -421l336 -420h-199z" />
    <glyph glyph-name="guilsinglright" unicode="&#x203a;" horiz-adv-x="735" 
d="M109 158l335 420l-335 421h198l336 -421l-336 -420h-198z" />
    <glyph glyph-name="fraction" unicode="&#x2044;" horiz-adv-x="346" 
d="M-92 0h-154l688 1446h152z" />
    <glyph glyph-name="zerosuperior" unicode="&#x2070;" 
d="M227 1314q0 -326 167 -327q167 0 167 327t-166 326q-168 0 -168 -326zM395 846q-321 0 -321 468t322 468t321 -468q0 -468 -322 -468z" />
    <glyph glyph-name="foursuperior" unicode="&#x2074;" 
d="M205 1221h258v252l6 118h-4q-27 -55 -59 -98l-201 -268v-4zM463 866v219h-424v103l410 573h165v-540h127v-136h-127v-219h-151z" />
    <glyph glyph-name="fivesuperior" unicode="&#x2075;" 
d="M375 846q-182 0 -293 139l90 105q29 -45 83 -74t120 -29t120 48t54 120t-54 121q-53 49 -135 49t-151 -43l-86 33l49 446h473v-137h-348l-14 -127l-11 -65h4q55 20 115 20q135 0 223 -88t88 -212t-92 -215t-235 -91z" />
    <glyph glyph-name="sixsuperior" unicode="&#x2076;" 
d="M415 987q73 0 111 48t39 121q0 73 -45 122q-44 49 -114 49t-118 -34t-48 -74q0 -86 51 -159t124 -73zM411 846q-140 0 -235 113q-94 114 -94 303q0 284 175 437q95 83 215 83t204 -45l-51 -129q-61 32 -144 32t-145 -73q-61 -74 -82 -185h4q63 63 162 64q135 0 217 -83
t82 -215t-84 -217t-224 -85z" />
    <glyph glyph-name="sevensuperior" unicode="&#x2077;" 
d="M449 1624h-351v137h619v-104l-424 -791h-170l358 662l60 96v4q-39 -4 -92 -4z" />
    <glyph glyph-name="eightsuperior" unicode="&#x2078;" 
d="M392 979q66 0 117 38q50 38 50 94t-48 90q-48 33 -109 60q-60 27 -80 37q-100 -76 -100 -157t51 -121q53 -40 119 -41zM549 1516q0 70 -44 100q-45 31 -103 31t-98 -28t-40 -75t30 -80q55 -61 179 -102q76 84 76 154zM395 846q-131 0 -227 74t-96 204t145 232
q-100 72 -100 186t85 176q86 64 202 64t204 -65t88 -179t-114 -229q131 -78 131 -198q1 -121 -93 -193t-225 -72z" />
    <glyph glyph-name="ninesuperior" unicode="&#x2079;" 
d="M223 1472q0 -72 45 -124q44 -50 114 -50t119 35q48 35 48 76q0 86 -51 159q-51 72 -123 72t-112 -48t-40 -120zM309 989q82 0 146 73q63 73 82 183h-5q-63 -63 -161 -63q-135 0 -217 83t-82 214t84 217t223 86t234 -114t95 -308t-104 -354q-106 -160 -299 -160
q-110 0 -190 45l51 131q61 -33 143 -33z" />
    <glyph glyph-name="zeroinferior" unicode="&#x2080;" 
d="M394 -201q167 0 167 327t-167 327t-167 -327t167 -327zM395 -342q-321 0 -321 468t322 468t321 -468q0 -468 -322 -468z" />
    <glyph glyph-name="oneinferior" unicode="&#x2081;" 
d="M147 -322v136h191v510l4 53h-4q-8 -18 -35 -45l-74 -70l-92 100l217 211h138v-759h188v-136h-533z" />
    <glyph glyph-name="twoinferior" unicode="&#x2082;" 
d="M90 -248q0 96 45 171t109 121t126 86q154 97 154 189q0 57 -42 95t-105 39q-92 0 -174 -99l-101 92q43 64 120 106t161 42q127 0 211 -75t84 -193q0 -82 -42 -148t-102 -108t-122 -78q-150 -90 -156 -178h436v-136h-596q-6 37 -6 74z" />
    <glyph glyph-name="threeinferior" unicode="&#x2083;" 
d="M373 -342q-86 0 -168 35t-133 100l86 109q31 -43 88 -73t124 -30q66 0 116 45t50 112q0 68 -52 106q-54 38 -128 38h-69l-35 78l182 211l51 49v4q-39 -6 -75 -6h-289v137h555v-98l-223 -258q102 -14 171 -81q68 -66 68 -184t-90 -206t-229 -88z" />
    <glyph glyph-name="fourinferior" unicode="&#x2084;" 
d="M205 33h258v252l6 118h-4q-27 -55 -59 -98l-201 -268v-4zM463 -322v220h-424v102l410 573h165v-540h127v-135h-127v-220h-151z" />
    <glyph glyph-name="fiveinferior" unicode="&#x2085;" 
d="M375 -342q-182 0 -293 139l90 105q29 -45 83 -74t120 -29t120 48t54 120t-54 121q-53 49 -135 49t-151 -43l-86 33l49 446h473v-137h-348l-14 -127l-11 -65h4q55 20 115 20q135 0 223 -88t88 -212t-92 -215t-235 -91z" />
    <glyph glyph-name="sixinferior" unicode="&#x2086;" 
d="M415 -201q73 0 111 48t39 121q0 73 -45 122q-44 49 -114 49t-118 -34t-48 -74q0 -86 51 -159t124 -73zM411 -342q-140 0 -235 114q-94 114 -94 302q0 284 175 437q95 83 215 83t204 -45l-51 -129q-61 33 -144 33t-145 -74t-82 -184h4q63 63 180 63t199 -83t82 -215
t-84 -217t-224 -85z" />
    <glyph glyph-name="seveninferior" unicode="&#x2087;" 
d="M449 436h-351v137h619v-104l-424 -791h-170l358 662l60 96v4q-39 -4 -92 -4z" />
    <glyph glyph-name="eightinferior" unicode="&#x2088;" 
d="M392 -207q66 0 117 38q50 38 50 94t-48 90q-48 33 -109 60q-60 27 -80 38q-100 -76 -100 -157t51 -122q53 -41 119 -41zM549 330q0 70 -44 100q-45 31 -103 31t-98 -28t-40 -75q0 -78 82 -123q82 -44 127 -59q76 84 76 154zM395 -340q-131 0 -227 74t-96 204t145 232
q-100 72 -100 186t85 176q86 64 202 64t204 -65t88 -179t-114 -229q131 -78 131 -198q1 -121 -93 -193t-225 -72z" />
    <glyph glyph-name="nineinferior" unicode="&#x2089;" 
d="M382 111q70 0 119 34q48 35 48 76q0 86 -51 159t-123 73q-72 -1 -112 -49t-40 -120t45 -123q44 -50 114 -50zM309 -199q82 0 146 73q63 73 82 183h-5q-63 -63 -161 -63q-135 0 -217 83t-82 214t84 217t223 86t234 -114t95 -308t-104 -354q-106 -160 -299 -160
q-110 0 -190 45l51 131q61 -33 143 -33z" />
    <glyph glyph-name="Euro" unicode="&#x20ac;" horiz-adv-x="1181" 
d="M53 528v129h115q-10 57 -2 148h-113v131h137q64 238 254 386t441 148q102 0 205 -24l-48 -184q-68 20 -161 20q-170 0 -297 -94t-178 -252h575l-27 -131h-577q-10 -61 0 -148h551l-27 -129h-491q49 -164 178 -262t299 -98q100 0 186 27l39 -185q-94 -35 -227 -35
q-260 0 -449 153q-188 153 -248 400h-135z" />
    <glyph glyph-name="numero" unicode="&#x2116;" horiz-adv-x="2170" 
d="M1505 401v144h543v-144h-543zM1638 963q0 -61 41 -105t101 -43q60 0 99 43q40 42 40 104t-40 103t-99 41q-58 0 -100 -41t-42 -102zM1487 962q0 122 85 206t207 83q122 0 207 -84q85 -83 85 -205t-85 -206t-208 -84t-207 84t-84 206zM180 0v1446h201l643 -938
q41 -57 102 -176l17 -35h4q-12 129 -12 211v938h202v-1446h-198l-647 938l-119 211h-4q12 -129 12 -211v-938h-201z" />
    <glyph glyph-name="trademark" unicode="&#x2122;" horiz-adv-x="2031" 
d="M438 545v764h-313v137h778v-137h-311v-764h-154zM969 545l71 901h144l211 -471l28 -84h4q12 47 27 84l213 471h143l70 -901h-154l-43 538l3 62h-5l-192 -434h-125l-197 434h-4l2 -62l-43 -538h-153z" />
    <glyph glyph-name="minus" unicode="&#x2212;" horiz-adv-x="1181" 
d="M61 504v160h1059v-160h-1059z" />
    <glyph glyph-name="infinity" unicode="&#x221e;" horiz-adv-x="987" 
d="M495 342q-155 0 -265 110t-110 264t110 262t265 108t263 -108t108 -262t-108 -264t-263 -110z" />
    <glyph glyph-name="approxequal" unicode="&#x2248;" horiz-adv-x="1181" 
d="M793 395q121 0 227 115l82 -121q-143 -147 -309 -147q-103 0 -221 72t-185 71q-112 0 -225 -113l-84 121q145 145 309 146q102 0 220 -72t186 -72zM387 928q102 0 220 -72t186 -72q123 0 227 113l82 -121q-145 -150 -309 -149q-103 -1 -221 71t-185 72q-114 0 -225 -111
l-84 119q145 150 309 150z" />
    <glyph glyph-name="notequal" unicode="&#x2260;" horiz-adv-x="1181" 
d="M100 309v160h334l164 227h-498v160h605l165 234l105 -70l-117 -164h219v-160h-325l-164 -227h489v-160h-596l-162 -229l-106 70l115 159h-228z" />
    <glyph glyph-name="lessequal" unicode="&#x2264;" horiz-adv-x="1181" 
d="M100 -195h953v-157h-953v157zM98 516v135l955 426v-182l-731 -309v-4l731 -310v-182z" />
    <glyph glyph-name="greaterequal" unicode="&#x2265;" horiz-adv-x="1181" 
d="M127 -195h952v-157h-952v157zM127 90v182l731 310v4l-731 309v182l956 -426v-135z" />
    <glyph glyph-name="commaaccent" unicode="&#xf6c3;" horiz-adv-x="686" 
d="M446 -242q0 -66 -51 -176h-151q39 110 39 172t-25 125h174q14 -55 14 -121z" />
    <glyph glyph-name="cyrbreve" unicode="&#xf6d4;" horiz-adv-x="688" 
d="M343 1513q-126 0 -215 71t-89 192v30h160v-28q0 -64 43 -100t101 -36t101 36t43 102v26h158v-30q0 -121 -88 -192t-214 -71z" />
    <glyph glyph-name="apple" unicode="&#xf8ff;" horiz-adv-x="2314" 
d="M915 186h89v467h466v82h-466v393h407q35 0 47 -13t12 -46v-86h86v111q0 61 -26 89q-27 28 -92 27h-656v-82h133v-942zM496 131v248l-203 123v461l203 118v252l440 234l225 -121l219 121l439 -234v-252l204 -118v-461l-204 -123v-248l-439 -233l-219 118l-225 -118z
M426 61l487 -258l248 136l242 -136l487 258v285l234 131v510l-234 135v279l-487 258l-242 -131l-248 131l-487 -258v-279l-233 -135v-510l233 -131v-285zM344 -10v311l-258 148v569l258 145v310l543 290l274 -145l271 145l542 -290v-310l254 -145v-569l-254 -148v-311
l-542 -289l-271 145l-274 -145z" />
    <glyph glyph-name="zero.tnum" horiz-adv-x="1181" 
d="M592 162q303 0 303 561t-303 561t-303 -561t303 -561zM592 -25q-140 -1 -242 57t-160 162q-112 204 -110 531q0 536 270 688q102 57 242 57q512 0 512 -748t-512 -747z" />
    <glyph glyph-name="one.tnum" horiz-adv-x="1181" 
d="M201 0v176h319v934l2 88h-4q-16 -31 -69 -84l-136 -131l-123 127l347 336h180v-1270h317v-176h-833z" />
    <glyph glyph-name="two.tnum" horiz-adv-x="1181" 
d="M115 140q0 74 39 165q39 90 101 156t139 124t153 109q76 50 138 102q140 116 140 233t-73 184q-74 67 -176 67t-180 -51q-79 -51 -126 -133l-149 100q66 121 186 198q121 77 273 76q202 0 328 -114t126 -301q0 -111 -51 -207t-128 -158t-167 -129q-90 -66 -168 -117
q-78 -52 -130 -122t-54 -146h721v-176h-932q-10 66 -10 140z" />
    <glyph glyph-name="three.tnum" horiz-adv-x="1181" 
d="M572 168q110 0 196 75t86 195t-97 191q-97 70 -241 69h-98l-47 109l315 371q46 57 90 94v4q-43 -6 -123 -6h-489v176h864v-129l-393 -455q234 -22 355 -193q69 -97 69 -231q0 -190 -137 -326t-355 -137q-129 -1 -254 51t-215 146l111 154q63 -68 157 -113q96 -45 206 -45
z" />
    <glyph glyph-name="four.tnum" horiz-adv-x="1181" 
d="M258 557h477v528l8 146h-4q-33 -70 -71 -121l-410 -549v-4zM35 387v127l670 932h229v-889h196v-170h-196v-387h-199v387h-700z" />
    <glyph glyph-name="five.tnum" horiz-adv-x="1181" 
d="M545 168q131 0 223 82t92 211t-93 213t-231 84t-247 -72l-119 43l72 717h731v-176h-555l-33 -305l-12 -74h4q82 43 188 43q225 0 365 -136t139 -340q0 -204 -146 -343t-366 -140q-129 1 -247 53t-197 148l114 148q127 -156 318 -156z" />
    <glyph glyph-name="six.tnum" horiz-adv-x="1181" 
d="M643 162q115 0 187 84t71 216q0 132 -80 217t-208 85t-216 -59t-88 -154q-1 -133 95 -261t239 -128zM96 655q0 241 107 459t304 307q110 49 253 49t268 -59l-65 -174q-90 47 -209 47q-184 0 -295 -142t-137 -343h4q45 61 134 98t185 37q203 0 330 -135t127 -343
t-131 -344t-349 -136t-372 188t-154 491z" />
    <glyph glyph-name="seven.tnum" horiz-adv-x="1181" 
d="M770 1270h-647v176h967v-139l-652 -1307h-211l564 1137q39 81 81 133v4q-29 -4 -102 -4z" />
    <glyph glyph-name="eight.tnum" horiz-adv-x="1181" 
d="M293 428q0 -117 88 -194q88 -76 206 -76t204 68t86 170q0 101 -93 163q-72 48 -176 94t-139 62q-176 -123 -176 -287zM862 1069q0 102 -71 161q-72 58 -188 58q-115 0 -181 -57t-66 -144t62 -138t127 -82q64 -31 113 -52q50 -21 73 -31q131 139 131 285zM86 412
q0 154 85 252t146 139q-161 113 -161 279t116 277q117 111 327 111t336 -105t126 -280q0 -82 -45 -188t-129 -190q197 -119 197 -301t-138 -306q-137 -125 -355 -125t-362 124q-143 125 -143 313z" />
    <glyph glyph-name="nine.tnum" horiz-adv-x="1181" 
d="M568 682q128 0 216 62t88 141q0 147 -97 273t-224 126t-199 -83t-72 -216t80 -218t208 -85zM424 162q186 0 297 142t137 343h-4q-43 -61 -133 -98t-186 -37q-203 0 -330 135t-127 344t131 344t334 135q237 0 389 -188t152 -489t-157 -549q-77 -121 -205 -195
q-128 -73 -288 -73t-282 59l65 176q98 -49 207 -49z" />
    <glyph glyph-name="hyphen.case" horiz-adv-x="884" 
d="M143 625v176h598v-176h-598z" />
    <glyph glyph-name="parenleft.case" horiz-adv-x="600" 
d="M289 734q0 -446 231 -867h-174q-238 395 -237 891q0 430 237 809h174q-231 -387 -231 -833z" />
    <glyph glyph-name="parenright.case" horiz-adv-x="600" 
d="M311 734q0 446 -231 833h174q238 -379 238 -809q0 -496 -238 -891h-174q231 421 231 867z" />
    <glyph glyph-name="bracketleft.case" horiz-adv-x="616" 
d="M176 -133v1700h340v-150h-166v-1399h166v-151h-340z" />
    <glyph glyph-name="bracketright.case" horiz-adv-x="616" 
d="M100 18h166v1399h-166v150h340v-1700h-340v151z" />
    <glyph glyph-name="braceleft.case" horiz-adv-x="727" 
d="M432 231q0 -208 178 -215h27v-151q-18 -4 -51 -4t-69 5t-86 28q-50 22 -86 58q-35 36 -61 106t-26 161v197q0 90 -44 149t-130 74v176q82 17 128 75t46 152v172q0 92 26 161t61 105q91 91 245 91l47 -2v-152h-27q-54 -1 -97 -27q-79 -50 -81 -188v-211q0 -90 -45 -160
t-121 -100v-4q166 -66 166 -260v-236z" />
    <glyph glyph-name="braceright.case" horiz-adv-x="727" 
d="M90 16h29q53 0 95 26q79 48 81 189v236q0 92 43 162t123 98v4q-70 27 -118 97t-48 163v211q0 139 -71 181q-57 34 -105 34h-29v152q18 2 51 2t69 -5t86 -28q50 -22 86 -58t62 -105t25 -161v-172q0 -90 45 -151t129 -76v-176q-82 -11 -128 -73t-46 -150v-197
q0 -92 -26 -162q-25 -69 -61 -105q-91 -91 -245 -91l-47 4v151z" />
    <glyph glyph-name="at.case" horiz-adv-x="1630" 
d="M1001 965q-105 0 -173 -71t-68 -172t68 -171t169 -70h207v484h-203zM115 719q0 317 217 537q218 220 512 220t422 -117q128 -118 129 -298v-580h147v-149h-559q-186 0 -305 114t-119 272q0 160 118 272t306 112h221q-2 90 -90 150t-242 61q-236 0 -398 -176t-161 -421
q0 -245 163 -415t419 -170v-162q-338 1 -559 217t-221 533z" />
    <glyph glyph-name="guillemotleft.case" horiz-adv-x="1148" 
d="M428 281l-336 419l336 422h199l-336 -422l336 -419h-199zM842 281l-336 419l336 422h198l-335 -422l335 -419h-198z" />
    <glyph glyph-name="guillemotright.case" horiz-adv-x="1148" 
d="M109 281l335 419l-335 422h198l336 -422l-336 -419h-198zM522 281l336 419l-336 422h199l336 -422l-336 -419h-199z" />
    <glyph glyph-name="guilsinglleft.case" horiz-adv-x="737" 
d="M428 281l-336 419l336 422h199l-336 -422l336 -419h-199z" />
    <glyph glyph-name="guilsinglright.case" horiz-adv-x="737" 
d="M109 281l335 419l-335 422h198l336 -422l-336 -419h-198z" />
    <glyph glyph-name="endash.case" horiz-adv-x="1363" 
d="M143 627v159h1078v-159h-1078z" />
    <glyph glyph-name="emdash.case" horiz-adv-x="1773" 
d="M143 627v159h1487v-159h-1487z" />
    <glyph glyph-name="periodcentered.case" horiz-adv-x="491" 
d="M143 602v211h203v-211h-203z" />
    <glyph glyph-name="questiondown.case" horiz-adv-x="956" 
d="M649 1444v-203h-205v203h205zM643 1047v-97q0 -156 -122 -273q-50 -48 -101 -92q-123 -106 -123 -227q0 -86 67 -144t179 -58t219 86l110 -142q-146 -131 -340 -131q-194 1 -319 105t-125 275t128 289q54 50 108 96q127 110 127 229v84h192z" />
    <glyph glyph-name="exclamdown.case" horiz-adv-x="559" 
d="M381 1444v-203h-205v203h205zM369 1047l12 -1049h-205l14 1049h179z" />
    <glyph glyph-name="bullet.case" horiz-adv-x="970" 
d="M485 403q-131 -1 -223 93t-92 225t92 224t223 93t225 -93t93 -224q1 -131 -93 -225t-225 -93z" />
    <glyph glyph-name="zero.p_osf" horiz-adv-x="1198" 
d="M307 559q0 -170 75 -291t217 -121t217 122t75 290t-75 290t-217 122t-217 -121t-75 -291zM106 557q0 336 217 499q116 87 277 87q238 0 365 -173t127 -414t-127 -411t-366 -170t-366 171t-127 411z" />
    <glyph glyph-name="one.p_osf" horiz-adv-x="989" 
d="M137 0v172h312v625l2 121h-5q-31 -31 -77 -60l-187 -110l-92 139l377 231h176v-946h281v-172h-787z" />
    <glyph glyph-name="two.p_osf" horiz-adv-x="1107" 
d="M123 0v137q309 205 469 352t160 279q0 100 -68 150t-170 49q-158 0 -307 -154l-109 131q72 84 193 141t250 58q184 1 299 -99q114 -100 114 -260t-130 -304q-130 -142 -402 -312v-4q43 8 123 8h463v-172h-885z" />
    <glyph glyph-name="three.p_osf" horiz-adv-x="1095" 
d="M797 168q1 118 -99 184t-235 66h-107l-45 104l305 350q39 49 80 76v4q-43 -6 -121 -6h-423v172h813v-117l-396 -434q158 -12 284 -99q65 -44 105 -121t39 -173q0 -188 -136 -312t-355 -124q-266 0 -436 182l102 139q145 -150 330 -149q123 0 209 70t86 188z" />
    <glyph glyph-name="four.p_osf" horiz-adv-x="1214" 
d="M731 240v524l10 145h-4q-35 -76 -71 -129l-385 -540h450zM59 68v127l635 923h236v-878h209v-172h-209v-306h-199v306h-672z" />
    <glyph glyph-name="five.p_osf" horiz-adv-x="1103" 
d="M522 -76q110 0 203 73q94 73 94 202t-93 201t-224 73q-62 0 -124 -15t-93 -32l-31 -16l-113 41l74 667h705v-172h-535l-33 -278l-10 -72h4q82 39 191 39q211 0 347 -117q136 -118 136 -318t-143 -325t-363 -125q-120 0 -236 48t-192 136l104 136q118 -146 332 -146z" />
    <glyph glyph-name="six.p_osf" horiz-adv-x="1210" 
d="M324 520q0 -137 93 -255t223 -118t200 79t69 204q0 125 -79 204t-206 79q-128 -1 -214 -59t-86 -134zM764 1208q-184 0 -296 -138t-136 -331h4q45 63 134 99t187 36q201 0 327 -126t126 -320q0 -195 -130 -324t-347 -129t-368 171q-150 171 -150 455t152 521
q75 115 202 187q127 71 285 71t282 -55l-65 -162q-90 45 -207 45z" />
    <glyph glyph-name="seven.p_osf" horiz-adv-x="1054" 
d="M690 948h-618v170h942v-131l-625 -1225h-209l537 1063q42 81 65 109l9 14v4q-29 -4 -101 -4z" />
    <glyph glyph-name="eight.p_osf" horiz-adv-x="1204" 
d="M309 403q0 -113 86 -185t204 -71q118 0 202 65t84 167q0 69 -58 120t-121 77t-123 52t-94 40q-180 -118 -180 -265zM864 1006q0 94 -69 148q-70 54 -184 54q-115 0 -179 -53t-64 -128t35 -108q34 -33 52 -49q33 -29 145 -75t135 -56q129 129 129 267zM111 391
q0 88 49 172t93 122t87 67q-164 109 -164 264q0 156 114 260t316 104t327 -99q124 -99 124 -270t-166 -347q195 -115 195 -284t-136 -287q-135 -118 -348 -118t-352 117t-139 299z" />
    <glyph glyph-name="nine.p_osf" horiz-adv-x="1175" 
d="M572 408q128 0 214 57t86 133q0 137 -93 255t-223 118t-201 -78t-71 -203q0 -126 81 -204q80 -78 207 -78zM432 -90q182 0 294 138t138 329h-4q-45 -61 -134 -96t-187 -35q-203 0 -328 125t-125 321t130 323q130 128 347 128t368 -171t151 -455t-153 -521
q-75 -114 -202 -186t-285 -72t-282 55l65 162q90 -45 207 -45z" />
    <glyph glyph-name="zero.t_osf" horiz-adv-x="1181" 
d="M299 559q0 -170 75 -291t217 -121t217 122t75 290t-75 290t-217 122t-217 -121t-75 -291zM98 557q0 337 216 499q116 87 278 87q238 0 364 -173t127 -414q0 -241 -127 -411q-128 -170 -366 -170t-365 171t-127 411z" />
    <glyph glyph-name="one.t_osf" horiz-adv-x="1181" 
d="M231 0v172h312v625l2 121h-4q-31 -31 -78 -60l-187 -110l-92 139l377 231h176v-946h281v-172h-787z" />
    <glyph glyph-name="two.t_osf" horiz-adv-x="1181" 
d="M160 0v137q309 205 469 352t159 279q0 100 -67 150q-68 49 -170 49q-158 0 -307 -154l-109 131q72 84 193 141t250 58q184 1 299 -99t115 -260t-131 -304q-130 -142 -402 -312v-4q43 8 123 8h462v-172h-884z" />
    <glyph glyph-name="three.t_osf" horiz-adv-x="1181" 
d="M838 168q0 118 -100 184t-232 66h-107l-45 104l303 348q39 49 80 76v4q-43 -6 -119 -6h-423v172h811v-117l-394 -432q156 -12 282 -99q64 -44 104 -121t40 -173q0 -188 -136 -312t-353 -124q-266 0 -436 182l102 139q145 -150 330 -149q123 0 208 70t85 188z" />
    <glyph glyph-name="four.t_osf" horiz-adv-x="1181" 
d="M717 240v524l10 145h-4q-35 -76 -72 -129l-385 -540h451zM45 68v127l635 923h235v-878h209v-172h-209v-306h-198v306h-672z" />
    <glyph glyph-name="five.t_osf" horiz-adv-x="1181" 
d="M558 -76q110 0 204 73t94 202t-93 201t-224 73q-63 0 -125 -15t-92 -32l-31 -16l-113 41l74 667h704v-172h-534l-33 -278l-10 -72h4q82 39 190 39q211 0 347 -117q136 -118 137 -318t-143 -325t-363 -125q-121 0 -237 48t-191 136l104 136q117 -146 331 -146z" />
    <glyph glyph-name="six.t_osf" horiz-adv-x="1181" 
d="M311 520q0 -137 93 -255q94 -118 224 -118t200 79t69 204q0 125 -79 204t-206 79q-127 -1 -214 -59t-87 -134zM752 1208q-184 0 -296 -138t-137 -331h5q45 63 134 99t187 36q201 0 327 -126t126 -320q0 -195 -130 -324t-347 -129t-368 171t-151 456t153 520
q75 115 202 187q127 71 285 71t282 -55l-66 -162q-90 45 -206 45z" />
    <glyph glyph-name="seven.t_osf" horiz-adv-x="1181" 
d="M752 948h-619v170h942v-131l-624 -1225h-209l536 1063q43 84 66 109l8 14v4q-29 -4 -100 -4z" />
    <glyph glyph-name="eight.t_osf" horiz-adv-x="1181" 
d="M299 403q0 -113 86 -185t204 -71q118 0 202 65t83 167q0 70 -56 119t-121 77q-65 27 -125 53t-93 40q-180 -118 -180 -265zM854 1006q0 94 -70 148t-184 54t-178 -53t-64 -127t34 -108t57 -55t84 -46q61 -26 117 -49t75 -31q129 129 129 267zM100 391q0 88 50 172
q49 84 93 122t87 67q-164 109 -164 264q0 156 114 260t316 104t327 -99q124 -99 124 -270t-166 -347q195 -115 195 -284t-136 -287q-135 -118 -348 -118q-212 0 -352 117t-140 299z" />
    <glyph glyph-name="nine.t_osf" horiz-adv-x="1181" 
d="M572 408q128 0 214 57t86 133q0 137 -93 255t-223 118t-201 -78t-71 -203q0 -126 81 -204q80 -78 207 -78zM432 -90q182 0 294 138t138 329h-4q-45 -61 -134 -96t-187 -35q-203 0 -328 125t-125 321t130 323q130 128 347 128t368 -171t151 -455t-153 -521
q-75 -114 -202 -186t-285 -72t-282 55l65 162q90 -45 207 -45z" />
    <glyph glyph-name="dollar.osf" horiz-adv-x="1056" 
d="M531 156q95 0 157 43t62 111t-64 114t-154 80q-90 35 -179 76q-89 42 -152 116t-63 194t93 208q94 86 244 104v178h146v-176q197 -23 307 -125l-84 -157q-113 109 -285 108q-95 0 -155 -40t-60 -110t64 -115q64 -44 153 -77q90 -33 179 -74t153 -116q63 -76 63 -196
t-96 -212t-254 -108v-191h-145v191q-107 12 -207 63t-166 129l105 145q59 -71 151 -117t187 -46z" />
    <glyph glyph-name="cent.osf" horiz-adv-x="1134" 
d="M524 -55v170q-194 31 -312 167t-118 330t119 329q119 136 311 167v174h150v-168q205 -16 346 -158l-96 -149q-47 59 -126 95t-159 36q-152 0 -249 -92t-97 -232t97 -235q97 -94 255 -94t279 131l94 -148q-123 -137 -344 -159v-164h-150z" />
    <glyph glyph-name="sterling.osf" horiz-adv-x="1224" 
d="M109 0v172h127v322h-93v139h93v180q0 170 130 283q130 112 330 112t351 -112l-97 -148q-109 82 -240 82q-132 0 -204 -64t-72 -159v-174h445v-139h-445v-322h666v-172h-991z" />
    <glyph glyph-name="yen.osf" horiz-adv-x="1273" 
d="M197 289v129h340v45l-72 117h-268v131h192l-285 475h228l213 -377l88 -184h4q45 102 88 184l215 377h227l-284 -475h196v-131h-272l-70 -117v-45h342v-129h-342v-289h-200v289h-340z" />
    <glyph glyph-name="florin.osf" horiz-adv-x="1075" 
d="M119 -88q227 0 246 227l43 484h-170v161h182l20 213q8 98 43 171t80 113q114 101 299 101q67 0 148 -12l26 -4v-172q-102 14 -164 14q-217 0 -235 -225l-21 -199h240v-161h-254l-43 -500q-10 -121 -58 -203t-118 -118q-121 -62 -244 -62l-143 12v172q78 -12 123 -12z" />
    <glyph glyph-name="Euro.osf" horiz-adv-x="1230" 
d="M104 406v120h134q-8 55 -2 125h-132v123h150q55 190 216 312t413 122q100 0 198 -24l-45 -164q-72 20 -157 20q-158 0 -263 -73q-104 -74 -149 -193h516l-27 -123h-522q-10 -63 4 -125h498l-25 -120h-434q45 -117 149 -189t259 -72q100 0 180 29l35 -166
q-102 -33 -217 -33q-244 0 -405 121t-220 310h-154z" />
    <glyph glyph-name="zero.numerator" 
d="M394 674q167 0 167 326t-167 327q-167 -1 -167 -327t167 -326zM395 532q-321 0 -321 468t322 468t321 -468q0 -468 -322 -468z" />
    <glyph glyph-name="one.numerator" 
d="M147 553v135h191v510l4 53h-4q-8 -18 -35 -45l-74 -69l-92 100l217 211h138v-760h188v-135h-533z" />
    <glyph glyph-name="two.numerator" 
d="M90 627q0 96 45 171t109 121t126 86q154 97 154 189q0 57 -42 95t-105 38q-92 0 -174 -98l-101 92q43 63 120 105t161 42q127 0 211 -74t84 -194q0 -82 -42 -148t-102 -107q-60 -42 -122 -79q-150 -90 -156 -178h436v-135h-596q-6 37 -6 74z" />
    <glyph glyph-name="three.numerator" 
d="M373 532q-86 0 -168 35t-133 101l86 108q31 -43 88 -73q57 -29 124 -29q66 0 116 45t50 111t-52 106q-54 39 -128 39h-69l-35 78l182 211l51 49v4q-39 -6 -75 -6h-289v137h555v-98l-223 -258q102 -14 171 -81q68 -67 68 -185t-90 -206t-229 -88z" />
    <glyph glyph-name="four.numerator" 
d="M205 907h258v252l6 119h-4q-27 -55 -59 -98l-201 -269v-4zM463 553v219h-424v102l410 574h165v-541h127v-135h-127v-219h-151z" />
    <glyph glyph-name="five.numerator" 
d="M375 532q-182 0 -293 140l90 104q29 -45 83 -74q54 -28 120 -28t120 48t54 120t-54 121q-53 49 -135 49t-151 -43l-86 32l49 447h473v-137h-348l-14 -127l-11 -66h4q55 20 115 21q135 0 223 -88t88 -212q0 -123 -92 -215t-235 -92z" />
    <glyph glyph-name="six.numerator" 
d="M240 905q0 -87 51 -159t124 -72t111 48t39 121q0 73 -45 122q-44 49 -114 49t-118 -34t-48 -75zM719 835q0 -131 -84 -217t-224 -86t-235 114q-94 114 -94 302q0 286 175 437q95 83 215 83t204 -45l-51 -129q-61 33 -144 33t-145 -74t-82 -184h4q63 63 162 64
q135 0 217 -83t82 -215z" />
    <glyph glyph-name="seven.numerator" 
d="M449 1311h-351v137h619v-105l-424 -790h-170l358 661l60 97v4q-39 -4 -92 -4z" />
    <glyph glyph-name="eight.numerator" 
d="M392 664q66 0 117 37q50 38 50 95t-49 91t-109 59q-59 26 -79 37q-100 -76 -100 -157q0 -82 51 -122q53 -40 119 -40zM549 1200q0 69 -44 100q-45 31 -103 31q-58 1 -98 -27t-40 -75t30 -80q55 -61 179 -102q76 84 76 153zM395 530q-131 0 -227 74t-96 204t145 232
q-100 72 -100 186t85 177q86 63 202 63t204 -64t88 -180q0 -114 -114 -229q131 -77 131 -197q1 -120 -93 -193t-225 -73z" />
    <glyph glyph-name="nine.numerator" 
d="M382 985q70 0 119 35q48 35 48 76q0 86 -51 158t-123 73q-72 0 -112 -48t-40 -121t45 -123q44 -50 114 -50zM309 676q82 0 146 73q63 73 82 183h-5q-63 -63 -161 -64q-135 0 -217 83t-82 214t84 217t223 86t234 -114t95 -306q0 -194 -104 -355q-106 -161 -299 -161
q-110 1 -190 46l51 131q61 -33 143 -33z" />
    <glyph glyph-name="zero.denominator" 
d="M227 448q0 -326 167 -327q167 0 167 327t-166 326q-168 0 -168 -326zM395 -20q-321 0 -321 468t321 467q322 1 322 -467t-322 -468z" />
    <glyph glyph-name="one.denominator" 
d="M147 0v135h191v510l4 53h-4q-8 -18 -35 -45l-74 -69l-92 100l217 211h138v-760h188v-135h-533z" />
    <glyph glyph-name="two.denominator" 
d="M90 74q0 96 45 171t109 121t126 86q154 97 154 189q0 57 -42 95t-105 38q-92 0 -174 -98l-101 92q43 63 120 105t161 42q127 -1 211 -75t84 -193q0 -81 -42 -147t-102 -108t-122 -79q-150 -90 -156 -178h436v-135h-596q-6 37 -6 74z" />
    <glyph glyph-name="three.denominator" 
d="M373 -20q-86 0 -168 34t-133 101l86 108q31 -43 88 -73t124 -29q66 0 116 45q50 46 50 112t-52 105q-54 39 -128 39h-69l-35 78l182 211l51 49v4q-39 -6 -75 -6h-289v137h555v-98l-223 -258q102 -14 171 -81q68 -67 68 -185q0 -117 -90 -205t-229 -88z" />
    <glyph glyph-name="four.denominator" 
d="M205 354h258v252l6 119h-4q-27 -55 -59 -98l-201 -269v-4zM463 0v219h-424v103l410 573h165v-541h127v-135h-127v-219h-151z" />
    <glyph glyph-name="five.denominator" 
d="M375 -20q-182 0 -293 139l90 104q29 -45 83 -73t120 -29q66 0 120 48t54 120t-54 121q-53 49 -135 49t-151 -43l-86 33l49 446h473v-137h-348l-14 -127l-11 -66h4q55 20 115 21q135 0 223 -88t88 -212t-92 -215t-235 -91z" />
    <glyph glyph-name="six.denominator" 
d="M240 352q0 -86 51 -158t124 -73q73 0 111 48t39 121q0 73 -45 122q-44 49 -114 49t-118 -34t-48 -75zM411 -20q-140 0 -235 113q-94 114 -94 302q0 285 175 438q95 83 215 83t204 -46l-51 -129q-61 33 -144 33t-145 -74t-82 -184h4q63 63 162 64q135 0 217 -83t82 -215
t-84 -217t-224 -85z" />
    <glyph glyph-name="seven.denominator" 
d="M449 758h-351v137h619v-104l-424 -791h-170l358 662l60 96v4q-39 -4 -92 -4z" />
    <glyph glyph-name="eight.denominator" 
d="M392 113q66 0 117 38q50 38 50 94t-49 91q-49 34 -109 59q-59 26 -79 37q-100 -76 -100 -157t51 -121q53 -40 119 -41zM549 650q0 70 -44 100q-45 30 -103 30t-98 -28t-40 -74q0 -47 30 -80q55 -61 179 -102q76 84 76 154zM395 -20q-131 0 -227 74t-96 203q0 130 145 232
q-100 72 -100 186t85 177q86 63 202 63q116 -1 204 -65t88 -178t-114 -230q131 -78 131 -198t-93 -192q-94 -72 -225 -72z" />
    <glyph glyph-name="nine.denominator" 
d="M382 432q70 0 119 35q48 35 48 76q0 87 -51 159t-123 72t-112 -48t-40 -121t45 -123q44 -50 114 -50zM309 123q82 0 146 73q63 73 82 183h-5q-63 -63 -161 -64q-135 0 -217 83t-82 214t84 217t223 86q139 1 234 -113t95 -308t-104 -354q-106 -161 -299 -160
q-110 0 -190 45l51 131q61 -33 143 -33z" />
    <glyph glyph-name="uni0433.BUL" horiz-adv-x="913" 
d="M80 250q0 92 55 163t134 111t159 75q80 36 135 80t55 99q0 115 -161 115q-137 0 -271 -92l-80 145q162 115 336 115t271 -69q96 -69 96 -201q0 -80 -40 -145q-40 -64 -99 -102q-115 -73 -260 -135q-140 -62 -140 -153q0 -51 49 -82t127 -31q170 0 302 121l96 -137
q-180 -152 -402 -152q-166 0 -264 75t-98 200z" />
    <glyph glyph-name="uni0434.BUL" horiz-adv-x="1216" 
d="M575 889q-133 0 -207 -91t-75 -253q0 -162 81 -261q81 -100 211 -100t207 84t76 273q0 348 -293 348zM536 -258q146 0 237 71t91 218v84l6 65h-4q-100 -168 -311 -168t-337 150t-126 379t121 374t332 146q104 0 192 -39t135 -119h7q-6 12 -7 31v102h191v-993
q0 -123 -44 -217q-79 -169 -286 -229q-90 -27 -192 -27q-182 0 -355 86l66 156q138 -70 284 -70z" />
    <glyph glyph-name="uni0436.BUL" horiz-adv-x="1540" 
d="M676 612v834h188v-834h148l256 424h209l-303 -499v-5l333 -532h-223l-270 442h-150v-442h-188v442h-148l-272 -442h-221l334 532v5l-306 499h211l254 -424h148z" />
    <glyph glyph-name="uni0438.BUL" horiz-adv-x="1222" 
d="M141 373v663h199v-618q0 -123 41 -191t154 -67q153 0 245 114t92 277v485h197v-1036h-192v143l8 76h-4q-41 -92 -143 -168t-242 -76q-355 1 -355 398z" />
    <glyph glyph-name="uni0439.BUL" horiz-adv-x="1222" 
d="M905 1417q0 -121 -88 -191t-214 -71q-126 0 -215 71t-89 191v31h160v-29q0 -63 43 -99t101 -36t102 36q43 36 43 101v27h157v-31zM141 373v663h199v-618q0 -123 41 -191t154 -67q153 0 245 114t92 277v485h197v-1036h-192v143l8 76h-4q-41 -92 -143 -168t-242 -76
q-355 1 -355 398z" />
    <glyph glyph-name="uni043A.BUL" horiz-adv-x="1069" 
d="M154 0v1446h198v-791h148l280 381h226l-344 -456v-5l382 -575h-231l-309 485h-152v-485h-198z" />
    <glyph glyph-name="uni043B.BUL" horiz-adv-x="1077" 
d="M35 0l387 1036h229l383 -1036h-209l-252 702l-34 140h-4q-18 -84 -39 -140l-252 -702h-209z" />
    <glyph glyph-name="uni043F.BUL" horiz-adv-x="1234" 
d="M154 0v1036h192v-141l-6 -78h4q39 88 140 166t253 78q354 0 355 -397v-664h-199v618q0 125 -40 193t-155 68q-150 0 -248 -110t-98 -271v-498h-198z" />
    <glyph glyph-name="uni0442.BUL" horiz-adv-x="1871" 
d="M154 0v1036h192v-141l-6 -78h4q39 96 141 170t220 74q256 0 309 -236h4q45 96 146 166t222 70q176 0 260 -98t83 -299v-664h-199v621q0 125 -38 193t-144 67q-136 0 -222 -120t-86 -278v-483h-198v621q0 123 -36 191t-142 69q-140 0 -226 -121t-86 -277v-483h-198z" />
    <glyph glyph-name="uni0446.BUL" horiz-adv-x="1284" 
d="M141 373v663h199v-618q0 -123 41 -191t154 -67q153 0 245 114t92 277v485h197v-864h166v-418h-182v246h-176v143l8 76h-4q-41 -92 -143 -168t-242 -76q-355 1 -355 398z" />
    <glyph glyph-name="uni0448.BUL" horiz-adv-x="1869" 
d="M1716 1034v-1036h-192v141l6 78h-4q-40 -96 -142 -170t-219 -74q-256 0 -309 236h-4q-45 -96 -146 -166t-223 -70q-176 1 -259 99t-83 299v663h199v-620q0 -125 38 -193t144 -67q137 0 222 120t85 277v483h199v-620q0 -123 36 -192t142 -68q139 0 226 120q86 121 86 277
v483h198z" />
    <glyph glyph-name="uni0449.BUL" horiz-adv-x="1923" 
d="M1716 1034v-862h156v-418h-180v244h-168v141l6 78h-4q-40 -96 -142 -170t-219 -74q-256 0 -309 236h-4q-45 -96 -146 -166t-223 -70q-176 1 -259 99t-83 299v663h199v-620q0 -125 38 -193t144 -67q137 0 222 120t85 277v483h199v-620q0 -123 36 -192t142 -68
q139 0 226 120q86 121 86 277v483h198z" />
    <glyph glyph-name="uni044A.BUL" horiz-adv-x="1183" 
d="M915 367q1 239 -217 239q-102 0 -164 -64t-63 -170q0 -106 58 -173q57 -68 159 -68q102 1 164 63t63 173zM272 377v489h-219v170h418v-282q0 -78 -2 -97h4q41 49 115 80t162 31q162 0 265 -104t103 -286t-116 -292q-116 -111 -318 -111t-308 112q-104 112 -104 290z" />
    <glyph glyph-name="uni044C.BUL" horiz-adv-x="1052" 
d="M340 372q0 -106 58 -173q58 -68 160 -68q102 1 164 63q64 62 64 181t-59 175t-162 56t-164 -64t-61 -170zM141 377v659h199v-282q0 -59 -4 -97h4q41 47 117 79t159 32q162 0 266 -103t105 -285q0 -182 -116 -294q-117 -111 -319 -111t-306 112t-105 290z" />
    <glyph glyph-name="uni044E.BUL" horiz-adv-x="1695" 
d="M733 519q0 -161 97 -266q98 -105 240 -105t240 104q98 106 97 267q0 161 -97 265q-98 104 -240 104t-240 -104t-97 -265zM154 0v1446h198v-844h189q29 201 176 330t363 129t373 -154t157 -387t-156 -389t-372 -156t-364 130t-177 333h-189v-438h-198z" />
    <glyph glyph-name="uni0432.BUL" horiz-adv-x="1214" 
d="M332 448q0 -144 81 -225q81 -82 209 -82t216 85q88 86 88 232t-88 213t-207 67t-209 -74q-90 -72 -90 -216zM330 754h4q43 74 153 129l121 59q109 56 156 108t47 120t-55 110q-55 41 -133 41q-139 0 -216 -104t-77 -269v-194zM135 496v393q0 254 135 418t373 163
q164 0 264 -82t101 -202q0 -199 -248 -320v-4q202 -18 308 -178q60 -90 60 -213q0 -219 -140 -357t-372 -138t-356 147q-125 148 -125 373z" />
    <glyph glyph-name="uni0437.BUL" horiz-adv-x="911" 
d="M338 -256q136 0 215 78q80 78 80 200t-80 189q-80 68 -229 68h-119v161h121q112 0 188 64t76 168q0 106 -62 162t-163 57q-139 0 -240 -96l-92 129q152 137 348 137q197 0 303 -100q106 -99 108 -231t-58 -220t-159 -133v-4q258 -92 259 -361q0 -188 -132 -315t-342 -127
q-211 0 -346 96l82 156q106 -78 242 -78z" />
    <glyph glyph-name="uni0414.ALT" horiz-adv-x="1464" 
d="M389 176h684l-289 840l-51 198h-4q-31 -125 -53 -198zM27 176h151l447 1270h211l448 -1270h152v-463h-183v287h-1042v-287h-184v463z" />
    <glyph glyph-name="uni041B.ALT" horiz-adv-x="1302" 
d="M29 0l516 1446h211l516 -1446h-215l-350 1016l-54 198h-4q-27 -125 -53 -198l-348 -1016h-219z" />
    <glyph glyph-name="uni0434.ALT" horiz-adv-x="1234" 
d="M362 164h502l-207 555l-41 139h-4q-18 -84 -39 -139zM43 164h121l334 872h237l330 -872h127v-410h-182v246h-785v-246h-182v410z" />
    <glyph glyph-name="uni043B.ALT" horiz-adv-x="1077" 
d="M35 0l387 1036h229l383 -1036h-209l-252 702l-34 140h-4q-18 -84 -39 -140l-252 -702h-209z" />
    <glyph glyph-name="uni0409.ALT" horiz-adv-x="1810" 
d="M1018 176h256q122 0 196 67t74 183t-75 184t-199 68h-252v-502zM1018 1446v-592h280q201 0 327 -117t126 -311t-126 -310t-318 -116h-490v1270h-80l-504 -1270h-208l575 1446h418z" />
    <glyph glyph-name="uni0459.ALT" horiz-adv-x="1519" 
d="M879 143h184q104 0 155 47q50 47 50 130q0 82 -51 132t-156 50h-182v-359zM879 1036v-389h206q171 0 273 -81t102 -239q0 -159 -94 -243t-283 -84h-401v883h-84l-367 -883h-196l436 1036h408z" />
    <glyph glyph-name="uni04C5.ALT" horiz-adv-x="1458" 
d="M1452 176v-117l-145 -346h-150l86 287h-186l-350 1016l-54 198h-4q-27 -125 -53 -198l-348 -1016h-219l516 1446h211l452 -1270h244z" />
    <glyph glyph-name="uni04C6.ALT" horiz-adv-x="1200" 
d="M1190 170v-113l-127 -303h-141l73 246h-170l-252 702l-34 140h-4q-18 -84 -39 -140l-252 -702h-209l387 1036h229l320 -866h219z" />
    </font>
</defs>
</svg>
